<svg width="15" height="16" viewBox="0 0 15 16" fill="none" xmlns="http://www.w3.org/2000/svg">
<path fill-rule="evenodd" clip-rule="evenodd" d="M7.5 0.5C3.35769 0.5 0 3.85769 0 8C0 12.1423 3.35769 15.5 7.5 15.5C11.6423 15.5 15 12.1423 15 8C15 3.85769 11.6423 0.5 7.5 0.5ZM8.07692 5.69231C8.07692 5.5393 8.01614 5.39256 7.90795 5.28436C7.79975 5.17617 7.65301 5.11538 7.5 5.11538C7.34699 5.11538 7.20025 5.17617 7.09205 5.28436C6.98386 5.39256 6.92308 5.5393 6.92308 5.69231V7.42308H5.19231C5.0393 7.42308 4.89256 7.48386 4.78436 7.59205C4.67617 7.70025 4.61538 7.84699 4.61538 8C4.61538 8.15301 4.67617 8.29975 4.78436 8.40795C4.89256 8.51614 5.0393 8.57692 5.19231 8.57692H6.92308V10.3077C6.92308 10.4607 6.98386 10.6074 7.09205 10.7156C7.20025 10.8238 7.34699 10.8846 7.5 10.8846C7.65301 10.8846 7.79975 10.8238 7.90795 10.7156C8.01614 10.6074 8.07692 10.4607 8.07692 10.3077V8.57692H9.80769C9.9607 8.57692 10.1074 8.51614 10.2156 8.40795C10.3238 8.29975 10.3846 8.15301 10.3846 8C10.3846 7.84699 10.3238 7.70025 10.2156 7.59205C10.1074 7.48386 9.9607 7.42308 9.80769 7.42308H8.07692V5.69231Z" fill="white"/>
</svg>
