<svg width="36" height="36" viewBox="0 0 36 36" fill="none" xmlns="http://www.w3.org/2000/svg">
<path fill-rule="evenodd" clip-rule="evenodd" d="M17.875 34.75C20.0911 34.75 22.2854 34.3135 24.3328 33.4655C26.3802 32.6174 28.2404 31.3744 29.8074 29.8074C31.3744 28.2404 32.6174 26.3802 33.4655 24.3328C34.3135 22.2854 34.75 20.0911 34.75 17.875C34.75 15.6589 34.3135 13.4646 33.4655 11.4172C32.6174 9.36985 31.3744 7.50956 29.8074 5.94257C28.2404 4.37558 26.3802 3.13258 24.3328 2.28453C22.2854 1.43648 20.0911 1 17.875 1C13.3995 1 9.10725 2.7779 5.94257 5.94257C2.7779 9.10725 1 13.3995 1 17.875C1 22.3505 2.7779 26.6427 5.94257 29.8074C9.10725 32.9721 13.3995 34.75 17.875 34.75ZM17.44 24.7L26.815 13.45L23.935 11.05L15.8725 20.7231L11.7006 16.5494L9.04938 19.2006L14.6744 24.8256L16.1256 26.2769L17.44 24.7Z" fill="#43B5A0"/>
</svg>
