<svg width="15" height="15" viewBox="0 0 15 15" fill="none" xmlns="http://www.w3.org/2000/svg">
<path d="M12.0507 11.3871C12.0942 11.4307 12.1288 11.4824 12.1523 11.5393C12.1759 11.5962 12.188 11.6572 12.188 11.7188C12.188 11.7804 12.1759 11.8413 12.1523 11.8983C12.1288 11.9552 12.0942 12.0069 12.0507 12.0504C12.0071 12.094 11.9554 12.1285 11.8985 12.1521C11.8416 12.1756 11.7806 12.1878 11.719 12.1878C11.6574 12.1878 11.5964 12.1756 11.5395 12.1521C11.4826 12.1285 11.4309 12.094 11.3874 12.0504L7.50026 8.16271L3.61315 12.0504C3.52519 12.1384 3.4059 12.1878 3.28151 12.1878C3.15712 12.1878 3.03783 12.1384 2.94987 12.0504C2.86191 11.9625 2.8125 11.8432 2.8125 11.7188C2.8125 11.5944 2.86191 11.4751 2.94987 11.3871L6.83757 7.50002L2.94987 3.61291C2.86191 3.52495 2.8125 3.40566 2.8125 3.28127C2.8125 3.15688 2.86191 3.03758 2.94987 2.94963C3.03783 2.86167 3.15712 2.81226 3.28151 2.81226C3.4059 2.81226 3.52519 2.86167 3.61315 2.94963L7.50026 6.83732L11.3874 2.94963C11.4753 2.86167 11.5946 2.81226 11.719 2.81226C11.8434 2.81226 11.9627 2.86167 12.0507 2.94963C12.1386 3.03758 12.188 3.15688 12.188 3.28127C12.188 3.40566 12.1386 3.52495 12.0507 3.61291L8.16296 7.50002L12.0507 11.3871Z" fill="#555555" fill-opacity="0.3"/>
<path d="M11.8408 2.67456C11.9595 2.69839 12.0694 2.75671 12.1562 2.84351L12.2344 2.93823C12.3015 3.03902 12.3378 3.15815 12.3379 3.28101C12.3379 3.40409 12.3016 3.52383 12.2344 3.62476L12.1562 3.71851L8.37402 7.49976L12.1562 11.281L12.2334 11.3748C12.2559 11.4085 12.2754 11.4445 12.291 11.4822C12.322 11.5571 12.3379 11.6374 12.3379 11.7185C12.3379 11.7592 12.3341 11.7999 12.3262 11.8396L12.291 11.9558C12.2599 12.0309 12.2137 12.0985 12.1562 12.156C12.1275 12.1848 12.0962 12.2107 12.0625 12.2332L11.9561 12.2908C11.881 12.3219 11.8 12.3376 11.7188 12.3376C11.6377 12.3376 11.5574 12.3218 11.4824 12.2908C11.4448 12.2752 11.4087 12.2557 11.375 12.2332L11.2812 12.156L7.5 8.37378L3.71875 12.156C3.60266 12.2721 3.44542 12.3376 3.28125 12.3376C3.15839 12.3376 3.03926 12.3012 2.93848 12.2341L2.84375 12.156C2.72783 12.0399 2.66211 11.8826 2.66211 11.7185L2.6748 11.5974C2.6986 11.4785 2.75671 11.3681 2.84375 11.281L6.625 7.49976L2.84375 3.71851C2.72783 3.60244 2.66211 3.44505 2.66211 3.28101C2.66218 3.11693 2.72772 2.95953 2.84375 2.84351L2.93848 2.76636C3.03931 2.69918 3.15831 2.66192 3.28125 2.66187L3.40332 2.67456C3.52199 2.69839 3.63185 2.75671 3.71875 2.84351L7.5 6.62476L11.2812 2.84351L11.376 2.76636C11.4768 2.69918 11.5958 2.66192 11.7188 2.66187L11.8408 2.67456Z" stroke="#555555" stroke-opacity="0.3" stroke-width="0.3"/>
</svg>
