<svg width="25" height="25" viewBox="0 0 25 25" fill="none" xmlns="http://www.w3.org/2000/svg">
<path fill-rule="evenodd" clip-rule="evenodd" d="M12.1875 0C5.45625 0 0 5.45625 0 12.1875C0 18.9188 5.45625 24.375 12.1875 24.375C18.9188 24.375 24.375 18.9188 24.375 12.1875C24.375 5.45625 18.9188 0 12.1875 0ZM10.0375 8.7125C9.95167 8.62039 9.84817 8.54651 9.73317 8.49527C9.61817 8.44403 9.49403 8.41648 9.36815 8.41426C9.24227 8.41204 9.11724 8.43519 9.0005 8.48235C8.88377 8.5295 8.77773 8.59968 8.6887 8.6887C8.59968 8.77773 8.5295 8.88377 8.48235 9.0005C8.43519 9.11724 8.41204 9.24227 8.41426 9.36815C8.41648 9.49403 8.44403 9.61817 8.49527 9.73317C8.54651 9.84817 8.62039 9.95167 8.7125 10.0375L10.8625 12.1875L8.7125 14.3375C8.62039 14.4233 8.54651 14.5268 8.49527 14.6418C8.44403 14.7568 8.41648 14.881 8.41426 15.0068C8.41204 15.1327 8.43519 15.2578 8.48235 15.3745C8.5295 15.4912 8.59968 15.5973 8.6887 15.6863C8.77773 15.7753 8.88377 15.8455 9.0005 15.8927C9.11724 15.9398 9.24227 15.963 9.36815 15.9607C9.49403 15.9585 9.61817 15.931 9.73317 15.8797C9.84817 15.8285 9.95167 15.7546 10.0375 15.6625L12.1875 13.5125L14.3375 15.6625C14.4233 15.7546 14.5268 15.8285 14.6418 15.8797C14.7568 15.931 14.881 15.9585 15.0068 15.9607C15.1327 15.963 15.2578 15.9398 15.3745 15.8927C15.4912 15.8455 15.5973 15.7753 15.6863 15.6863C15.7753 15.5973 15.8455 15.4912 15.8927 15.3745C15.9398 15.2578 15.963 15.1327 15.9607 15.0068C15.9585 14.881 15.931 14.7568 15.8797 14.6418C15.8285 14.5268 15.7546 14.4233 15.6625 14.3375L13.5125 12.1875L15.6625 10.0375C15.7546 9.95167 15.8285 9.84817 15.8797 9.73317C15.931 9.61817 15.9585 9.49403 15.9607 9.36815C15.963 9.24227 15.9398 9.11724 15.8927 9.0005C15.8455 8.88377 15.7753 8.77773 15.6863 8.6887C15.5973 8.59968 15.4912 8.5295 15.3745 8.48235C15.2578 8.43519 15.1327 8.41204 15.0068 8.41426C14.881 8.41648 14.7568 8.44403 14.6418 8.49527C14.5268 8.54651 14.4233 8.62039 14.3375 8.7125L12.1875 10.8625L10.0375 8.7125Z" fill="white"/>
</svg>
