<svg width="21" height="20" viewBox="0 0 21 20" fill="none" xmlns="http://www.w3.org/2000/svg">
<path fill-rule="evenodd" clip-rule="evenodd" d="M0.5 3.33333C0.5 2.44928 0.85119 1.60143 1.47631 0.976311C2.10143 0.35119 2.94928 0 3.83333 0H6.33333C7.21739 0 8.06524 0.35119 8.69036 0.976311C9.31548 1.60143 9.66667 2.44928 9.66667 3.33333V5.83333C9.66667 6.71739 9.31548 7.56524 8.69036 8.19036C8.06524 8.81548 7.21739 9.16667 6.33333 9.16667H3.83333C2.94928 9.16667 2.10143 8.81548 1.47631 8.19036C0.85119 7.56524 0.5 6.71739 0.5 5.83333V3.33333ZM11.3333 3.33333C11.3333 2.44928 11.6845 1.60143 12.3096 0.976311C12.9348 0.35119 13.7826 0 14.6667 0H17.1667C18.0507 0 18.8986 0.35119 19.5237 0.976311C20.1488 1.60143 20.5 2.44928 20.5 3.33333V5.83333C20.5 6.71739 20.1488 7.56524 19.5237 8.19036C18.8986 8.81548 18.0507 9.16667 17.1667 9.16667H14.6667C13.7826 9.16667 12.9348 8.81548 12.3096 8.19036C11.6845 7.56524 11.3333 6.71739 11.3333 5.83333V3.33333ZM0.5 14.1667C0.5 13.2826 0.85119 12.4348 1.47631 11.8096C2.10143 11.1845 2.94928 10.8333 3.83333 10.8333H6.33333C7.21739 10.8333 8.06524 11.1845 8.69036 11.8096C9.31548 12.4348 9.66667 13.2826 9.66667 14.1667V16.6667C9.66667 17.5507 9.31548 18.3986 8.69036 19.0237C8.06524 19.6488 7.21739 20 6.33333 20H3.83333C2.94928 20 2.10143 19.6488 1.47631 19.0237C0.85119 18.3986 0.5 17.5507 0.5 16.6667V14.1667ZM11.3333 14.1667C11.3333 13.2826 11.6845 12.4348 12.3096 11.8096C12.9348 11.1845 13.7826 10.8333 14.6667 10.8333H17.1667C18.0507 10.8333 18.8986 11.1845 19.5237 11.8096C20.1488 12.4348 20.5 13.2826 20.5 14.1667V16.6667C20.5 17.5507 20.1488 18.3986 19.5237 19.0237C18.8986 19.6488 18.0507 20 17.1667 20H14.6667C13.7826 20 12.9348 19.6488 12.3096 19.0237C11.6845 18.3986 11.3333 17.5507 11.3333 16.6667V14.1667Z" fill="#5B5F97"/>
</svg>
