<svg width="21" height="20" viewBox="0 0 21 20" fill="none" xmlns="http://www.w3.org/2000/svg">
<g clip-path="url(#clip0_571_1068)">
<path d="M7.16699 5.83334H19.2503C19.5818 5.83334 19.8998 5.70165 20.1342 5.46723C20.3686 5.23281 20.5003 4.91486 20.5003 4.58334C20.5003 4.25182 20.3686 3.93388 20.1342 3.69946C19.8998 3.46504 19.5818 3.33334 19.2503 3.33334H7.16699C6.83547 3.33334 6.51753 3.46504 6.28311 3.69946C6.04869 3.93388 5.91699 4.25182 5.91699 4.58334C5.91699 4.91486 6.04869 5.23281 6.28311 5.46723C6.51753 5.70165 6.83547 5.83334 7.16699 5.83334Z" fill="#5B5F97"/>
<path d="M19.2503 9.16666H7.16699C6.83547 9.16666 6.51753 9.29835 6.28311 9.53277C6.04869 9.76719 5.91699 10.0851 5.91699 10.4167C5.91699 10.7482 6.04869 11.0661 6.28311 11.3005C6.51753 11.535 6.83547 11.6667 7.16699 11.6667H19.2503C19.5818 11.6667 19.8998 11.535 20.1342 11.3005C20.3686 11.0661 20.5003 10.7482 20.5003 10.4167C20.5003 10.0851 20.3686 9.76719 20.1342 9.53277C19.8998 9.29835 19.5818 9.16666 19.2503 9.16666Z" fill="#5B5F97"/>
<path d="M19.2503 15H7.16699C6.83547 15 6.51753 15.1317 6.28311 15.3661C6.04869 15.6005 5.91699 15.9185 5.91699 16.25C5.91699 16.5815 6.04869 16.8995 6.28311 17.1339C6.51753 17.3683 6.83547 17.5 7.16699 17.5H19.2503C19.5818 17.5 19.8998 17.3683 20.1342 17.1339C20.3686 16.8995 20.5003 16.5815 20.5003 16.25C20.5003 15.9185 20.3686 15.6005 20.1342 15.3661C19.8998 15.1317 19.5818 15 19.2503 15Z" fill="#5B5F97"/>
<path d="M2.58333 6.66667C3.73393 6.66667 4.66667 5.73393 4.66667 4.58333C4.66667 3.43274 3.73393 2.5 2.58333 2.5C1.43274 2.5 0.5 3.43274 0.5 4.58333C0.5 5.73393 1.43274 6.66667 2.58333 6.66667Z" fill="#5B5F97"/>
<path d="M2.58333 12.0833C3.73393 12.0833 4.66667 11.1506 4.66667 9.99999C4.66667 8.8494 3.73393 7.91666 2.58333 7.91666C1.43274 7.91666 0.5 8.8494 0.5 9.99999C0.5 11.1506 1.43274 12.0833 2.58333 12.0833Z" fill="#5B5F97"/>
<path d="M2.58333 17.9167C3.73393 17.9167 4.66667 16.9839 4.66667 15.8333C4.66667 14.6827 3.73393 13.75 2.58333 13.75C1.43274 13.75 0.5 14.6827 0.5 15.8333C0.5 16.9839 1.43274 17.9167 2.58333 17.9167Z" fill="#5B5F97"/>
</g>
<defs>
<clipPath id="clip0_571_1068">
<rect width="20" height="20" fill="white" transform="translate(0.5)"/>
</clipPath>
</defs>
</svg>
