<svg width="16" height="16" viewBox="0 0 16 16" fill="none" xmlns="http://www.w3.org/2000/svg">
<path d="M15.2984 0.7017C14.9292 0.332559 14.4285 0.125183 13.9064 0.125183C13.3844 0.125183 12.8836 0.332559 12.5144 0.7017L11.6467 1.56945L14.4307 4.35345L15.2984 3.4857C15.6676 3.1165 15.875 2.61579 15.875 2.0937C15.875 1.57161 15.6676 1.0709 15.2984 0.7017ZM13.6349 5.1492L10.8509 2.3652L1.73844 11.4777C1.27558 11.9403 0.935324 12.511 0.748441 13.1382L0.148441 15.1519C0.119473 15.2491 0.117313 15.3523 0.142188 15.4506C0.167064 15.5489 0.21805 15.6387 0.289752 15.7104C0.361455 15.7821 0.451206 15.8331 0.54951 15.858C0.647814 15.8828 0.751014 15.8807 0.848191 15.8517L2.86194 15.2517C3.48911 15.0648 4.05981 14.7246 4.52244 14.2617L13.6349 5.1492Z" fill="#5B5F97"/>
</svg>
