<svg width="37" height="37" viewBox="0 0 37 37" fill="none" xmlns="http://www.w3.org/2000/svg">
<path opacity="0.5" fill-rule="evenodd" clip-rule="evenodd" d="M18.5 0.25C8.55846 0.25 0.5 8.30846 0.5 18.25C0.5 28.1915 8.55846 36.25 18.5 36.25C28.4415 36.25 36.5 28.1915 36.5 18.25C36.5 8.30846 28.4415 0.25 18.5 0.25ZM19.8846 12.7115C19.8846 12.3443 19.7387 11.9921 19.4791 11.7325C19.2194 11.4728 18.8672 11.3269 18.5 11.3269C18.1328 11.3269 17.7806 11.4728 17.5209 11.7325C17.2613 11.9921 17.1154 12.3443 17.1154 12.7115V16.8654H12.9615C12.5943 16.8654 12.2421 17.0113 11.9825 17.2709C11.7228 17.5306 11.5769 17.8828 11.5769 18.25C11.5769 18.6172 11.7228 18.9694 11.9825 19.2291C12.2421 19.4887 12.5943 19.6346 12.9615 19.6346H17.1154V23.7885C17.1154 24.1557 17.2613 24.5079 17.5209 24.7675C17.7806 25.0272 18.1328 25.1731 18.5 25.1731C18.8672 25.1731 19.2194 25.0272 19.4791 24.7675C19.7387 24.5079 19.8846 24.1557 19.8846 23.7885V19.6346H24.0385C24.4057 19.6346 24.7579 19.4887 25.0175 19.2291C25.2772 18.9694 25.4231 18.6172 25.4231 18.25C25.4231 17.8828 25.2772 17.5306 25.0175 17.2709C24.7579 17.0113 24.4057 16.8654 24.0385 16.8654H19.8846V12.7115Z" fill="#555555"/>
</svg>
