<svg width="50" height="50" viewBox="0 0 50 50" fill="none" xmlns="http://www.w3.org/2000/svg">
<g clip-path="url(#clip0_2006_11)">
<path d="M25 9.375C14.5834 9.375 5.68754 15.8542 2.08337 25C5.68754 34.1458 14.5834 40.625 25 40.625C35.4271 40.625 44.3125 34.1458 47.9167 25C44.3125 15.8542 35.4271 9.375 25 9.375ZM25 35.4167C19.25 35.4167 14.5834 30.75 14.5834 25C14.5834 19.25 19.25 14.5833 25 14.5833C30.75 14.5833 35.4167 19.25 35.4167 25C35.4167 30.75 30.75 35.4167 25 35.4167ZM25 18.75C21.5521 18.75 18.75 21.5521 18.75 25C18.75 28.4479 21.5521 31.25 25 31.25C28.448 31.25 31.25 28.4479 31.25 25C31.25 21.5521 28.448 18.75 25 18.75Z" fill="#5B5F97"/>
<line x1="3.62713" y1="42.5339" x2="48.6271" y2="6.53392" stroke="white" stroke-width="14"/>
<line x1="2.12591" y1="43.6574" x2="47.1259" y2="7.65739" stroke="#5B5F97" stroke-width="6"/>
</g>
<defs>
<clipPath id="clip0_2006_11">
<rect width="50" height="50" fill="white"/>
</clipPath>
</defs>
</svg>
