<svg width="20" height="20" viewBox="0 0 20 20" fill="none" xmlns="http://www.w3.org/2000/svg">
<path fill-rule="evenodd" clip-rule="evenodd" d="M6.755 2.12752C6.82416 1.98912 6.93048 1.8727 7.06206 1.79131C7.19364 1.70992 7.34528 1.66677 7.5 1.66669H12.5C12.6547 1.66677 12.8064 1.70992 12.9379 1.79131C13.0695 1.8727 13.1758 1.98912 13.245 2.12752L14.6817 5.00002H16.6667C16.8877 5.00002 17.0996 5.08782 17.2559 5.2441C17.4122 5.40038 17.5 5.61234 17.5 5.83335C17.5 6.05437 17.4122 6.26633 17.2559 6.42261C17.0996 6.57889 16.8877 6.66669 16.6667 6.66669H15.8333V15.8334C15.8333 16.4964 15.5699 17.1323 15.1011 17.6011C14.6323 18.07 13.9964 18.3334 13.3333 18.3334H6.66667C6.00363 18.3334 5.36774 18.07 4.8989 17.6011C4.43006 17.1323 4.16667 16.4964 4.16667 15.8334V6.66669H3.33333C3.11232 6.66669 2.90036 6.57889 2.74408 6.42261C2.5878 6.26633 2.5 6.05437 2.5 5.83335C2.5 5.61234 2.5878 5.40038 2.74408 5.2441C2.90036 5.08782 3.11232 5.00002 3.33333 5.00002H5.31833L6.755 2.12752ZM11.985 3.33335L12.8183 5.00002H7.18167L8.015 3.33335H11.985ZM9.16667 9.16669C9.16667 8.94567 9.07887 8.73371 8.92259 8.57743C8.76631 8.42115 8.55435 8.33335 8.33333 8.33335C8.11232 8.33335 7.90036 8.42115 7.74408 8.57743C7.5878 8.73371 7.5 8.94567 7.5 9.16669V14.1667C7.5 14.3877 7.5878 14.5997 7.74408 14.7559C7.90036 14.9122 8.11232 15 8.33333 15C8.55435 15 8.76631 14.9122 8.92259 14.7559C9.07887 14.5997 9.16667 14.3877 9.16667 14.1667V9.16669ZM12.5 9.16669C12.5 8.94567 12.4122 8.73371 12.2559 8.57743C12.0996 8.42115 11.8877 8.33335 11.6667 8.33335C11.4457 8.33335 11.2337 8.42115 11.0774 8.57743C10.9211 8.73371 10.8333 8.94567 10.8333 9.16669V14.1667C10.8333 14.3877 10.9211 14.5997 11.0774 14.7559C11.2337 14.9122 11.4457 15 11.6667 15C11.8877 15 12.0996 14.9122 12.2559 14.7559C12.4122 14.5997 12.5 14.3877 12.5 14.1667V9.16669Z" fill="#E4572E"/>
</svg>
