<svg width="124" height="124" viewBox="0 0 124 124" fill="none" xmlns="http://www.w3.org/2000/svg">
<path opacity="0.2" d="M62 0C96.2417 0 124 27.7583 124 62C124 96.2417 96.2417 124 62 124C27.7583 124 0 96.2417 0 62C0 27.7583 27.7583 0 62 0ZM62 1.58691C32.7769 1.58691 9.08691 25.2769 9.08691 54.5C9.08692 83.7231 32.7769 107.413 62 107.413C91.2231 107.413 114.913 83.7231 114.913 54.5C114.913 25.2769 91.2231 1.58693 62 1.58691Z" fill="#A8A8A8"/>
<path d="M52.4645 51.4186C54.4171 53.3713 54.4171 56.5371 52.4645 58.4897L36.2039 74.7502C33.73 77.2242 29.5 75.472 29.5 71.9734C29.5 70.9319 29.9137 69.933 30.6502 69.1965L41.357 58.4897C43.3097 56.5371 43.3097 53.3712 41.357 51.4186L30.6502 40.7118C29.9137 39.9753 29.5 38.9765 29.5 37.9349C29.5 34.4363 33.73 32.6842 36.2039 35.1581L52.4645 51.4186Z" fill="#1F1F1F"/>
</svg>
