<svg width="124" height="124" viewBox="0 0 124 124" fill="none" xmlns="http://www.w3.org/2000/svg">
<path opacity="0.2" d="M62 0C27.7583 0 0 27.7583 0 62C0 96.2417 27.7583 124 62 124C96.2417 124 124 96.2417 124 62C124 27.7583 96.2417 0 62 0ZM62 1.58691C91.2231 1.58691 114.913 25.2769 114.913 54.5C114.913 83.7231 91.2231 107.413 62 107.413C32.7769 107.413 9.08691 83.7231 9.08691 54.5C9.08691 25.2769 32.7769 1.58693 62 1.58691Z" fill="#A8A8A8"/>
<path d="M71.5355 51.4186C69.5829 53.3713 69.5829 56.5371 71.5355 58.4897L87.7961 74.7502C90.27 77.2242 94.5 75.472 94.5 71.9734C94.5 70.9319 94.0863 69.933 93.3498 69.1965L82.643 58.4897C80.6903 56.5371 80.6903 53.3712 82.643 51.4186L93.3498 40.7118C94.0863 39.9753 94.5 38.9765 94.5 37.9349C94.5 34.4363 90.27 32.6842 87.7961 35.1581L71.5355 51.4186Z" fill="#43B5A0"/>
</svg>
