<svg width="420" height="475" viewBox="0 0 420 475" fill="none" xmlns="http://www.w3.org/2000/svg">
<path d="M419.842 460.089C419.842 468.325 325.868 475 209.942 475C94.0165 475 -2.302 468.165 0.0418959 460.089C1.85574 453.838 94.2596 445.443 209.942 445.178C325.868 444.914 419.842 451.853 419.842 460.089Z" fill="#F7F7F7"/>
<path d="M173.377 445.822C173.478 440.589 158.484 436.054 139.886 435.694C121.288 435.334 106.13 439.284 106.028 444.517C105.927 449.751 120.921 454.285 139.519 454.646C158.117 455.006 173.275 451.056 173.377 445.822Z" fill="#555555" stroke="#1F1300" stroke-linejoin="round"/>
<path d="M150.074 436.207C146.827 437.597 143.332 438.314 139.801 438.314C136.269 438.314 132.775 437.597 129.528 436.207V362.449H150.074V436.207Z" fill="#555555" stroke="#1F1300" stroke-linejoin="round"/>
<path d="M39.4437 182.628H157.45L189.059 376.497H108.281L82.6427 365.611L62.0973 350.331L38.0398 191.061L39.4437 182.628Z" fill="#ECB1B4" stroke="#1F1300" stroke-linejoin="round"/>
<path d="M229.095 371.582H100.552V382.822H229.095V371.582Z" fill="#FDCA3E" stroke="#1F1300" stroke-linejoin="round"/>
<path d="M66.5883 349.268L39.4413 182.628L33.1168 191.761L58.4056 355.602L100.551 382.821V371.581L66.5883 349.268Z" fill="#FDCA3E" stroke="#1F1300" stroke-linejoin="round"/>
<path d="M66.5907 349.269H181.158" stroke="#1F1300" stroke-linejoin="round"/>
<path d="M41.0871 306.942H29.415V459.384H41.0871V306.942Z" fill="#E4572E" stroke="#1F1300" stroke-linejoin="round"/>
<path d="M389.919 306.942H378.247V459.384H389.919V306.942Z" fill="#E4572E" stroke="#1F1300" stroke-linejoin="round"/>
<path d="M191.471 310.55C191.471 310.55 226.332 318.555 237.132 334.753C250.522 354.839 233.697 433.123 233.697 433.123L205.373 430.547C205.373 430.547 204.687 382.118 199.022 374.394C194.878 368.747 189.935 369.246 158.508 366.67C124.241 363.876 133.355 311.145 133.355 311.145L191.471 310.55Z" fill="#5B5F97"/>
<path d="M191.471 310.55C191.471 310.55 226.332 318.555 237.132 334.753C250.522 354.839 233.697 433.123 233.697 433.123L205.373 430.547C205.373 430.547 204.687 382.118 199.022 374.394C194.878 368.747 189.935 369.246 158.508 366.67C124.241 363.876 133.355 311.145 133.355 311.145L191.471 310.55Z" stroke="#1F1300" stroke-linecap="round" stroke-linejoin="round"/>
<path d="M157.477 317.761C157.477 317.761 179.108 323.426 190.953 338.874C202.797 354.322 186.318 432.096 186.318 432.096L156.45 432.61C156.45 432.61 152.842 384.713 148.726 379.052C144.61 373.39 144.092 376.475 111.134 366.689C78.1754 356.902 85.9674 311.15 85.9674 311.15L157.477 317.761Z" fill="#5B5F97"/>
<path d="M157.477 317.761C157.477 317.761 179.108 323.426 190.953 338.874C202.797 354.322 186.318 432.096 186.318 432.096L156.45 432.61C156.45 432.61 152.842 384.713 148.726 379.052C144.61 373.39 144.092 376.475 111.134 366.689C78.1754 356.902 85.9674 311.15 85.9674 311.15L157.477 317.761Z" stroke="#1F1300" stroke-linecap="round" stroke-linejoin="round"/>
<path d="M169.657 206.083C156.886 211.989 165.836 227.986 167.386 238.882C171.148 265.415 178.626 302.576 212.747 305.597C232.37 307.333 251.212 303.326 261.935 300.327C264.46 299.623 266.642 298.022 268.07 295.823C269.498 293.625 270.074 290.98 269.69 288.387C269.296 285.737 267.926 283.33 265.849 281.637C263.772 279.944 261.138 279.088 258.463 279.236C246.314 279.904 226.205 280.113 218.608 274.984C206.514 266.833 202.007 259.082 194.119 237.373C184.142 209.922 177.354 207.273 169.657 206.083Z" fill="white"/>
<mask id="mask0_2055_908" style="mask-type:luminance" maskUnits="userSpaceOnUse" x="162" y="206" width="108" height="101">
<path d="M169.657 206.083C156.886 211.989 165.836 227.986 167.386 238.882C171.148 265.415 178.626 302.576 212.747 305.597C232.37 307.333 251.212 303.326 261.935 300.327C264.46 299.623 266.642 298.022 268.07 295.823C269.498 293.625 270.074 290.98 269.69 288.387C269.296 285.737 267.926 283.33 265.849 281.637C263.772 279.944 261.139 279.088 258.463 279.236C246.314 279.904 226.205 280.113 218.608 274.984C206.514 266.833 202.007 259.082 194.119 237.373C184.142 209.922 177.354 207.273 169.657 206.083Z" fill="white"/>
</mask>
<g mask="url(#mask0_2055_908)">
<path d="M252.044 289.804C251.949 293.257 252.144 296.788 253.362 300.027C254.579 303.267 256.933 306.197 260.177 307.456C260.772 307.723 261.426 307.836 262.076 307.783C262.656 307.678 263.208 307.455 263.698 307.129C272.044 302.222 276.329 291.326 273.566 282.049C273.138 280.488 272.429 279.019 271.472 277.714C268.428 273.793 261.735 273.171 257.573 275.702C252.948 278.528 252.176 284.807 252.044 289.804Z" fill="#1F1300"/>
<path d="M248.569 277.405C246.494 281.716 245.487 286.463 245.634 291.245C245.78 296.026 247.075 300.703 249.41 304.879" stroke="#1F1300" stroke-linecap="round" stroke-linejoin="round"/>
<path d="M233.767 279.513C230.575 283.963 229.164 289.446 229.809 294.884C230.125 297.018 230.6 299.126 231.232 301.19L232.331 305.147" stroke="#1F1300" stroke-linecap="round" stroke-linejoin="round"/>
<path d="M202.871 294.478C210.141 300.871 219.091 305.033 228.192 308.322C225.556 309.799 222.317 309.463 219.318 309.086C211.867 308.145 204.366 307.191 197.219 304.883C190.072 302.575 183.225 298.804 178.396 293.07C173.929 287.754 171.44 281.098 169.136 274.551C166.737 267.736 164.434 260.848 163.657 253.683C163.289 250.28 162.366 237.354 166.283 235.468C169.463 233.933 174.007 245.464 175.283 248.017C180.404 258.426 184.525 269.371 190.549 279.308C193.939 284.887 197.941 290.14 202.871 294.478Z" fill="#E8EAF5"/>
</g>
<path d="M169.657 206.083C156.886 211.989 165.836 227.986 167.386 238.882C171.148 265.415 178.626 302.576 212.747 305.597C232.37 307.333 251.212 303.326 261.935 300.327C264.46 299.623 266.642 298.022 268.07 295.823C269.498 293.625 270.074 290.98 269.69 288.387C269.296 285.737 267.926 283.33 265.849 281.637C263.772 279.944 261.138 279.088 258.463 279.236C246.314 279.904 226.205 280.113 218.608 274.984C206.514 266.833 202.007 259.082 194.119 237.373C184.142 209.922 177.354 207.273 169.657 206.083Z" stroke="#1F1300" stroke-linecap="round" stroke-linejoin="round"/>
<path d="M178.676 243.838C183.869 265.673 188.808 287.337 188.921 305.837C179.13 312.848 101.969 314.997 89.6335 312.175C86.1214 289.645 83.6134 260.935 86.2168 231.148C86.2168 231.148 109.965 209.671 110.951 209.626L165.518 207.195" fill="white"/>
<mask id="mask1_2055_908" style="mask-type:luminance" maskUnits="userSpaceOnUse" x="85" y="207" width="104" height="107">
<path d="M178.675 243.838C183.868 265.673 188.807 287.337 188.92 305.837C179.129 312.848 101.968 314.997 89.6326 312.175C86.1205 289.645 83.6126 260.935 86.216 231.148C86.216 231.148 109.965 209.671 110.95 209.626L165.517 207.195" fill="white"/>
</mask>
<g mask="url(#mask1_2055_908)">
<path d="M90.4977 309.423C88.1987 309.137 85.8906 308.801 83.578 308.428C79.1981 229.004 109.771 241.608 117.308 223.17C120.521 241.667 135.505 289.091 151.298 303.167C148.572 303.694 112.765 309.905 110.053 310.109C103.534 309.955 97.016 309.726 90.4977 309.423Z" fill="#E8EAF5"/>
<path d="M174.6 239.136C174.6 239.136 162.874 241.017 157.667 234.847C152.46 228.677 153.537 229.167 153.537 229.167L147.63 228.899C147.63 228.899 144.45 236.001 134.432 239.054C128.317 240.856 121.783 240.634 115.804 238.422L112.814 212.593L177.426 215.546L174.6 239.136Z" fill="#E8EAF5"/>
</g>
<path d="M178.676 243.838C183.869 265.673 188.808 287.337 188.921 305.837C179.13 312.848 101.969 314.997 89.6335 312.175C86.1214 289.645 83.6134 260.935 86.2168 231.148C86.2168 231.148 109.965 209.671 110.951 209.626L165.518 207.195" stroke="#1F1300" stroke-linecap="round" stroke-linejoin="round"/>
<path d="M192.149 305.415C192.08 277.514 194.602 244.12 180.867 210.557L167.373 202.979C178.505 225.696 178.732 275.806 180.063 312.099" fill="#5B5F97"/>
<path d="M192.149 305.415C192.08 277.514 194.602 244.12 180.867 210.557L167.373 202.979C178.505 225.696 178.732 275.806 180.063 312.099" stroke="#1F1300" stroke-linecap="round" stroke-linejoin="round"/>
<path d="M153.896 205.087L158.439 210.812L151.283 222.793L143.178 215.774C143.178 215.774 134.009 224.406 133.023 224.456C132.037 224.506 118.289 211.607 118.289 211.607L123.659 206.428L153.896 205.087Z" fill="#E8EAF5" stroke="#1F1300" stroke-linejoin="round"/>
<path d="M150.549 253.315C153.274 253.315 155.483 251.106 155.483 248.381C155.483 245.656 153.274 243.447 150.549 243.447C147.824 243.447 145.615 245.656 145.615 248.381C145.615 251.106 147.824 253.315 150.549 253.315Z" fill="#1F1300"/>
<path d="M152.193 282.884C154.919 282.884 157.128 280.675 157.128 277.95C157.128 275.225 154.919 273.016 152.193 273.016C149.468 273.016 147.259 275.225 147.259 277.95C147.259 280.675 149.468 282.884 152.193 282.884Z" fill="#1F1300"/>
<path d="M109.684 315.569C111.27 281.707 104.732 209.734 96.1947 207.544C97.9485 203.778 103.228 205.727 108.039 204.973C121.365 229.212 124.132 279.144 124.073 315.923" fill="#5B5F97"/>
<path d="M109.684 315.569C111.27 281.707 104.732 209.734 96.1947 207.544C97.9485 203.778 103.228 205.727 108.039 204.973C121.365 229.212 124.132 279.144 124.073 315.923" stroke="#1F1300" stroke-linecap="round" stroke-linejoin="round"/>
<path d="M192.321 296.247C167.373 303.062 128.926 305.547 86.4224 297.773L86.3724 311.176C123.092 322.28 166.955 318.087 192.512 310.145L192.321 296.247Z" fill="#5B5F97"/>
<mask id="mask2_2055_908" style="mask-type:luminance" maskUnits="userSpaceOnUse" x="86" y="296" width="107" height="22">
<path d="M192.319 296.247C167.371 303.062 128.925 305.547 86.4207 297.774L86.3707 311.177C123.091 322.281 166.953 318.087 192.51 310.145L192.319 296.247Z" fill="white"/>
</mask>
<g mask="url(#mask2_2055_908)">
<g style="mix-blend-mode:multiply">
<path d="M107.303 299.695C106.453 306.611 105.968 313.568 105.85 320.536C98.1802 318.514 91.0152 317.083 83.3459 315.061C82.884 314.976 82.4483 314.785 82.0737 314.502C81.5376 314.016 81.4331 313.225 81.3649 312.503C80.8243 306.824 80.5653 300.649 83.7502 295.915C84.1058 295.308 84.6172 294.808 85.2314 294.465C86.0765 294.066 87.0715 294.206 87.9938 294.365C94.6727 295.515 100.847 297.609 107.303 299.695Z" fill="#E8EAF5"/>
</g>
</g>
<path d="M192.321 296.247C167.373 303.062 128.926 305.547 86.4224 297.773L86.3724 311.176C123.092 322.28 166.955 318.087 192.512 310.145L192.321 296.247Z" stroke="#1F1300" stroke-linecap="round" stroke-linejoin="round"/>
<path d="M100.321 108.412C90.9706 86.2079 70.5887 77.2028 35.3498 78.0161C33.2789 78.0504 31.3034 78.8923 29.8444 80.3624C28.3853 81.8324 27.5583 83.8143 27.5397 85.8853C27.3761 116.59 43.896 136.318 79.5211 140.057L100.321 108.412Z" fill="white"/>
<mask id="mask3_2055_908" style="mask-type:luminance" maskUnits="userSpaceOnUse" x="27" y="77" width="74" height="64">
<path d="M100.322 108.412C90.9712 86.2079 70.5893 77.2028 35.3504 78.0161C33.2795 78.0504 31.304 78.8923 29.845 80.3624C28.386 81.8324 27.5589 83.8143 27.5403 85.8853C27.3767 116.59 43.8966 136.318 79.5217 140.057L100.322 108.412Z" fill="white"/>
</mask>
<g mask="url(#mask3_2055_908)">
<path d="M75.0318 134.583C57.5714 132.311 41.4376 121.734 39.902 100.353C39.7979 98.8971 40.2664 97.4584 41.2076 96.3433C42.1488 95.2281 43.4883 94.5245 44.9406 94.3826C61.406 92.8423 77.7715 98.6943 85.5817 107.195L75.0318 134.583Z" fill="#43B5A0"/>
<g style="mix-blend-mode:multiply">
<path d="M91.6506 88.6714C80.9736 91.0658 71.9412 98.4852 65.5804 107.381C59.2196 116.277 55.2214 126.627 51.6366 136.964C53.2086 137.195 53.9083 138.481 55.3304 139.235C59.6058 141.53 64.3537 142.77 69.0561 143.988C74.9626 145.519 81.4734 143.052 86.0531 138.99C90.6329 134.928 93.8088 129.567 96.8756 124.269C99.8243 119.176 102.782 113.951 103.936 108.176C105.09 102.402 104.136 95.9091 100.07 91.6383C98.0796 89.5619 94.513 88.9213 91.6506 88.6714Z" fill="#E8EAF5"/>
</g>
</g>
<path d="M100.321 108.412C90.9706 86.2079 70.5887 77.2028 35.3498 78.0161C33.2789 78.0504 31.3034 78.8923 29.8444 80.3624C28.3853 81.8324 27.5583 83.8143 27.5397 85.8853C27.3761 116.59 43.896 136.318 79.5211 140.057L100.321 108.412Z" stroke="#1F1300" stroke-linecap="round" stroke-linejoin="round"/>
<path d="M174.914 105.368C192.039 86.6033 213.079 79.1521 237.714 81.9554C239.233 82.1269 240.622 82.8916 241.58 84.0831C242.537 85.2745 242.985 86.7961 242.825 88.3162C239.378 121.938 222.823 139.277 193.161 140.334L174.914 105.368Z" fill="white"/>
<mask id="mask4_2055_908" style="mask-type:luminance" maskUnits="userSpaceOnUse" x="174" y="81" width="69" height="60">
<path d="M174.913 105.368C192.037 86.6038 213.078 79.1526 237.712 81.9559C239.231 82.1273 240.62 82.8921 241.578 84.0836C242.535 85.275 242.983 86.7966 242.823 88.3167C239.377 121.938 222.822 139.277 193.159 140.334L174.913 105.368Z" fill="white"/>
</mask>
<g mask="url(#mask4_2055_908)">
<path d="M193.06 136.595C213.933 135.659 225.269 123.683 229.103 103.033C229.239 102.301 229.221 101.549 229.051 100.824C228.881 100.1 228.561 99.4183 228.114 98.8236C227.666 98.2289 227.099 97.7338 226.45 97.3697C225.801 97.0055 225.083 96.7804 224.342 96.7085C210.862 95.4772 196.45 100.888 181.302 111.497L193.06 136.595Z" fill="#43B5A0"/>
<g style="mix-blend-mode:multiply">
<path d="M184.946 89.9253C187.774 91.8561 190.435 94.0203 192.902 96.3951C205.504 108.264 215.075 122.983 220.812 139.317C219.749 139.085 218.935 138.681 217.922 139.067C209.799 142.142 201.204 143.785 192.52 143.924C185.705 131.448 178.485 118.599 171.693 106.127C171.797 105.218 172.147 104.805 172.679 104.096L181.252 93.0421C182.248 91.7526 183.507 90.6901 184.946 89.9253Z" fill="#E8EAF5"/>
</g>
</g>
<path d="M174.914 105.368C192.039 86.6033 213.079 79.1521 237.714 81.9554C239.233 82.1269 240.622 82.8916 241.58 84.0831C242.537 85.2745 242.985 86.7961 242.825 88.3162C239.378 121.938 222.823 139.277 193.161 140.334L174.914 105.368Z" stroke="#1F1300" stroke-linecap="round" stroke-linejoin="round"/>
<path d="M178.176 90.8511C202.388 69.8559 210.026 35.4939 184.61 4.26681C184.271 3.85239 184.11 3.32121 184.161 2.78867C184.212 2.25612 184.471 1.76522 184.882 1.42262C185.297 1.07722 185.831 0.909264 186.369 0.955198C186.906 1.00113 187.404 1.25725 187.754 1.66796C219.054 38.179 211.189 76.1122 190.748 100.878L178.176 90.8511Z" fill="#1F1300"/>
<path d="M192.956 75.6896C192.352 62.4773 188.444 47.4794 171.688 38.4016C171.481 38.2905 171.298 38.139 171.15 37.9561C171.002 37.7732 170.892 37.5626 170.826 37.3366C170.76 37.1106 170.741 36.8738 170.768 36.6401C170.795 36.4064 170.868 36.1804 170.984 35.9754C171.209 35.5824 171.576 35.2908 172.01 35.1606C172.443 35.0304 172.911 35.0716 173.315 35.2758C187.086 42.1409 196.241 51.4822 199.776 63.8403L192.956 75.6896Z" fill="#1F1300"/>
<path d="M101.301 90.1658C77.9981 68.1664 71.8145 33.5182 98.5208 3.38611C98.8766 2.98664 99.0605 2.4629 99.0324 1.92865C99.0044 1.3944 98.7666 0.892811 98.3708 0.532836C97.9714 0.169702 97.4447 -0.0211126 96.9054 0.0018575C96.366 0.0248276 95.8575 0.259726 95.4903 0.655509C62.6822 35.8172 68.9385 74.0729 88.3162 99.6706L101.301 90.1658Z" fill="#1F1300"/>
<path d="M87.1761 74.3951C88.3347 61.2191 92.8736 46.403 109.998 38.0476C110.21 37.9452 110.399 37.8014 110.554 37.6247C110.709 37.4481 110.828 37.2421 110.902 37.019C110.977 36.7958 111.006 36.56 110.988 36.3255C110.97 36.0909 110.905 35.8623 110.797 35.6532C110.59 35.2507 110.235 34.9436 109.807 34.7956C109.379 34.6475 108.91 34.6699 108.498 34.8581C94.4547 41.1371 84.9135 50.0831 80.8607 62.2823L87.1761 74.3951Z" fill="#1F1300"/>
<path d="M204.429 153.732C204.429 153.732 208.322 109.511 184.042 90.6056C158.363 70.569 109.625 73.2497 86.2039 92.8773C62.7824 112.505 56.6715 172.842 74.7817 189.471C90.1748 203.614 120.43 210.734 160.684 207.258C198.141 204.023 207.714 193.015 209.754 184.468C212.134 174.568 204.429 153.732 204.429 153.732Z" fill="white"/>
<mask id="mask5_2055_908" style="mask-type:luminance" maskUnits="userSpaceOnUse" x="64" y="76" width="147" height="133">
<path d="M204.43 153.732C204.43 153.732 208.323 109.511 184.043 90.6056C158.364 70.569 109.626 73.2497 86.2047 92.8773C62.7833 112.505 56.6724 172.842 74.7825 189.471C90.1757 203.614 120.43 210.734 160.685 207.258C198.141 204.023 207.714 193.015 209.754 184.468C212.135 174.568 204.43 153.732 204.43 153.732Z" fill="white"/>
</mask>
<g mask="url(#mask5_2055_908)">
<path d="M208.912 196.744C174.127 209.443 139.22 205.922 105.462 199.316C95.9212 197.449 76.3481 186.163 70.5189 161.383C68.4016 152.387 69.1104 127.252 69.1922 118.016C64.258 132.555 53.64 163.986 53.0993 179.352C52.8949 185.281 53.5264 191.715 57.4701 196.163C61.2003 200.356 67.0386 201.828 72.518 203.046C108.366 210.956 145.131 216.917 181.647 213.273C187.267 212.71 192.969 211.91 198.067 209.466C203.165 207.022 207.499 202.196 208.912 196.744Z" fill="#E8EAF5"/>
</g>
<path d="M204.429 153.732C204.429 153.732 208.322 109.511 184.042 90.6056C158.363 70.569 109.625 73.2497 86.2039 92.8773C62.7824 112.505 56.6715 172.842 74.7817 189.471C90.1748 203.614 120.43 210.734 160.684 207.258C198.141 204.023 207.714 193.015 209.754 184.468C212.134 174.568 204.429 153.732 204.429 153.732Z" stroke="#1F1300" stroke-linecap="round" stroke-linejoin="round"/>
<path d="M156.297 181.126C163.067 180.861 168.443 177.789 168.306 174.264C168.168 170.738 162.568 168.095 155.798 168.36C149.028 168.625 143.652 171.697 143.79 175.223C143.928 178.748 149.527 181.391 156.297 181.126Z" fill="#1F1300"/>
<path d="M169.74 181.349C171.362 183.589 170.008 189.223 164.437 189.74C160.071 190.149 157.872 187.923 156.832 184.924C155.823 182.021 156.518 178.895 156.473 175.729C156.541 177.251 156.1 183.793 155.782 185.315C155.464 186.837 152.602 190.845 147.463 190.663C142.965 190.499 140.334 184.929 142.143 182.171" stroke="#1F1300" stroke-linecap="round" stroke-linejoin="round"/>
<path d="M189.394 183.913C205.113 183.57 217.572 170.279 217.222 154.226C216.871 138.173 203.844 125.437 188.125 125.78C172.406 126.123 159.947 139.415 160.297 155.468C160.647 171.521 173.674 184.256 189.394 183.913Z" stroke="#43B5A0" stroke-miterlimit="10"/>
<path d="M119.857 187.18C137.481 186.795 151.47 172.836 151.102 156C150.735 139.164 136.15 125.828 118.527 126.212C100.904 126.597 86.9147 140.557 87.2821 157.392C87.6495 174.228 102.234 187.564 119.857 187.18Z" stroke="#43B5A0" stroke-miterlimit="10"/>
<path d="M161.574 163.341C158.484 160.615 153.291 160.788 150.37 163.682" stroke="#43B5A0" stroke-linecap="round" stroke-linejoin="round"/>
<path d="M181.619 164.849C184.116 162.331 184.062 158.23 181.499 155.69C178.937 153.15 174.836 153.132 172.34 155.65C169.843 158.168 169.897 162.268 172.46 164.809C175.022 167.349 179.123 167.367 181.619 164.849Z" fill="#1F1300"/>
<path d="M134.773 164.844C137.269 162.326 137.216 158.225 134.653 155.685C132.09 153.145 127.989 153.127 125.493 155.645C122.997 158.163 123.051 162.263 125.614 164.804C128.176 167.344 132.277 167.362 134.773 164.844Z" fill="#1F1300"/>
<path d="M149.258 210.208C149.258 210.208 140.684 196.409 123.288 192.734C105.891 189.058 108.003 235.973 122.165 235.287C138.231 234.506 149.181 221.203 149.426 220.539C149.671 219.876 149.258 210.208 149.258 210.208Z" fill="#E4572E"/>
<mask id="mask6_2055_908" style="mask-type:luminance" maskUnits="userSpaceOnUse" x="110" y="192" width="40" height="44">
<path d="M149.259 210.208C149.259 210.208 140.685 196.409 123.288 192.734C105.891 189.058 108.004 235.973 122.166 235.287C138.232 234.506 149.181 221.203 149.427 220.539C149.672 219.876 149.259 210.208 149.259 210.208Z" fill="white"/>
</mask>
<g mask="url(#mask6_2055_908)">
<path d="M142.825 207.818C144.825 207.818 146.446 206.197 146.446 204.197C146.446 202.197 144.825 200.576 142.825 200.576C140.825 200.576 139.204 202.197 139.204 204.197C139.204 206.197 140.825 207.818 142.825 207.818Z" fill="white"/>
<path d="M141.881 227.868C143.88 227.868 145.502 226.247 145.502 224.247C145.502 222.247 143.88 220.625 141.881 220.625C139.881 220.625 138.259 222.247 138.259 224.247C138.259 226.247 139.881 227.868 141.881 227.868Z" fill="white"/>
<path d="M120.803 206.783C122.802 206.783 124.424 205.162 124.424 203.162C124.424 201.162 122.802 199.541 120.803 199.541C118.803 199.541 117.181 201.162 117.181 203.162C117.181 205.162 118.803 206.783 120.803 206.783Z" fill="white"/>
<path d="M119.862 226.833C121.862 226.833 123.483 225.211 123.483 223.211C123.483 221.212 121.862 219.59 119.862 219.59C117.862 219.59 116.241 221.212 116.241 223.211C116.241 225.211 117.862 226.833 119.862 226.833Z" fill="white"/>
<path d="M132.284 218.359C134.284 218.359 135.905 216.738 135.905 214.738C135.905 212.738 134.284 211.117 132.284 211.117C130.284 211.117 128.663 212.738 128.663 214.738C128.663 216.738 130.284 218.359 132.284 218.359Z" fill="white"/>
<path d="M133.265 197.487C135.265 197.487 136.886 195.866 136.886 193.866C136.886 191.866 135.265 190.245 133.265 190.245C131.265 190.245 129.644 191.866 129.644 193.866C129.644 195.866 131.265 197.487 133.265 197.487Z" fill="white"/>
<path d="M131.353 238.078C133.353 238.078 134.974 236.457 134.974 234.457C134.974 232.457 133.353 230.836 131.353 230.836C129.353 230.836 127.732 232.457 127.732 234.457C127.732 236.457 129.353 238.078 131.353 238.078Z" fill="white"/>
</g>
<path d="M149.258 210.208C149.258 210.208 140.684 196.409 123.288 192.734C105.891 189.058 108.003 235.973 122.165 235.287C138.231 234.506 149.181 221.203 149.426 220.539C149.671 219.876 149.258 210.208 149.258 210.208Z" stroke="#1F1300" stroke-linecap="round" stroke-linejoin="round"/>
<path d="M157.368 209.922C157.368 209.922 165.065 196.891 178.668 194.674C192.271 192.457 186.76 239.013 175.996 237.155C163.797 235.051 156.528 220.871 156.378 220.208C156.228 219.545 157.368 209.922 157.368 209.922Z" fill="#E4572E"/>
<mask id="mask7_2055_908" style="mask-type:luminance" maskUnits="userSpaceOnUse" x="156" y="194" width="31" height="44">
<path d="M157.368 209.922C157.368 209.922 165.065 196.891 178.668 194.674C192.271 192.457 186.759 239.013 175.996 237.155C163.797 235.051 156.527 220.871 156.377 220.208C156.228 219.545 157.368 209.922 157.368 209.922Z" fill="white"/>
</mask>
<g mask="url(#mask7_2055_908)">
<path d="M176.223 208.567C178.223 208.567 179.844 206.946 179.844 204.946C179.844 202.946 178.223 201.325 176.223 201.325C174.223 201.325 172.602 202.946 172.602 204.946C172.602 206.946 174.223 208.567 176.223 208.567Z" fill="white"/>
<path d="M175.229 229.768C177.229 229.768 178.851 228.146 178.851 226.147C178.851 224.147 177.229 222.525 175.229 222.525C173.23 222.525 171.608 224.147 171.608 226.147C171.608 228.146 173.23 229.768 175.229 229.768Z" fill="white"/>
<path d="M185.71 220.544C187.71 220.544 189.331 218.923 189.331 216.923C189.331 214.923 187.71 213.302 185.71 213.302C183.71 213.302 182.089 214.923 182.089 216.923C182.089 218.923 183.71 220.544 185.71 220.544Z" fill="white"/>
<path d="M165.001 219.566C167.001 219.566 168.623 217.945 168.623 215.945C168.623 213.945 167.001 212.324 165.001 212.324C163.002 212.324 161.38 213.945 161.38 215.945C161.38 217.945 163.002 219.566 165.001 219.566Z" fill="white"/>
</g>
<path d="M157.368 209.922C157.368 209.922 165.065 196.891 178.668 194.674C192.271 192.457 186.76 239.013 175.996 237.155C163.797 235.051 156.528 220.871 156.378 220.208C156.228 219.545 157.368 209.922 157.368 209.922Z" stroke="#1F1300" stroke-linecap="round" stroke-linejoin="round"/>
<path d="M149.264 222.851L156.213 223.177C157.894 223.256 159.322 221.957 159.401 220.275L159.81 211.575C159.889 209.893 158.589 208.466 156.907 208.386L149.959 208.06C148.277 207.981 146.85 209.28 146.771 210.962L146.362 219.662C146.283 221.344 147.582 222.772 149.264 222.851Z" fill="#E4572E" stroke="#1F1300" stroke-linecap="round" stroke-linejoin="round"/>
<g style="mix-blend-mode:multiply">
<path d="M110.911 208.023C110.911 208.023 117.726 226.569 128.085 225.742C138.444 224.915 146.532 216.065 146.532 216.065C146.532 216.065 150.421 217.346 153.719 217.282C155.728 217.245 157.731 217.046 159.708 216.687C163.466 220.413 167.574 223.768 171.975 226.706C178.581 230.972 184.415 228.391 184.415 228.391C184.415 228.391 181.771 237.932 177.177 237.478C172.584 237.024 164.937 231.631 163.056 229.568C161.175 227.505 157.877 222.953 157.877 222.953L147.799 222.498C147.799 222.498 139.935 230.913 132.143 233.18C124.351 235.447 121.647 236.86 118.276 233.848C114.905 230.836 112.074 225.67 111.275 219.241C110.789 215.522 110.667 211.765 110.911 208.023Z" fill="#E8EAF5"/>
</g>
<path d="M96.7082 207.032C86.749 208.395 79.0115 223.116 75.763 233.125C67.4939 258.618 58.198 294.661 91.9013 300.763C111.284 304.275 137.204 303.344 148.149 301.335C150.733 300.87 153.057 299.476 154.684 297.416C156.311 295.355 157.128 292.771 156.981 290.149C156.83 287.474 155.686 284.952 153.772 283.077C151.858 281.202 149.313 280.109 146.636 280.013C134.473 279.559 111.42 278.382 104.282 272.612C96.7764 266.537 105.114 241.298 105.114 241.298C102.547 223.856 100.829 213.897 96.7082 207.032Z" fill="white"/>
<mask id="mask8_2055_908" style="mask-type:luminance" maskUnits="userSpaceOnUse" x="67" y="207" width="90" height="97">
<path d="M96.7082 207.032C86.749 208.395 79.0115 223.116 75.763 233.125C67.4939 258.618 58.198 294.661 91.9013 300.763C111.284 304.275 137.204 303.344 148.149 301.335C150.733 300.87 153.057 299.476 154.684 297.416C156.311 295.355 157.128 292.771 156.981 290.149C156.83 287.474 155.686 284.952 153.772 283.077C151.858 281.202 149.313 280.109 146.636 280.013C134.473 279.559 111.42 278.382 104.282 272.612C96.7764 266.537 105.114 241.298 105.114 241.298C102.547 223.856 100.829 213.897 96.7082 207.032Z" fill="white"/>
</mask>
<g mask="url(#mask8_2055_908)">
<path d="M91.7323 294.029L148.689 297.754C148.775 299.985 146.871 301.766 144.977 302.947C139.111 306.609 132.046 307.713 125.181 308.563C112.223 310.158 98.8292 311.071 86.312 307.432C82.4001 306.296 65.1032 298.84 69.0151 292.484C70.46 290.144 75.6168 291.521 77.6113 291.934C82.2623 292.968 86.9814 293.668 91.7323 294.029Z" fill="#E8EAF5"/>
<path d="M139.262 289.958C138.853 293.389 138.726 296.923 139.644 300.258C140.561 303.593 142.642 306.728 145.736 308.273C146.306 308.592 146.946 308.763 147.599 308.773C148.185 308.718 148.753 308.546 149.271 308.268C158.031 304.138 163.288 299.513 161.375 290.022C161.094 288.428 160.519 286.9 159.68 285.515C157.009 281.335 150.403 274.265 146.023 276.428C141.193 278.786 139.853 284.992 139.262 289.958Z" fill="#1F1300"/>
<path d="M136.931 277.296C134.475 281.4 133.043 286.034 132.755 290.808C132.467 295.582 133.332 300.355 135.277 304.725" stroke="#1F1300" stroke-linecap="round" stroke-linejoin="round"/>
<path d="M121.997 278.073C118.413 282.212 116.509 287.543 116.659 293.016C116.779 295.171 117.061 297.314 117.504 299.427L118.24 303.466" stroke="#1F1300" stroke-linecap="round" stroke-linejoin="round"/>
</g>
<path d="M96.7082 207.032C86.749 208.395 79.0115 223.116 75.763 233.125C67.4939 258.618 58.198 294.661 91.9013 300.763C111.284 304.275 137.204 303.344 148.149 301.335C150.733 300.87 153.057 299.476 154.684 297.416C156.311 295.355 157.128 292.771 156.981 290.149C156.83 287.474 155.686 284.952 153.772 283.077C151.858 281.202 149.313 280.109 146.636 280.013C134.473 279.559 111.42 278.382 104.282 272.612C96.7764 266.537 105.114 241.298 105.114 241.298C102.547 223.856 100.829 213.897 96.7082 207.032Z" stroke="#1F1300" stroke-linecap="round" stroke-linejoin="round"/>
<path d="M186.733 432.328C186.624 433.332 186.41 435.24 186.16 437.444C185.78 440.894 184.144 444.085 181.563 446.407C178.983 448.73 175.638 450.022 172.166 450.038C168.481 450.055 164.922 448.695 162.188 446.223C159.454 443.752 157.741 440.349 157.387 436.68L156.969 432.223L186.733 432.328Z" fill="#1F1300"/>
<path d="M234.293 433.027C234.061 434.009 233.616 435.881 233.102 438.025C232.303 441.408 230.287 444.379 227.438 446.371C224.589 448.363 221.107 449.236 217.655 448.825C213.995 448.391 210.63 446.606 208.219 443.82C205.807 441.034 204.524 437.447 204.62 433.764L204.742 429.284L234.293 433.027Z" fill="#1F1300"/>
<path d="M98.426 314.839C98.0807 315.87 96.3633 345.398 119.026 352.263C141.689 359.128 155.074 360.16 157.822 377.67C160.571 395.18 161.598 432.264 161.598 432.264" stroke="#1F1300" stroke-linecap="round" stroke-linejoin="round"/>
<path d="M198.682 362.908C206.056 368.115 209.622 377.633 210.695 386.598C211.899 396.661 211.235 424.036 211.04 430.546" stroke="#1F1300" stroke-linecap="round" stroke-linejoin="round"/>
<path d="M101.143 332.239C105.821 332.802 110.545 331.667 114.456 329.039C118.368 326.412 121.205 322.467 122.452 317.923" stroke="#1F1300" stroke-linecap="round" stroke-linejoin="round"/>
<path d="M404.681 301.276H4.69458V319.6H404.681V301.276Z" fill="#E4572E" stroke="#1F1300" stroke-linejoin="round"/>
<path d="M233.857 293.557H191.603C190.794 293.557 190.019 293.878 189.447 294.45C188.875 295.021 188.554 295.797 188.554 296.605C188.554 297.408 188.87 298.178 189.434 298.75C189.997 299.321 190.764 299.648 191.566 299.658L234.016 300.176L233.857 293.557Z" fill="#E8EAF5" stroke="#1F1300" stroke-linejoin="round"/>
<path d="M381.627 193.565H248.959C247.784 193.568 246.651 194.003 245.776 194.787C244.901 195.572 244.346 196.65 244.215 197.818L233.856 293.557H373.026L385.748 198.245C385.824 197.66 385.775 197.065 385.602 196.5C385.43 195.935 385.139 195.414 384.749 194.971C384.359 194.528 383.878 194.173 383.34 193.931C382.801 193.688 382.217 193.564 381.627 193.565Z" fill="#E8EAF5" stroke="#1F1300" stroke-linejoin="round"/>
<path d="M235.243 300.176H371.265C372.954 300.176 374.323 298.808 374.323 297.121C374.323 295.433 372.954 294.065 371.265 294.065H235.243C233.555 294.065 232.186 295.433 232.186 297.121C232.186 298.808 233.555 300.176 235.243 300.176Z" fill="#E8EAF5" stroke="#1F1300" stroke-linejoin="round"/>
<path d="M235.42 294.056C236.719 293.661 238.182 294.656 238.518 295.974C238.854 297.291 238.627 299.022 237.56 299.867C237.073 300.254 235.629 300.217 234.629 300.158" stroke="#1F1300" stroke-linejoin="round"/>
<path d="M238.023 293.512L249.69 193.879" stroke="#1F1300" stroke-linejoin="round"/>
<path d="M332.248 231.775C332.138 231.648 331.993 231.555 331.832 231.508C331.67 231.461 331.498 231.461 331.337 231.509C331.175 231.557 331.031 231.65 330.921 231.778C330.811 231.906 330.74 232.063 330.717 232.229C330.463 233.769 329.792 235.21 328.777 236.396C329.238 234.989 329.238 233.472 328.777 232.066C328.723 231.917 328.629 231.786 328.506 231.686C328.383 231.586 328.236 231.521 328.079 231.498C327.923 231.474 327.762 231.494 327.616 231.554C327.469 231.614 327.342 231.712 327.246 231.839C327.167 231.953 327.115 232.085 327.094 232.222C327.074 232.36 327.085 232.501 327.128 232.634C327.297 233.155 327.383 233.699 327.382 234.247C327.386 235.093 327.18 235.926 326.783 236.673C326.547 237.138 326.24 237.564 325.874 237.936C325.225 238.592 324.412 239.062 323.521 239.299C323.354 239.348 323.184 239.386 323.012 239.413C322.853 239.413 322.698 239.454 322.557 239.463H322.444C322.268 239.472 322.092 239.472 321.917 239.463C320.621 239.397 319.397 238.851 318.482 237.931L318.377 237.818C318.057 237.478 317.785 237.096 317.569 236.682C317.243 236.066 317.046 235.391 316.987 234.697C316.929 234.003 317.01 233.305 317.228 232.643C317.269 232.51 317.279 232.37 317.258 232.233C317.237 232.096 317.185 231.966 317.105 231.852C317.023 231.74 316.915 231.649 316.79 231.587C316.665 231.525 316.527 231.495 316.387 231.498C316.208 231.497 316.033 231.553 315.887 231.657C315.741 231.762 315.631 231.909 315.574 232.08C315.341 232.783 315.223 233.519 315.224 234.26C315.224 234.603 315.25 234.944 315.301 235.283C315.355 235.664 315.443 236.04 315.565 236.405C314.882 235.599 314.353 234.675 314.002 233.679C313.832 233.205 313.706 232.717 313.625 232.22C313.598 232.055 313.525 231.901 313.414 231.776C313.303 231.652 313.158 231.561 312.997 231.516C312.836 231.47 312.666 231.472 312.506 231.52C312.346 231.569 312.203 231.662 312.094 231.789C312.014 231.887 311.955 232 311.921 232.122C311.888 232.245 311.88 232.372 311.898 232.497C311.953 232.8 312.017 233.103 312.089 233.406C312.2 233.837 312.338 234.26 312.503 234.674C312.584 234.874 312.675 235.074 312.766 235.278C313.079 235.919 313.455 236.528 313.888 237.095C314.795 238.281 315.942 239.262 317.255 239.971C317.464 240.588 317.601 241.227 317.664 241.875C317.691 242.166 317.705 242.452 317.705 242.725C317.706 244.33 317.261 245.904 316.421 247.272C315.58 248.64 314.376 249.747 312.943 250.471C312.08 250.915 311.145 251.204 310.181 251.326C309.54 251.153 308.882 251.003 308.214 250.871C307.175 250.674 306.125 250.543 305.07 250.48H304.988C304.757 250.468 304.53 250.549 304.358 250.704C304.186 250.859 304.082 251.076 304.07 251.307C304.058 251.539 304.138 251.765 304.293 251.937C304.449 252.11 304.666 252.213 304.897 252.225C305.913 252.282 306.923 252.405 307.923 252.593C306.147 253.382 304.47 254.376 302.925 255.555C302.548 255.837 302.175 256.142 301.785 256.464C300.321 257.712 299.007 259.125 297.868 260.676L297.818 260.744C297.73 260.874 297.678 261.025 297.669 261.182C297.659 261.339 297.692 261.496 297.764 261.635C297.837 261.775 297.945 261.893 298.079 261.976C298.212 262.059 298.365 262.104 298.523 262.107C298.659 262.107 298.793 262.074 298.914 262.013C299.036 261.951 299.141 261.862 299.222 261.753C299.935 260.773 300.724 259.851 301.58 258.995C302.155 258.415 302.762 257.867 303.398 257.355L303.784 257.046C305.179 255.969 306.693 255.054 308.295 254.32C309.112 253.937 309.951 253.605 310.808 253.325C313.07 254.072 315.205 255.158 317.142 256.546L317.805 257.037L317.873 257.091C318.327 257.436 318.723 257.777 319.095 258.113C320.072 258.985 320.973 259.938 321.789 260.962C322.053 261.285 322.303 261.621 322.544 261.957L322.739 262.239L323.448 263.279V249.281C323.444 248.476 323.631 247.682 323.993 246.964C324.324 246.295 324.796 245.706 325.375 245.235C325.954 244.765 326.628 244.425 327.351 244.238C327.428 244.238 327.546 244.201 327.673 244.183L328.028 244.12C328.325 244.044 328.587 243.866 328.765 243.617C328.944 243.367 329.029 243.063 329.004 242.757C329.004 242.22 328.8 241.589 328.287 241.466C328.218 241.449 328.148 241.438 328.078 241.434C327.139 241.365 326.223 241.11 325.383 240.685C326.415 240.356 327.386 239.862 328.259 239.222C329.098 238.623 329.841 237.9 330.463 237.077C331.508 235.744 332.194 234.166 332.457 232.493C332.476 232.365 332.466 232.235 332.43 232.112C332.394 231.988 332.332 231.873 332.248 231.775ZM319.386 241.771C319.359 241.434 319.309 241.098 319.25 240.767C320.093 241.009 320.963 241.146 321.839 241.175C322.067 241.175 322.294 241.175 322.521 241.175C322.748 241.175 322.948 241.175 323.125 241.139C323.505 241.523 323.931 241.859 324.393 242.139C324.884 242.444 325.413 242.685 325.965 242.857C325.696 242.969 325.435 243.1 325.183 243.247C323.847 244.023 322.802 245.215 322.207 246.641C321.866 247.478 321.69 248.373 321.69 249.276V256.173C321.159 256.296 320.648 256.491 320.172 256.755L319.827 256.45C319.318 255.996 318.804 255.605 318.291 255.233L318.164 255.142C316.633 254.034 314.98 253.105 313.239 252.37H313.18L313.071 252.325L313.234 252.248C313.314 252.218 313.391 252.183 313.466 252.143C313.926 251.929 314.368 251.678 314.788 251.394C316.352 250.347 317.607 248.901 318.423 247.205C318.464 247.127 318.496 247.05 318.527 246.977C319.128 245.64 319.438 244.191 319.436 242.725C319.427 242.379 319.413 242.066 319.386 241.78V241.771Z" fill="#43B5A0"/>
<path d="M146.432 301.335H182.198C182.198 301.335 176.705 284.284 160.226 284.284C158.959 284.276 157.695 284.392 156.45 284.629C158.168 301.108 146.432 301.335 146.432 301.335Z" fill="#FDCA3E" stroke="#1F1300" stroke-linejoin="round"/>
<path d="M163.987 289.11C167.944 291.91 170.733 296.068 171.824 300.791" stroke="#1F1300" stroke-linecap="round" stroke-linejoin="round"/>
<g style="mix-blend-mode:multiply">
<path d="M216.269 381.277C213.656 366.32 206.797 352.43 196.51 341.263C193.361 337.865 189.917 334.753 186.219 331.963C187.319 333.052 188.351 334.208 189.308 335.425C191.58 338.333 193.029 341.636 194.215 345.08C194.446 345.108 194.662 345.212 194.826 345.377C194.991 345.542 195.096 345.757 195.124 345.988C195.887 350.491 195.919 355.03 195.887 359.587C195.887 363.081 195.133 367.125 195.955 370.605C197.909 370.641 199.254 372.745 200.044 374.599C202.584 380.609 202.961 387.37 203.952 393.749C205.003 400.825 205.661 407.954 205.923 415.103C206.083 418.697 206.378 422.373 206.133 425.953C205.887 429.533 205.283 433.168 205.896 436.775C206.397 436.814 206.9 436.814 207.4 436.775L213.307 436.38C213.517 436.416 213.732 436.402 213.936 436.34C214.14 436.277 214.326 436.168 214.48 436.02C214.633 435.872 214.75 435.691 214.821 435.49C214.892 435.289 214.915 435.074 214.888 434.863C215.263 430.871 215.642 426.878 216.024 422.886C217.332 409.051 218.641 394.994 216.269 381.277Z" fill="#E8EAF5"/>
</g>
<g style="mix-blend-mode:multiply">
<path d="M163.653 418.519C162.638 408.115 161.345 397.742 159.772 387.401C158.968 382.135 157.919 376.497 154.184 372.721C151.458 369.941 147.637 368.537 143.92 367.356C133.889 364.175 122.566 363.23 113.207 358.219C105.824 354.266 100.785 346.828 98.0544 338.909C97.7091 337.907 97.3956 336.895 97.114 335.874C95.7509 330.981 95.1012 325.951 94.6332 320.881H94.5787C91.8425 320.113 88.9363 320.207 86.2551 321.149C87.3592 329.959 87.6182 339.25 91.2529 347.464C94.3788 354.552 100.081 359.791 105.91 364.675C110.962 366.152 115.883 368.173 121.112 368.869C125.394 369.475 129.641 370.309 133.834 371.367C139.232 372.676 149.05 374.157 150.599 380.709C150.681 381.03 150.634 381.371 150.468 381.658C153.571 399.005 153.78 416.738 156.856 434.081C159.073 434.759 161.359 435.187 163.671 435.357C164.661 429.823 164.198 424.126 163.653 418.519Z" fill="#E8EAF5"/>
</g>
</svg>
