<?xml version="1.0" encoding="UTF-8"?>
<svg xmlns="http://www.w3.org/2000/svg" xmlns:xlink="http://www.w3.org/1999/xlink" viewBox="0 0 690.13 957.65">
  <defs>
    <style>
      .cls-1, .cls-2, .cls-3, .cls-4, .cls-5, .cls-6, .cls-7, .cls-8, .cls-9, .cls-10, .cls-11 {
        stroke-miterlimit: 10;
      }

      .cls-1, .cls-12, .cls-13, .cls-14, .cls-15, .cls-16, .cls-17 {
        stroke-width: 2.88px;
      }

      .cls-1, .cls-12, .cls-18, .cls-19, .cls-20, .cls-5, .cls-15, .cls-9 {
        fill: none;
      }

      .cls-1, .cls-15 {
        stroke: #41b39e;
      }

      .cls-21 {
        fill: #121212;
        stroke-width: 5.15px;
      }

      .cls-21, .cls-22, .cls-12, .cls-23, .cls-24, .cls-25, .cls-26, .cls-27, .cls-13, .cls-19, .cls-20, .cls-14, .cls-28, .cls-15, .cls-29, .cls-16, .cls-17 {
        stroke-linejoin: round;
      }

      .cls-21, .cls-22, .cls-12, .cls-23, .cls-24, .cls-25, .cls-26, .cls-27, .cls-19, .cls-20, .cls-14, .cls-28, .cls-15, .cls-29, .cls-9, .cls-16, .cls-17 {
        stroke-linecap: round;
      }

      .cls-21, .cls-22, .cls-23, .cls-24, .cls-3, .cls-26, .cls-27, .cls-20, .cls-5, .cls-7, .cls-10 {
        stroke: #1f1300;
      }

      .cls-2 {
        stroke-width: 2.42px;
      }

      .cls-2, .cls-12, .cls-25, .cls-13, .cls-4, .cls-19, .cls-6, .cls-14, .cls-28, .cls-8, .cls-29, .cls-16, .cls-17, .cls-11 {
        stroke: #21190d;
      }

      .cls-2, .cls-6 {
        fill: #fac93d;
      }

      .cls-22 {
        stroke-width: 3.33px;
      }

      .cls-22, .cls-23, .cls-24, .cls-25, .cls-3, .cls-30, .cls-26, .cls-27, .cls-17 {
        fill: #fff;
      }

      .cls-31 {
        clip-path: url(#clippath-6);
      }

      .cls-32 {
        clip-path: url(#clippath-7);
      }

      .cls-33 {
        font-family: Graphik-Bold, Graphik;
        font-size: 24.28px;
        font-weight: 700;
      }

      .cls-33, .cls-28, .cls-34, .cls-16 {
        fill: #5b6097;
      }

      .cls-35 {
        clip-path: url(#clippath-4);
      }

      .cls-36 {
        fill: #21223e;
      }

      .cls-23 {
        stroke-width: 2.58px;
      }

      .cls-24 {
        stroke-width: 3.82px;
      }

      .cls-25, .cls-19, .cls-28, .cls-11 {
        stroke-width: 1.77px;
      }

      .cls-37 {
        clip-path: url(#clippath-9);
      }

      .cls-3 {
        stroke-width: 3.46px;
      }

      .cls-38 {
        clip-path: url(#clippath-10);
      }

      .cls-39 {
        letter-spacing: 0em;
      }

      .cls-26, .cls-20 {
        stroke-width: 2.96px;
      }

      .cls-40, .cls-13, .cls-41 {
        fill: #e6e8f4;
      }

      .cls-27 {
        stroke-width: 3.45px;
      }

      .cls-42, .cls-10 {
        fill: #1f1300;
      }

      .cls-43 {
        clip-path: url(#clippath-11);
      }

      .cls-4 {
        fill: #d69328;
      }

      .cls-4, .cls-6 {
        stroke-width: 2.3px;
      }

      .cls-41 {
        mix-blend-mode: multiply;
      }

      .cls-5, .cls-7 {
        stroke-width: 3.45px;
      }

      .cls-44 {
        clip-path: url(#clippath-1);
      }

      .cls-45 {
        isolation: isolate;
      }

      .cls-46 {
        clip-path: url(#clippath-5);
      }

      .cls-47 {
        clip-path: url(#clippath-8);
      }

      .cls-48 {
        fill: #fbca3d;
      }

      .cls-49 {
        letter-spacing: 0em;
      }

      .cls-50 {
        letter-spacing: 0em;
      }

      .cls-51 {
        fill: #5cbaa1;
      }

      .cls-52, .cls-11 {
        fill: #555;
      }

      .cls-53 {
        clip-path: url(#clippath-3);
      }

      .cls-14, .cls-54, .cls-29 {
        fill: #e2582d;
      }

      .cls-55 {
        fill: #21190d;
      }

      .cls-7, .cls-56 {
        fill: #41b39e;
      }

      .cls-57 {
        letter-spacing: -.02em;
      }

      .cls-58 {
        fill: #e4572e;
      }

      .cls-59 {
        clip-path: url(#clippath-2);
      }

      .cls-60 {
        fill: #eba6a9;
      }

      .cls-8 {
        fill: #5b5f97;
        stroke-width: 3px;
      }

      .cls-29 {
        stroke-width: 4.16px;
      }

      .cls-9 {
        stroke: #e8eaf5;
        stroke-width: 11.52px;
      }

      .cls-61 {
        clip-path: url(#clippath);
      }

      .cls-10 {
        stroke-width: 5.73px;
      }
    </style>
    <clipPath id="clippath">
      <circle class="cls-7" cx="226.53" cy="226.53" r="224.81"/>
    </clipPath>
    <clipPath id="clippath-1">
      <path class="cls-25" d="M182.72,227.33h0c13.36-1.65,26.8,2.12,37.11,10.27,13.69,10.82,9.11,23.33,19.34,32.37,14.04,12.42,32.85,13.66,37.84,18.34,4.47,4.19,4.48,10.99.02,15.19h0c-3.99,3.76-10.31,4.22-14.88,1.08l-18.87-5.47c-10.46-3.03-19.64-9.09-26.22-17.31l-14.74-18.42"/>
    </clipPath>
    <clipPath id="clippath-2">
      <path class="cls-25" d="M211.68,262.06c5.75,26.4,11.05,52.51,4.88,71.05l-86.14,2.43c-3.82-20.73-7.73-53.17-3.42-86.99,0,0,3.66-9.7,9.28-14.05,5.95-4.6,13.87-3.86,14.11-3.86.91-.01,50.27-.59,50.27-.59"/>
    </clipPath>
    <clipPath id="clippath-3">
      <path class="cls-16" d="M156.34,425.12h-26.58c-5.46-35.44-7.78-75.55-6.4-108.28,38.85,5.53,72.31,5.78,99.02-1.44-.16,33.56-3.52,70.94-9.46,109.04l-25.71.66c-2.96-40.78-13.53-58.5-13.53-58.5,0,0-9.7,18.9-17.35,58.52Z"/>
    </clipPath>
    <clipPath id="clippath-4">
      <path class="cls-16" d="M222.69,307.72c-23.15,5.2-56.34,8.15-95.21.26l-4.71,10.48c33.46,10.61,75.94,7.42,99.68,1.26l.23-12.01Z"/>
    </clipPath>
    <clipPath id="clippath-5">
      <path class="cls-25" d="M138.91,145.05c-9.04-19.02-27.96-26.43-60.4-25.08-3.95.16-7.07,3.22-7.01,6.93.44,26.54,16.03,43.26,48.88,45.86l18.53-27.71Z"/>
    </clipPath>
    <clipPath id="clippath-6">
      <path class="cls-25" d="M207.49,141.06c15.39-16.52,34.63-23.35,57.34-21.37,2.91.25,5.07,2.66,4.83,5.4-2.52,29.11-17.44,44.36-44.7,45.85l-17.47-29.88Z"/>
    </clipPath>
    <clipPath id="clippath-7">
      <path class="cls-25" d="M125.61,131.89c-21.17,17.4-25.61,69.63-8.64,83.67,14.44,11.94,42.42,17.55,79.39,13.81,34.4-3.48,43-13.16,44.72-20.59,1.99-8.61-5.5-26.47-5.5-26.47,0,0,2.71-38.27-19.98-54.18-24.02-16.84-68.82-13.64-89.99,3.76"/>
    </clipPath>
    <clipPath id="clippath-8">
      <path class="cls-14" d="M181.51,234.49s-8.63-11.47-24.82-13.74c-16.18-2.28-11.68,38.09,1.3,36.77,14.72-1.5,24.05-13.55,24.25-14.12s-.72-8.9-.72-8.9Z"/>
    </clipPath>
    <clipPath id="clippath-9">
      <path class="cls-14" d="M188.97,233.84s6.36-11.64,18.74-14.25c12.38-2.61,9.86,37.84-.13,36.79-11.34-1.19-18.79-13.05-18.95-13.62s.35-8.92.35-8.92Z"/>
    </clipPath>
    <clipPath id="clippath-10">
      <path class="cls-25" d="M140.11,262.81c6.19,4.73,15.3,17.4,56.27,19.52,4.61.24,8.07,4.12,8.07,8.46h0c0,4.47-3.46,10.95-11.6,10.6-19.55-.84-63.82-.05-73.75-22.99-12.57-29.04,17.55-44.12,17.55-44.12"/>
    </clipPath>
    <clipPath id="clippath-11">
      <circle class="cls-18" cx="483.87" cy="749.65" r="204.72"/>
    </clipPath>
  </defs>
  <g class="cls-45">
    <g id="Layer_2" data-name="Layer 2">
      <g id="Isolation_Mode" data-name="Isolation Mode">
        <g>
          <g>
            <g>
              <g>
                <circle class="cls-56" cx="226.53" cy="226.53" r="224.81"/>
                <g class="cls-61">
                  <g>
                    <g>
                      <rect class="cls-11" x="100.86" y="221.1" width="88.26" height="134.83" rx="26.86" ry="26.86"/>
                      <g>
                        <g>
                          <g>
                            <g>
                              <path class="cls-30" d="M182.72,227.33h0c13.36-1.65,26.8,2.12,37.11,10.27,13.69,10.82,9.11,23.33,19.34,32.37,14.04,12.42,32.85,13.66,37.84,18.34,4.47,4.19,4.48,10.99.02,15.19h0c-3.99,3.76-10.31,4.22-14.88,1.08l-18.87-5.47c-10.46-3.03-19.64-9.09-26.22-17.31l-14.74-18.42"/>
                              <g class="cls-44">
                                <path class="cls-40" d="M202.31,232.51c3.24,1.49,12.13,30.87,23.35,42.75,19.87,21.03,45.21,29.42,46.3,32.32l-6.84,7.93-65.34-41.64s-18.28-31.54-17.91-30.79-4.18-10.92-4.18-10.92l24.62.35Z"/>
                                <path class="cls-55" d="M276.35,283.44c-6.98,7.2-12.13,14.71-14.81,22.66l9.45,8.09,17.89-16.76-12.52-13.99Z"/>
                              </g>
                              <path class="cls-19" d="M182.72,227.33h0c13.36-1.65,26.8,2.12,37.11,10.27,13.69,10.82,9.11,23.33,19.34,32.37,14.04,12.42,32.85,13.66,37.84,18.34,4.47,4.19,4.48,10.99.02,15.19h0c-3.99,3.76-10.31,4.22-14.88,1.08l-18.87-5.47c-10.46-3.03-19.64-9.09-26.22-17.31l-14.74-18.42"/>
                            </g>
                            <path class="cls-12" d="M257.09,280.43c-4.47,2.37-9.97,12.41-10.02,19.78"/>
                            <path class="cls-12" d="M267.8,284.13c-6.1,4.84-9.39,10.82-10.71,16.82"/>
                          </g>
                          <path class="cls-55" d="M156.66,424.37c-.12.87-.34,2.52-.61,4.42-.86,6.19-6.44,10.84-13.09,10.89h0c-7,.05-12.85-4.99-13.38-11.54l-.31-3.85,27.39.09Z"/>
                          <path class="cls-55" d="M213.77,423.78c-.12.87-.34,2.52-.61,4.42-.86,6.19-6.44,10.84-13.09,10.89h0c-7,.05-12.85-4.99-13.38-11.54l-.31-3.85,27.39.09Z"/>
                          <g>
                            <path class="cls-30" d="M211.68,262.06c5.75,26.4,11.05,52.51,4.88,71.05l-86.14,2.43c-3.82-20.73-7.73-53.17-3.42-86.99,0,0,3.66-9.7,9.28-14.05,5.95-4.6,13.87-3.86,14.11-3.86.91-.01,50.27-.59,50.27-.59"/>
                            <g class="cls-59">
                              <path class="cls-40" d="M122.3,315.24c8.56-15.23,16.58-30.72,24.06-46.44,2.41,16.07,5.37,31.84,7.78,47.91-10.7,1.62-21.2.49-31.84-1.47Z"/>
                              <path class="cls-40" d="M208.51,256.6s-10.67,2.21-15.79-2.85c-5.12-5.06-4.1-4.69-4.1-4.69l-5.45.06s-2.54,6.29-11.59,9.43c-9.04,3.14-17.16.39-17.16.39l-4.13-22.14,59.56-.7-1.34,20.49Z"/>
                              <ellipse class="cls-55" cx="183.79" cy="265.8" rx="4.54" ry="4.27"/>
                            </g>
                            <path class="cls-19" d="M211.68,262.06c5.75,26.4,11.05,52.51,4.88,71.05l-86.14,2.43c-3.82-20.73-7.73-53.17-3.42-86.99,0,0,3.66-9.7,9.28-14.05,5.95-4.6,13.87-3.86,14.11-3.86.91-.01,50.27-.59,50.27-.59"/>
                          </g>
                          <g>
                            <path class="cls-34" d="M156.34,425.12h-26.58c-5.46-35.44-7.78-75.55-6.4-108.28,38.85,5.53,72.31,5.78,99.02-1.44-.16,33.56-3.52,70.94-9.46,109.04l-25.71.66c-2.96-40.78-13.53-58.5-13.53-58.5,0,0-9.7,18.9-17.35,58.52Z"/>
                            <g class="cls-53">
                              <path class="cls-41" d="M123.48,299.78c-5.86,14.1-8.29,29.46-7.06,44.55.41,5.04,1.22,10.04,1.65,15.07.78,9.21.28,18.49,1.33,27.67,1.7,14.88,6.94,28.58,6.3,43.53,2.49.06,4.98.12,7.47.18,6.85.16,7-1.28,6.13-7.16-.84-5.68,1.11-33.07-1.08-47.78-3.35-22.49.09-48.36,4.45-70.7-6.15-2.85-12.45-4.17-19.19-5.37Z"/>
                              <path class="cls-41" d="M185.97,362.56c3.61,13.02,6.07,26.32,7.36,39.72.66,6.81,1.01,13.65,1.07,20.49.02,2.58.69,4.78-2.02,5.85-2.71,1.08-8.14-.25-10.88-.83-1.89-7.76-2.98-15.46-4.87-23.21-2.26-9.27-5.03-18.67-4.76-28.26.13-4.63.98-9.44,3.64-13.42,1.23-1.84,3.05-4.02,5.16-5.03,3.65-1.77,4.43,1.54,5.3,4.69Z"/>
                            </g>
                            <path class="cls-12" d="M156.34,425.12h-26.58c-5.46-35.44-7.78-75.55-6.4-108.28,38.85,5.53,72.31,5.78,99.02-1.44-.16,33.56-3.52,70.94-9.46,109.04l-25.71.66c-2.96-40.78-13.53-58.5-13.53-58.5,0,0-9.7,18.9-17.35,58.52Z"/>
                          </g>
                          <path class="cls-28" d="M222.26,320.72c.76-24.1,4.06-57.98-7.59-87.35l-12.19-6.92c9.57,19.95,8.3,63.23,8.46,94.61"/>
                          <rect class="cls-2" x="176.81" y="301.39" width="92.81" height="6.04" rx="1.84" ry="1.84"/>
                          <path class="cls-2" d="M213.06,297.24l.45,2.4c.25,1.3-1.3,2.23-2.46,1.48l-2.13-1.39-25.82-37.88c-.73-1.07-.4-2.5.74-3.19h0c1.14-.69,2.66-.37,3.39.7l25.82,37.88Z"/>
                          <path class="cls-13" d="M190.02,227.9l4,5.07-6.93,10.15-7.25-6.29s-8.69,7.21-9.6,7.22-13.18-11.51-13.18-11.51l5.09-4.33,27.86-.33Z"/>
                          <ellipse class="cls-55" cx="186.31" cy="290.8" rx="4.54" ry="4.27"/>
                          <path class="cls-28" d="M146.11,322.12c2.45-29.21-2.06-85.5-9.83-87.63,1.73-3.21,8.15-6.29,12.6-6.8,11.55,21.31,11.59,63.35,10.45,95.13"/>
                          <path class="cls-12" d="M173.69,366.6c2.03-5.6,5.09-8.54,10.61-9.44"/>
                          <path class="cls-12" d="M131.1,318.03c-1.48,27.81-1.25,69.2,4.39,107.38"/>
                          <path class="cls-12" d="M177.56,360.7c7.08,3.28,14.45,36.4,16.59,64.64"/>
                          <g>
                            <path class="cls-34" d="M222.69,307.72c-23.15,5.2-56.34,8.15-95.21.26l-4.71,10.48c33.46,10.61,75.94,7.42,99.68,1.26l.23-12.01Z"/>
                            <g class="cls-35">
                              <path class="cls-41" d="M144.38,308.34c-.98,5.95-1.64,11.95-1.95,17.96-7-1.96-13.55-3.39-20.54-5.35-.41-.12-.84-.24-1.15-.52-.48-.43-.55-1.12-.6-1.74-.33-4.92-.39-10.26,2.68-14.26.38-.49.82-.97,1.41-1.21.79-.32,1.7-.17,2.54-.01,6.11,1.18,11.73,3.17,17.61,5.14Z"/>
                            </g>
                            <path class="cls-12" d="M222.69,307.72c-23.15,5.2-56.34,8.15-95.21.26l-4.71,10.48c33.46,10.61,75.94,7.42,99.68,1.26l.23-12.01Z"/>
                          </g>
                          <g>
                            <g>
                              <path class="cls-30" d="M138.91,145.05c-9.04-19.02-27.96-26.43-60.4-25.08-3.95.16-7.07,3.22-7.01,6.93.44,26.54,16.03,43.26,48.88,45.86l18.53-27.71Z"/>
                              <g class="cls-46">
                                <path class="cls-56" d="M116.15,168.12c-16.11-1.64-31.17-10.49-32.99-28.94-.26-2.61,1.75-4.95,4.52-5.25,15.12-1.63,30.29,3.13,37.64,10.33l-9.18,23.86Z"/>
                                <path class="cls-41" d="M130.55,128.15c-9.78,2.26-17.94,8.84-23.63,16.64-5.68,7.8-9.16,16.82-12.26,25.81,1.45.17,2.14,1.27,3.44,1.9,3.98,1.91,8.37,2.89,12.72,3.86,5.48,1.22,11.41-1.03,15.54-4.62s6.96-8.29,9.67-12.92c2.62-4.46,5.24-9.03,6.19-14.04.95-5.01-.05-10.62-3.88-14.22-1.87-1.76-5.16-2.25-7.81-2.41Z"/>
                              </g>
                              <path class="cls-19" d="M138.91,145.05c-9.04-19.02-27.96-26.43-60.4-25.08-3.95.16-7.07,3.22-7.01,6.93.44,26.54,16.03,43.26,48.88,45.86l18.53-27.71Z"/>
                            </g>
                            <g>
                              <path class="cls-30" d="M207.49,141.06c15.39-16.52,34.63-23.35,57.34-21.37,2.91.25,5.07,2.66,4.83,5.4-2.52,29.11-17.44,44.36-44.7,45.85l-17.47-29.88Z"/>
                              <g class="cls-31">
                                <path class="cls-56" d="M224.79,167.71c19.19-1.19,29.39-11.74,32.52-29.66.47-2.68-1.62-5.19-4.5-5.38-12.43-.82-25.59,4.12-39.32,13.56l11.31,21.47Z"/>
                                <path class="cls-41" d="M216.42,127.53c2.66,1.59,5.11,3.47,7.45,5.45,11.78,9.97,20.96,22.63,26.51,36.58-.98-.18-1.74-.51-2.66-.16-7.4,2.8-15.31,4.38-23.28,4.66-6.49-10.65-13.41-21.62-19.9-32.28.08-.77.37-1.15.87-1.77,2.56-3.24,5.12-6.47,7.68-9.71.94-1.19,1.98-2.02,3.34-2.76Z"/>
                              </g>
                              <path class="cls-19" d="M207.49,141.06c15.39-16.52,34.63-23.35,57.34-21.37,2.91.25,5.07,2.66,4.83,5.4-2.52,29.11-17.44,44.36-44.7,45.85l-17.47-29.88Z"/>
                            </g>
                            <g>
                              <path class="cls-55" d="M210.21,128.46c21.87-18.58,28.23-48.41,4.24-74.93-.66-.73-.58-1.83.2-2.46h0c.78-.64,1.96-.56,2.65.16,29.51,30.98,23.01,63.9,4.68,85.69l-11.76-8.45Z"/>
                              <path class="cls-55" d="M223.52,115.09c-.81-11.4-4.7-24.29-20.3-31.83-.81-.39-1.13-1.33-.69-2.08h0c.41-.71,1.35-.99,2.13-.65,12.8,5.68,21.41,13.59,24.9,24.2l-6.05,10.36Z"/>
                            </g>
                            <g>
                              <path class="cls-55" d="M139.46,129.26c-21.87-18.58-28.23-48.41-4.24-74.93.66-.73.58-1.83-.2-2.46h0c-.78-.64-1.96-.56-2.65.16-29.51,30.98-23.01,63.9-4.68,85.69l11.76-8.45Z"/>
                              <path class="cls-55" d="M126.15,115.89c.81-11.4,4.7-24.29,20.3-31.83.81-.39,1.13-1.33.69-2.08h0c-.41-.71-1.35-.99-2.13-.65-12.8,5.68-21.41,13.59-24.9,24.2l6.05,10.36Z"/>
                            </g>
                            <g>
                              <path class="cls-30" d="M125.61,131.89c-21.17,17.4-25.61,69.63-8.64,83.67,14.44,11.94,42.42,17.55,79.39,13.81,34.4-3.48,43-13.16,44.72-20.59,1.99-8.61-5.5-26.47-5.5-26.47,0,0,2.71-38.27-19.98-54.18-24.02-16.84-68.82-13.64-89.99,3.76"/>
                              <g class="cls-32">
                                <path class="cls-40" d="M240.55,219.39c-31.01,6.02-63.22,6.5-94.41,1.41-8.82-1.44-27.78-8.14-33.62-29.44-2.12-7.73-1.96-29.46-2.06-37.45-4.25,12.66-13.42,40.01-13.62,53.28-.08,5.13.63,10.68,4.35,14.43,3.51,3.56,8.91,4.72,13.98,5.67,33.12,6.21,67.09,10.69,100.62,6.88,5.16-.59,10.39-1.4,15.04-3.59,4.64-2.19,8.54-6.45,9.73-11.2Z"/>
                              </g>
                              <path class="cls-19" d="M125.61,131.89c-21.17,17.4-25.61,69.63-8.64,83.67,14.44,11.94,42.42,17.55,79.39,13.81,34.4-3.48,43-13.16,44.72-20.59,1.99-8.61-5.5-26.47-5.5-26.47,0,0,2.71-38.27-19.98-54.18-24.02-16.84-68.82-13.64-89.99,3.76"/>
                            </g>
                            <g>
                              <ellipse class="cls-55" cx="188.67" cy="195.41" rx="11.29" ry="5.52"/>
                              <g>
                                <ellipse class="cls-1" cx="219.46" cy="178.78" rx="26.2" ry="25.13"/>
                                <ellipse class="cls-1" cx="155.41" cy="179.07" rx="29.38" ry="26.35"/>
                                <path class="cls-15" d="M194.28,185.6c-2.79-2.4-7.57-2.36-10.32.08"/>
                              </g>
                            </g>
                          </g>
                          <path class="cls-12" d="M151.59,325.17c.73,9.38-8.26,16.88-19.16,17"/>
                          <g>
                            <g>
                              <path class="cls-54" d="M181.51,234.49s-8.63-11.47-24.82-13.74c-16.18-2.28-11.68,38.09,1.3,36.77,14.72-1.5,24.05-13.55,24.25-14.12s-.72-8.9-.72-8.9Z"/>
                              <g class="cls-47">
                                <ellipse class="cls-30" cx="175.29" cy="229.63" rx="3.33" ry="3.13"/>
                                <ellipse class="cls-30" cx="175.52" cy="246.98" rx="3.33" ry="3.13"/>
                                <ellipse class="cls-30" cx="155" cy="229.87" rx="3.33" ry="3.13"/>
                                <ellipse class="cls-30" cx="155.23" cy="247.22" rx="3.33" ry="3.13"/>
                                <ellipse class="cls-30" cx="166.18" cy="239.27" rx="3.33" ry="3.13"/>
                                <ellipse class="cls-30" cx="165.94" cy="221.21" rx="3.33" ry="3.13"/>
                                <ellipse class="cls-30" cx="166.41" cy="256.33" rx="3.33" ry="3.13"/>
                              </g>
                              <path class="cls-12" d="M181.51,234.49s-8.63-11.47-24.82-13.74c-16.18-2.28-11.68,38.09,1.3,36.77,14.72-1.5,24.05-13.55,24.25-14.12s-.72-8.9-.72-8.9Z"/>
                            </g>
                            <g>
                              <path class="cls-54" d="M188.97,233.84s6.36-11.64,18.74-14.25c12.38-2.61,9.86,37.84-.13,36.79-11.34-1.19-18.79-13.05-18.95-13.62s.35-8.92.35-8.92Z"/>
                              <g class="cls-37">
                                <ellipse class="cls-30" cx="206.02" cy="228.56" rx="3.33" ry="3.13"/>
                                <ellipse class="cls-30" cx="206.26" cy="246.91" rx="3.33" ry="3.13"/>
                                <ellipse class="cls-30" cx="215.39" cy="238.41" rx="3.33" ry="3.13"/>
                                <ellipse class="cls-30" cx="196.31" cy="238.63" rx="3.33" ry="3.13"/>
                              </g>
                              <path class="cls-12" d="M188.97,233.84s6.36-11.64,18.74-14.25c12.38-2.61,9.86,37.84-.13,36.79-11.34-1.19-18.79-13.05-18.95-13.62s.35-8.92.35-8.92Z"/>
                            </g>
                            <path class="cls-14" d="M185.44,245.35h0c3.32-.04,5.97-2.6,5.93-5.71l-.02-1.52c-.04-3.11-2.76-5.61-6.08-5.57h0c-3.32.04-5.97,2.6-5.93,5.71l.02,1.52c.04,3.11,2.76,5.61,6.08,5.57Z"/>
                            <path class="cls-41" d="M146.18,234.57s7.27,15.65,16.75,14.4c9.47-1.25,16.43-9.29,16.43-9.29,0,0,3.65.91,6.67.68,3.03-.22,5.44-.82,5.44-.82,0,0,5.51,4.68,11.82,8.02,6.3,3.34,11.52.81,11.52.81,0,0-1.91,8.37-6.15,8.23-4.24-.14-11.57-4.42-13.41-6.1-1.84-1.68-5.12-5.44-5.12-5.44l-9.29.11s-6.76,7.66-13.8,10.02c-7.04,2.36-9.44,3.71-12.7,1.29-3.26-2.43-6.15-6.75-7.23-12.24-1.08-5.49-.94-9.66-.94-9.66Z"/>
                          </g>
                        </g>
                        <path class="cls-12" d="M199.96,206.43s-3.38,8.09-10.59,2.13c0,0-10.23,6.56-12-2.54"/>
                        <line class="cls-12" x1="189.12" y1="198.09" x2="189.12" y2="208.03"/>
                        <g>
                          <path class="cls-52" d="M396.33,274.51c3.91,0,7.07-2.97,7.07-6.64v-87.18c0-3.67-3.17-6.64-7.07-6.64h-148.92c-3.02,0-5.47,2.3-5.47,5.14v90.19c0,2.84,2.45,5.14,5.47,5.14h148.92Z"/>
                          <rect class="cls-55" x="307.4" y="243.07" width="9.01" height="31.44"/>
                          <g>
                            <path class="cls-55" d="M404.5,245.15v-60.4c0-1.55.12-3.14-.03-4.69-.39-3.96-3.91-7-8.14-7.05-.28,0-.55,0-.83,0h-147.47c-.61,0-1.2,0-1.81.1-3.17.5-5.37,3.21-5.39,6.16-.01,1.76,0,3.51,0,5.27v83.35c0,.48,0,.96,0,1.43.06,3.41,2.93,6.14,6.57,6.2,1.01.02,2.03,0,3.04,0h145.88c-1.42.02-1.41-2.04,0-2.06h-145.44c-1.15,0-2.3.02-3.44,0-2.46-.03-4.37-1.84-4.4-4.15,0-.49,0-.98,0-1.47v-82.84c0-1.88,0-3.76,0-5.64,0-2.21,1.68-4.19,4.15-4.29.31-.01.63,0,.94,0h147.11c.36,0,.71,0,1.07,0,3.12.03,5.86,2.31,6.01,5.3.07,1.45,0,2.92,0,4.37v81.75c0,.45,0,.89,0,1.34-.04,3.11-2.66,5.59-5.97,5.64,1.42,0,1.41,2.06,0,2.06,4.49-.07,8.11-3.45,8.17-7.67,0-.37,0-.74,0-1.11v-21.6Z"/>
                            <path class="cls-36" d="M396.33,273.47c-1.41.02-1.42,2.08,0,2.06,1.41,0,1.42-2.06,0-2.06Z"/>
                          </g>
                          <path class="cls-52" d="M247.4,174.04h-7.04c-3.02,0-5.47,2.3-5.47,5.14v90.19c0,2.84,2.45,5.14,5.47,5.14h7.04c-3.02,0-5.47-2.3-5.47-5.14v-90.19c0-2.84,2.45-5.14,5.47-5.14Z"/>
                          <g>
                            <path class="cls-36" d="M242.55,175.08h4.86v-2.06c-1.93.02-3.66.82-4.86,2.06Z"/>
                            <path class="cls-36" d="M247.4,173.01v2.06c1.41-.02,1.42-2.06,0-2.06Z"/>
                            <path class="cls-36" d="M247.4,273.47v2.06c1.41,0,1.42-2.05,0-2.06Z"/>
                            <path class="cls-36" d="M247.4,275.54v-2.06h-4.86c1.2,1.25,2.93,2.04,4.86,2.06Z"/>
                            <path class="cls-36" d="M240.84,269.37c0,1.33,2.2,1.33,2.2,0-.02-1.33-2.22-1.33-2.2,0Z"/>
                            <path class="cls-55" d="M247.4,175.08h-4.86c-1.05,1.09-1.69,2.53-1.71,4.11,0,.25,0,.5,0,.74v85.43c0,1.28-.03,2.57,0,3.85,0,.05,0,.11,0,.16-.02-1.33,2.18-1.33,2.2,0v-88.3c0-1.49-.16-3,.82-4.3.82-1.08,2.15-1.68,3.55-1.7Z"/>
                            <path class="cls-55" d="M242.55,273.47h-1.57c-1.19,0-2.31-.14-3.29-.85-1.08-.78-1.68-2-1.7-3.27-.02-1.31,0-2.62,0-3.93v-39.19c0-5.32.05-8.09.05-13.41,0-4.81-.05-12.17-.05-16.97v-16.35c0-1.43.52-2.79,1.81-3.66,1-.67,2.09-.77,3.27-.77h1.47c1.2-1.25,2.93-2.04,4.86-2.06h-6.49c-1.45,0-2.86.21-4.11.98-1.82,1.12-2.95,3-3.01,5.05-.04,1.26,0,2.52,0,3.78v86.33c0,2.22,1.09,4.29,3.13,5.47,1.24.72,2.62.91,4.05.91h6.42c-1.93-.02-3.66-.82-4.86-2.06Z"/>
                            <path class="cls-55" d="M240.84,269.37c.02,1.58.67,3.02,1.71,4.1h4.86c-2.41-.03-4.34-1.84-4.37-4.1,0,1.33-2.2,1.33-2.2,0Z"/>
                          </g>
                          <g>
                            <path class="cls-36" d="M315.04,247.23s-.03-.03,0,0c.03.03.05.05,0,0Z"/>
                            <path class="cls-36" d="M315.14,247.4c-.03-.07-.02-.03,0,.01.02.03.03.05,0-.01Z"/>
                            <path class="cls-36" d="M314.51,246.96c-.09,0-.03,0,.02,0,.03,0,.05,0-.02,0Z"/>
                            <path class="cls-36" d="M315.18,247.57s.01.04.02.06c0-.02-.01-.13-.02-.06Z"/>
                            <path class="cls-36" d="M314.86,247.07s.01.01.02.02c0,0,.02,0,.02,0-.01,0-.03-.02-.04-.03Z"/>
                            <path class="cls-36" d="M314.7,247.01s.03,0,.05.01c-.02,0-.04-.01-.05-.01Z"/>
                            <path class="cls-36" d="M307.4,244.9c.37.34.73.69,1.1,1.03v-1.03h-1.1Z"/>
                            <path class="cls-36" d="M322.75,240.78s.02.02.03.04c.03.04.05.06-.03-.04Z"/>
                            <path class="cls-36" d="M324.26,244.14c0-.07,0-.04,0,0,0,.04.01.07,0,0Z"/>
                            <path class="cls-36" d="M324.32,254.35v52.75c0,.56.5,1.03,1.1,1.03s1.1-.47,1.1-1.03v-58.45c0-1.16,0-2.31,0-3.47,0-1.7-.47-3.38-1.43-4.83-1.57-2.36-4.19-3.89-7.13-4.22-1.32-.15-2.69-.06-4.01-.06h-6.55c-.59,0-1.1.47-1.1,1.03v8.83c0,.56.5,1.03,1.1,1.03h6.88s.09,0,.13,0c.02,0,.08,0,.11,0-.05,0-.1-.01-.02,0,.06,0,.05,0,.02,0,.02,0,.03,0,.04,0,.05.01.1.03.14.04.01,0,.03,0,.05.01-.02,0-.03,0-.05-.01-.07-.02.08.04.14.07.01,0,.02,0,.03.01,0,0-.01-.01-.02-.02.01,0,.03.02.04.03.06.03.04.02,0,0,0,0-.01,0-.02,0,.03.03.06.05.09.08.01,0,.04.05.07.07-.02-.03-.03-.05,0,0,.04.05.02.03,0,0,.02.03.05.07.05.08,0,.01.03.06.05.09-.01-.04-.03-.08,0-.01.02.06.01.04,0,.01,0,.02.01.04.01.04,0,.04.02.08.03.12,0-.06.01.05.02.06,0-.02,0-.04-.02-.06,0,0,0,.02,0,.03,0,.02,0,.04,0,.06,0,.18,0,.36,0,.54v43.98c0,.81-.01,1.63,0,2.44,0,.04,0,.07,0,.11,0,.56.5,1.03,1.1,1.03s1.1-.47,1.1-1.03v-46.17c0-.27,0-.55,0-.82,0-1.48-1.14-2.69-2.72-2.82-.87-.07-1.76-.01-2.63-.01h-3.53v1.03c-.37-.34-.73-.69-1.1-1.03h1.1v-6.76h-1.1c.37-.34.73-.69,1.1-1.03v1.03h7.77c.55,0,1.09,0,1.64.05,0,0,0,0,.06,0-.02,0-.04,0-.06,0,.03,0,.28.04.32.05.15.03.3.06.44.09.36.08.7.19,1.04.31.01,0,.04.02.07.02-.02,0-.04-.02-.05-.02.12.05.1.04.05.02.06.02.11.05.17.07.15.06.29.13.44.21.3.15.59.32.87.51.05.04.11.07.16.11.02.01.03.02.04.03-.13-.11.15.1,0,0,.01,0,.02.02.04.03.11.09.22.18.33.27.25.21.49.44.72.68.05.06.1.12.16.17.01.02.04.05.07.08,0-.01-.02-.02-.03-.04.07.09.06.07.03.04.09.11.17.22.26.34.18.25.35.52.5.79.08.14.14.28.21.42.09.18.02.05,0,0,.04.09.07.17.11.26.11.29.21.59.28.9.04.15.07.31.1.47,0,0,.01.09.02.15,0-.04,0-.07,0,0,0,.07,0,.04,0,0,0,.06.02.16.02.15.03.26.04.52.04.78,0,.86,0,1.72,0,2.58v6.69Z"/>
                            <path class="cls-36" d="M307.4,238.14h1.1v-1.03c-.37.34-.73.69-1.1,1.03Z"/>
                            <path class="cls-36" d="M321.46,239.58c.15.1-.13-.11,0,0h0Z"/>
                            <path class="cls-36" d="M317.9,238.19s.04,0,.06,0c-.06,0-.07,0-.06,0Z"/>
                            <path class="cls-36" d="M319.72,238.64s.04.02.05.02c.04.02.06.02-.05-.02Z"/>
                          </g>
                          <path class="cls-52" d="M350.74,307.47v-62.4c0-4.4-3.8-7.97-8.49-7.97h-25.33c4.69,0,8.49,3.57,8.49,7.97v62.4h25.33Z"/>
                          <g>
                            <path class="cls-36" d="M326.51,307.47v-1.03h-1.1c.37.34.73.69,1.1,1.03Z"/>
                            <path class="cls-36" d="M349.59,244.14c.02.14-.02-.15,0,0h0Z"/>
                            <path class="cls-36" d="M349.08,242.39s-.02-.04,0-.02c.02.05.04.09,0,.02Z"/>
                            <path class="cls-36" d="M315.83,237.1c0,.56.5,1.03,1.1,1.03v-2.06c-.59,0-1.1.47-1.1,1.03Z"/>
                            <path class="cls-36" d="M343.21,238.18s.03,0,.05,0c.05,0,.09.01-.05,0Z"/>
                            <path class="cls-36" d="M348.13,240.85s0,0,0,0c.1.12-.06-.09,0,0Z"/>
                            <path class="cls-36" d="M346.74,239.55c.08.05-.05-.04,0,0h0Z"/>
                            <path class="cls-36" d="M345.14,238.67s0,0,0,0c0,0,0,0,0,0,0,0-.01,0-.02,0Z"/>
                            <path class="cls-36" d="M349.64,307.47c.37-.34.73-.69,1.1-1.03h-1.1v1.03Z"/>
                            <path class="cls-55" d="M341.16,237.1c0,.56.5,1.03,1.1,1.03.59,0,1.1-.47,1.1-1.03s-.5-1.03-1.1-1.03c-.59,0-1.1.48-1.1,1.03Z"/>
                            <path class="cls-36" d="M323.75,242.39s-.02-.04,0-.02c.02.05.04.09,0,.02Z"/>
                            <path class="cls-36" d="M324.26,244.14c.02.14-.02-.15,0,0h0Z"/>
                            <path class="cls-36" d="M321.41,239.55c.08.05-.05-.04,0,0h0Z"/>
                            <path class="cls-55" d="M325.41,308.51h25.33c.59,0,1.1-.47,1.1-1.03v-62.2c0-1.15-.17-2.31-.62-3.38-.94-2.24-2.76-4.11-5.13-5.06-1.22-.49-2.51-.75-3.83-.76.6,0,1.1.47,1.1,1.03s-.51,1.03-1.1,1.03c.31,0,.63.02.94.05.01,0,.04,0,.06,0-.02,0-.03,0-.05,0,.14.02.1.01.05,0,.05,0,.1.01.15.02.17.03.33.06.5.1.28.06.55.14.82.22.14.05.28.09.41.15,0,0,0,0,0,0-.05-.02-.13-.06,0,0,0,0,.01,0,.02,0,0,0,0,0,0,0,0,0,.01,0,.02,0,.09.04.18.08.27.12.24.11.47.23.69.36.13.07.25.15.37.23.07.04.13.09.2.13.02.01.03.02.04.03-.05-.04.08.05,0,0,0,0,0,0,.01,0,.46.34.88.73,1.26,1.16.04.05.08.09.12.14-.06-.08.11.12,0,0,0,0,0,0,0,0,0,0,0,0,.01.02.09.11.17.22.25.34.16.23.31.47.45.72.07.12.13.25.19.38,0,0,.02.04.03.07-.01-.03-.01-.03,0,.02.03.07.01.03,0-.02.02.05.07.16.07.15.11.26.2.53.27.81.07.26.13.53.17.8,0,0,0,0,0,0-.02-.15.02.14,0,0,0,0,0,0,0,0,0,.08.02.16.03.24.01.16.02.33.03.49,0,.08,0,.15,0,.23,0,.98,0,1.97,0,2.95v58.38h1.1c-.37.34-.73.69-1.1,1.03v-1.03h-23.13v1.03c-.37-.34-.73-.69-1.1-1.03h1.1v-61.21c0-2.76-1.29-5.38-3.49-7.1h-6.09c.31,0,.63.02.94.05.01,0,.04,0,.06,0-.02,0-.03,0-.05,0,.14.02.1.01.05,0,.05,0,.1.01.15.02.17.03.33.06.5.1.28.06.55.14.82.22.14.05.28.09.41.15,0,0,0,0,0,0-.05-.02-.13-.06,0,0,0,0,.01,0,.02,0,0,0,0,0,0,0,0,0,.01,0,.02,0,.09.04.18.08.27.12.24.11.47.23.69.36.13.07.25.15.37.23.07.04.13.09.2.13.02.01.03.02.04.03-.05-.04.08.05,0,0,0,0,0,0,.01,0,.46.34.88.73,1.26,1.16.04.05.08.09.12.14-.06-.08.11.12,0,0,0,0,0,0,0,0,0,0,0,0,.01.02.09.11.17.22.25.34.16.23.31.47.45.72.07.12.13.25.19.38,0,0,.02.04.03.07-.01-.03-.01-.03,0,.02.03.07.01.03,0-.02.02.05.07.16.07.15.11.26.2.53.27.81.07.26.13.53.17.8,0,0,0,0,0,0-.02-.15.02.14,0,0,0,0,0,0,0,0,0,.08.02.16.03.24.01.16.02.33.03.49,0,.07,0,.15,0,.22,0,.8,0,1.6,0,2.4v56.95c0,.96-.01,1.93,0,2.89,0,.04,0,.08,0,.13,0,.56.5,1.03,1.1,1.03Z"/>
                            <path class="cls-36" d="M322.8,240.85s0,0,0,0c.1.12-.06-.09,0,0Z"/>
                            <path class="cls-36" d="M320.76,236.83c-1.22-.49-2.51-.75-3.83-.76v2.06h6.09c-.67-.53-1.43-.97-2.26-1.31Z"/>
                            <path class="cls-36" d="M319.81,238.67s0,0,0,0c0,0,0,0,0,0,0,0-.01,0-.02,0Z"/>
                            <path class="cls-55" d="M323.02,238.14h19.23c-.6,0-1.1-.47-1.1-1.03s.5-1.04,1.1-1.03h-25.33c1.33,0,2.62.27,3.83.76.83.34,1.59.78,2.26,1.31Z"/>
                            <path class="cls-36" d="M317.88,238.18s.03,0,.05,0c.05,0,.09.01-.05,0Z"/>
                          </g>
                          <path class="cls-52" d="M290.56,294.72c-3.39,0-6.14,2.58-6.14,5.76v6.99h40.99v-62.4c0-4.4-3.8-7.97-8.49-7.97h-9.53v8.83h7.05c1.01,0,1.83.77,1.83,1.72v47.08h-25.72Z"/>
                          <g>
                            <path class="cls-36" d="M324.32,307.35s0,.08,0,.13c.37-.34.73-.69,1.1-1.03h-1.11c0,.3,0,.6.01.9Z"/>
                            <path class="cls-36" d="M284.49,306.44s-.05,0-.07,0c.37.34.73.69,1.1,1.03,0-.35,0-.69,0-1.04-.34,0-.69-.01-1.03,0Z"/>
                            <path class="cls-36" d="M285.56,299.86s0-.04,0-.06c0,.04,0,.06,0,.06Z"/>
                            <path class="cls-36" d="M315.18,294.62s0,.07,0,.11c.37-.34.73-.69,1.1-1.03h-1.11c0,.31,0,.62.01.92Z"/>
                            <path class="cls-36" d="M324.26,244.14c.02.14-.02-.15,0,0h0Z"/>
                            <path class="cls-36" d="M322.8,240.85s0,0,0,0c.1.12-.06-.09,0,0Z"/>
                            <path class="cls-36" d="M285.9,298.66c.08-.2-.05.09,0,0h0Z"/>
                            <path class="cls-36" d="M323.75,242.39s-.02-.04,0-.02c.02.05.04.09,0,.02Z"/>
                            <path class="cls-36" d="M321.41,239.55c.08.05-.05-.04,0,0h0Z"/>
                            <path class="cls-36" d="M317.88,238.18s.03,0,.05,0c.05,0,.09.01-.05,0Z"/>
                            <path class="cls-36" d="M319.81,238.67s0,0,0,0c0,0,0,0,0,0,0,0-.01,0-.02,0Z"/>
                            <path class="cls-36" d="M314.51,246.96s.01,0,.02,0c.09,0-.17-.03-.02,0Z"/>
                            <path class="cls-36" d="M314.87,247.09s.01,0,.02.01c.01,0,.02.01.03.02-.02-.02-.04-.03-.05-.03Z"/>
                            <path class="cls-36" d="M286.55,297.61s.03-.03.04-.05c-.06.07-.06.07-.04.05Z"/>
                            <path class="cls-36" d="M315.04,247.24s-.04-.08,0,0h0Z"/>
                            <path class="cls-55" d="M315.18,257.25v34.92c0,.51,0,1.02-.01,1.53h1.11c-.37.34-.73.69-1.1,1.03,0-.04,0-.07,0-.11-.01-.31-.01-.62-.01-.92h-23.45c-.66,0-1.33-.02-1.99.05-2.84.33-5.23,2.18-6.09,4.75-.44,1.34-.32,2.82-.32,4.21v4.77c0,.56.5,1.03,1.1,1.03h35.95c1.66,0,3.32.04,4.98,0,.02,0,.05,0,.07,0,.59,0,1.1-.47,1.1-1.03v-62.24c0-3.6-2.19-6.97-5.75-8.4-1.22-.49-2.51-.75-3.83-.76.6,0,1.1.47,1.1,1.03s-.51,1.03-1.1,1.03c.31,0,.63.02.94.05.01,0,.04,0,.06,0-.02,0-.03,0-.05,0,.14.02.1.01.05,0,.05,0,.1.01.15.02.17.03.33.06.5.1.28.06.55.14.82.22.14.05.28.09.41.15,0,0,0,0,0,0-.05-.02-.13-.06,0,0,0,0,.01,0,.02,0,0,0,0,0,0,0,0,0,.01,0,.02,0,.09.04.18.08.27.12.24.11.47.23.69.36.13.07.25.15.37.23.07.04.13.09.2.13.02.01.03.02.04.03-.05-.04.08.05,0,0,0,0,0,0,.01,0,.46.34.88.73,1.26,1.16.04.05.08.09.12.14-.06-.08.11.12,0,0,0,0,0,0,0,0,0,0,0,0,.01.02.09.11.17.22.25.34.16.23.31.47.45.72.07.12.13.25.19.38,0,0,.02.04.03.07-.01-.03-.01-.03,0,.02.03.07.01.03,0-.02.02.05.07.16.07.15.11.26.2.53.27.81.07.26.13.53.17.8,0,0,0,0,0,0-.02-.15.02.14,0,0,0,0,0,0,0,0,0,.08.02.16.03.24.01.16.02.33.03.49,0,.07,0,.15,0,.22,0,.8,0,1.6,0,2.4v56.95c0,.66-.01,1.32-.01,1.99h1.11c-.37.34-.73.69-1.1,1.03,0-.04,0-.08,0-.13,0-.3-.01-.6-.01-.9h-38.21c-.19,0-.39,0-.58,0,0,.35,0,.69,0,1.04-.37-.34-.73-.69-1.1-1.03.02,0,.05,0,.07,0,.34-.02.68-.01,1.03,0,0-1.98-.01-3.96,0-5.95,0-.21.01-.42.04-.63,0,0,0-.01,0-.06,0,.02,0,.04,0,.06,0,0,.05-.27.06-.31.04-.17.09-.34.14-.51.04-.12.09-.24.13-.36,0-.01,0-.02.01-.03-.05.09.08-.2,0,0,0,0,0-.01.01-.02.03-.06.06-.11.08-.17.14-.26.3-.52.48-.76.02-.03.05-.07.08-.1-.02.02-.02.02.04-.05-.01.02-.03.03-.04.05.02-.02.06-.08.08-.1.1-.1.19-.21.3-.31.1-.1.21-.2.32-.29.05-.04.1-.08.15-.12.03-.02.06-.04.09-.07-.06.04-.05.04.03-.02,0,0-.02.01-.03.02,0,0,0,0,0,0,.23-.15.46-.3.71-.42.14-.07.29-.14.43-.2-.01,0-.02,0-.03.01-.04.01-.07.03,0,0,.02,0,.03-.01.05-.02,0,0,0,0-.01,0,0,0,.02,0,.03,0,.09-.03.19-.07.28-.09.29-.09.59-.15.88-.21.01,0,.05,0,.07-.01-.02,0-.04,0-.06,0,.13-.01.1-.01.06,0,.05,0,.1-.01.15-.01.17-.01.35-.02.52-.02.03,0,.07,0,.1,0,.24,0,.49,0,.73,0h18.66c2.04,0,4.09.04,6.14,0,.03,0,.06,0,.09,0,.59,0,1.1-.47,1.1-1.03v-46.19c0-.27,0-.54,0-.81-.01-1.5-1.17-2.7-2.77-2.82-.85-.06-1.73,0-2.58,0h-3.53v1.03c-.37-.34-.73-.69-1.1-1.03h1.1v-6.76h-1.1c.37-.34.73-.69,1.1-1.03v1.03h8.43c-.6,0-1.1-.47-1.1-1.03s.51-1.04,1.1-1.03h-9.53c-.59,0-1.1.47-1.1,1.03v8.83c0,.56.5,1.03,1.1,1.03h6.34c.26,0,.51,0,.77,0,.01,0,.02,0,.03,0,0,0-.01,0-.02,0-.15-.03.11,0,.02,0,.04,0,.09.02.13.03.02,0,.05.01.07.02-.02-.01-.04-.02-.06-.03.11.05.1.04.06.03.02.01.05.02.07.03.03.02.06.04.09.05,0,0-.01-.01-.02-.01-.04-.02-.02-.02,0,0,.01,0,.03.02.05.03-.01,0-.02-.01-.03-.02.01,0,.03.02.03.03.03.03.07.07.1.1,0,0,.01,0,.01.01-.04-.08.03.02,0,0,0,0,0,.02.02.03.02.04.05.08.07.12-.02-.11.08.13,0,0,0,0,0,0,0,0,0,0,0,0,0,.01.02.07.05.33.04.14,0,.03,0,.07,0,.1,0,.18,0,.35,0,.53v9.07Z"/>
                            <path class="cls-36" d="M315.13,247.39s0,0,0,0c.07.13-.03-.11,0,0Z"/>
                            <path class="cls-55" d="M315.83,237.1c0,.56.5,1.03,1.1,1.03.59,0,1.1-.47,1.1-1.03s-.5-1.03-1.1-1.03c-.59,0-1.1.48-1.1,1.03Z"/>
                            <path class="cls-36" d="M314.67,246.98s.04.02.06.03c.04.01.05.02-.06-.03Z"/>
                            <path class="cls-36" d="M288.59,296.12s.02,0,.03-.01c0,0,0,0,.01,0-.01,0-.03.01-.05.02Z"/>
                            <path class="cls-36" d="M287.48,296.73s.02-.01.03-.02c-.08.06-.09.06-.03.02Z"/>
                            <path class="cls-55" d="M307.4,244.9c.37.34.73.69,1.1,1.03v-1.03h-1.1Z"/>
                            <path class="cls-36" d="M289.83,295.8s.04,0,.06,0c.05,0,.07,0-.06,0Z"/>
                            <path class="cls-55" d="M307.4,238.14h1.1v-1.03c-.37.34-.73.69-1.1,1.03Z"/>
                          </g>
                        </g>
                        <rect class="cls-6" x="73.51" y="328.48" width="312.08" height="134.22"/>
                        <rect class="cls-4" x="73.51" y="328.48" width="72.8" height="134.22"/>
                        <path class="cls-6" d="M58.56,307.43h341.98c6.2,0,11.23,5.27,11.23,11.78h0c0,6.51-5.03,11.78-11.23,11.78H58.56c-6.2,0-11.23-5.27-11.23-11.78h0c0-6.51,5.03-11.78,11.23-11.78Z"/>
                        <path class="cls-4" d="M50.8,307.43h105.96c1.92,0,3.48,5.27,3.48,11.78h0c0,6.51-1.56,11.78-3.48,11.78H50.8c-1.92,0-3.48-5.27-3.48-11.78h0c0-6.51,1.56-11.78,3.48-11.78Z"/>
                        <g>
                          <path class="cls-30" d="M140.11,262.81c6.19,4.73,15.3,17.4,56.27,19.52,4.61.24,8.07,4.12,8.07,8.46h0c0,4.47-3.46,10.95-11.6,10.6-19.55-.84-63.82-.05-73.75-22.99-12.57-29.04,17.55-44.12,17.55-44.12"/>
                          <g class="cls-38">
                            <path class="cls-55" d="M194.92,275.74s-14.76,13.04-2.3,30.58c12.45,17.54,20.71-21.42,20.71-21.42l-18.4-9.16Z"/>
                            <path class="cls-17" d="M186.86,276.87s-9.28,15.35-.48,27.86"/>
                            <path class="cls-17" d="M177.69,275.74s-9.28,15.35-.48,27.86"/>
                          </g>
                          <path class="cls-19" d="M140.11,262.81c6.19,4.73,15.3,17.4,56.27,19.52,4.61.24,8.07,4.12,8.07,8.46h0c0,4.47-3.46,10.95-11.6,10.6-19.55-.84-63.82-.05-73.75-22.99-12.57-29.04,17.55-44.12,17.55-44.12"/>
                        </g>
                      </g>
                    </g>
                    <path class="cls-12" d="M157.07,184.76s6.83-9.81,14.46,0"/>
                    <path class="cls-12" d="M200.26,184.76s6.83-9.81,14.46,0"/>
                    <path class="cls-55" d="M182.26,211.01s.03,7.62,8.42,6.41c4.74-.68,4.98-7.1,4.98-7.1l-6.1-1.25-7.29,1.95Z"/>
                  </g>
                </g>
                <circle class="cls-5" cx="226.53" cy="226.53" r="224.81"/>
              </g>
              <path class="cls-30" d="M337.46,194.43c-.14-.17-.35-.27-.57-.27-.37,0-.68.27-.74.64-.22,1.32-.79,2.56-1.67,3.58.19-.6.29-1.22.29-1.85s-.1-1.27-.3-1.87c-.1-.3-.38-.5-.72-.5-.24,0-.46.11-.6.3-.14.19-.18.45-.1.68.15.44.22.91.22,1.39,0,.74-.17,1.44-.52,2.09-.21.4-.48.76-.8,1.08-.56.56-1.26.96-2.02,1.16-.13.04-.27.07-.44.1-.14.02-.27.04-.39.05-.03,0-.07,0-.1,0-.14,0-.29,0-.45,0-1.11-.06-2.15-.52-2.95-1.32-.03-.03-.06-.06-.09-.09-.28-.3-.51-.63-.69-.98-.34-.65-.52-1.35-.52-2.09,0-.47.07-.94.22-1.39.08-.23.04-.49-.1-.68-.14-.19-.36-.3-.62-.3-.32,0-.6.2-.7.5-.2.6-.3,1.23-.3,1.87,0,.31.02.6.07.88.05.33.12.65.22.97-.27-.32-.52-.66-.73-1.02-.25-.42-.46-.86-.61-1.31-.14-.4-.25-.83-.32-1.26-.06-.37-.37-.63-.75-.63-.22,0-.42.1-.56.26-.14.17-.2.39-.17.61.04.26.1.52.16.76.09.35.21.72.36,1.09.07.17.15.35.23.52.26.55.58,1.08.96,1.58.78,1.02,1.78,1.87,2.9,2.47.18.52.29,1.07.35,1.64.02.25.04.5.04.73,0,1.17-.28,2.34-.8,3.37-.36.71-.82,1.35-1.38,1.91-.56.56-1.2,1.03-1.91,1.38-.74.38-1.54.63-2.38.74-.55-.15-1.12-.28-1.69-.39-.88-.17-1.79-.28-2.71-.34h-.07c-.35-.02-.66.19-.76.53-.1.34.04.68.35.86.1.06.21.09.33.1.87.05,1.75.16,2.6.32-1.51.67-2.96,1.53-4.29,2.55-.32.24-.64.5-.98.79-1.26,1.08-2.39,2.3-3.37,3.62l-.04.06c-.17.23-.19.52-.06.78.13.25.38.41.67.41.24,0,.46-.11.6-.31.62-.84,1.3-1.64,2.03-2.37.5-.5,1.02-.97,1.57-1.41.11-.09.22-.18.33-.26,1.2-.93,2.5-1.73,3.88-2.36.69-.32,1.42-.61,2.16-.85.63.21,1.25.44,1.84.71,1.27.56,2.48,1.25,3.6,2.06.2.14.4.29.57.42l.06.05c.38.3.73.59,1.05.88.83.74,1.61,1.57,2.32,2.45.23.28.44.56.65.86.06.08.11.16.17.24l.61.9v-12.03c0-.7.15-1.37.47-1.99.21-.43.49-.83.84-1.18.57-.57,1.28-.97,2.05-1.17.06-.02.17-.03.28-.05.1-.02.21-.03.31-.05.5-.1.83-.56.84-1.17,0-.46-.18-1-.62-1.11-.03,0-.06-.02-.18-.03-.96-.1-1.71-.31-2.32-.64.88-.28,1.71-.7,2.48-1.26.72-.51,1.35-1.14,1.9-1.85.92-1.21,1.48-2.5,1.71-3.94.04-.22-.03-.44-.17-.61ZM326.4,203.03c-.03-.29-.07-.58-.12-.86.72.21,1.46.32,2.23.35.2,0,.39,0,.58,0,.14,0,.37-.02.52-.03.32.33.69.62,1.09.86.42.26.88.47,1.35.61-.23.1-.45.21-.67.34-.87.5-1.6,1.21-2.12,2.06-.17.27-.31.55-.44.86-.3.72-.44,1.48-.44,2.27v5.93c-.45.1-.89.27-1.3.5-.1-.09-.2-.17-.3-.26-.44-.38-.88-.73-1.32-1.05-.04-.03-.08-.06-.11-.08-1.3-.94-2.73-1.75-4.23-2.38l-.05-.02s-.06-.03-.09-.04c.05-.02.1-.04.14-.06.07-.03.14-.06.2-.09.4-.19.78-.41,1.14-.65,1.35-.9,2.42-2.15,3.12-3.61.03-.07.06-.13.09-.2.52-1.15.78-2.38.78-3.65,0-.28-.01-.55-.03-.79ZM313.93,211.66h0s0,0,0,0Z"/>
            </g>
            <g>
              <path class="cls-58" d="M312.77,802.77c-1.28.85-2.61.76-3.89.71-6.69-.19-13.37-.33-20.06-.62-18.35-.76-36.74-.81-55.09-1.42-16.36-.57-32.71-1.61-49.07-2.27-22.66-.95-45.33-1.28-67.94-1.8-1.09,0-2.18-.09-3.27-.28-1.56-.28-2.61-1.71-2.46-3.27,0-1.56,1.18-2.89,2.75-3.08,1.61-.14,3.18-.19,4.79-.09,34.04.66,68.08,1.52,102.08,3.51,19.34,1.14,38.73.95,58.08,1.57,10.48.33,20.96.95,31.38,1.71.71.04,1.37.14,2.04.38.99.33,1.66,1.19,1.8,2.23.14,1.04-.29,2.13-1.14,2.75"/>
              <path class="cls-58" d="M311.44,786.13c-1.28.85-2.65.66-4.08.57-11.33-.95-22.71-1.8-34.09-1.8-20.81,0-41.44-2.13-62.16-3.27-24.42-1.33-48.88-1.56-73.3-2.47-6.4-.24-12.75-.66-19.15-1.04-.81-.05-1.56-.14-2.37-.38-1.42-.38-2.32-1.75-2.13-3.18.14-1.38,1.18-2.42,2.56-2.56.71-.09,1.37-.09,2.09-.04,30.44.9,60.87,1.28,91.26,2.8,6.88.33,13.75.71,20.62,1.37,15.22,1.47,30.48,1.52,45.75,1.99,8.68.29,17.35.85,26.03,1.28,1.8.09,3.6.24,5.36.24,1.18-.05,2.42.24,3.46.85,1.56.95,2.04,2.99,1.09,4.55-.24.52-.57.85-.95,1.09"/>
              <path class="cls-58" d="M114.97,818.8c-1.37-1.99-.57-4.36,1.47-5.12.95-.28,1.99-.38,2.99-.24,30.2,1.37,60.49,1.37,90.69,2.75,11,.48,21.95-.14,32.95-.52,18.87-.66,37.74-.33,56.56,1,2.7.19,5.41.33,8.06.47.71,0,1.37.05,2.09.19,1.61.38,2.51,1.42,2.51,2.89s-1.09,2.7-2.8,2.99c-.9.09-1.8.09-2.7.05-12.56-.33-25.13-.66-37.74-1.04-12.99-.38-25.93.19-38.92.66-13.7.52-27.36-.19-41.01-.66-23.04-.81-46.13-.9-69.17-1.94-.9-.05-1.8-.05-2.7-.19-.9-.05-1.75-.52-2.28-1.28"/>
              <path class="cls-58" d="M305.66,763.94c-.85.71-1.94.62-3.08.48-11.33-1.09-22.66-1.99-33.99-3.27-13.37-1.51-26.83-2.32-40.3-2.51-27.26-.33-54.47-1.56-81.69-3.13-4.98-.28-9.96-.33-14.98-.52-.9,0-1.8-.09-2.65-.28-1.75-.42-2.84-2.23-2.37-3.98.33-1.28,1.33-2.23,2.61-2.42.9-.15,1.8-.15,2.7-.09,4.5.14,8.96.14,13.47.42,31.76,1.9,63.62,2.85,95.44,3.56,16.88.38,33.61,2.79,50.35,4.65,3.89.42,7.73.95,11.57,1.42.99.14,1.99.24,2.84.81,1.33.85,1.75,2.61.9,3.98-.19.33-.47.66-.81.9"/>
              <path class="cls-58" d="M135.88,859.05c-1.56-2.18-.76-4.7,1.47-5.41.66-.19,1.37-.24,2.09-.19,22.52,1.04,45.09.47,67.66.99,14.98.33,29.87,1.9,44.85,2.65,11.05.57,22.09,1.33,33.14,2.56.99.04,1.99.24,2.94.57,1.28.43,2.13,1.71,1.94,3.03-.09,1.37-1.14,2.47-2.51,2.56-.99.09-1.99.05-2.99-.05-24.8-1.47-49.59-3.13-74.44-4.36-17.02-.85-34.14-.42-51.2-.62-6.5-.09-12.99-.38-19.44-.57-1.47-.05-2.85-.19-3.51-1.18"/>
              <path class="cls-58" d="M141.81,730.99c1.04-.76,2.28-.66,3.46-.66,6.97.04,13.99.19,20.96.19,16.07,0,32.1-.99,48.17-.85,23.56.24,47.03,2.37,70.45,4.79,2.09.19,4.17.43,6.12,1.28,1.66.71,2.32,2.13,1.9,3.6-.43,1.52-1.66,2.42-3.51,2.09-8.11-1.42-16.31-1.38-24.46-2.09-19.11-1.66-38.21-3.13-57.37-2.84-12.99.19-25.93.61-38.92.81-7.96.09-15.98-.1-23.94-.14-.9.04-1.8-.09-2.61-.48-1.61-.81-2.27-2.75-1.47-4.36.33-.57.71-.99,1.23-1.33"/>
              <path class="cls-58" d="M270.24,881.57c-.81.48-1.71.71-2.61.66-21.43.33-42.86,1.37-64.29-.52-12.23-1.09-24.51-1.42-36.7-2.84-3.18-.38-6.31-.85-9.48-1.28-.61-.05-1.18-.19-1.75-.33-1.94-.62-2.94-2.04-2.61-3.79.28-1.75,1.66-2.75,3.7-2.75.52,0,1,.05,1.47.14,13.04,2.13,26.22,2.37,39.3,3.65,22.09,2.18,44.28.99,66.38,1.56,1.71.05,3.41,0,5.07.14,1.61.14,2.85,1.61,2.66,3.22-.05.9-.47,1.66-1.14,2.13"/>
              <path class="cls-58" d="M169.26,709.47c1.04-.71,2.28-.61,3.46-.66,13.28-.38,26.55-.15,39.82.38,18.35.66,36.65,2.51,54.9,4.5.38.05.81.09,1.19.14,1.75.42,2.75,1.56,2.65,3.08-.1,1.66-1.23,2.75-3.22,2.84-1.28,0-2.61-.05-3.89-.19-15.5-1.14-31.05-2.46-46.6-3.37-14.56-.85-29.11-1.04-43.71-.66-1.28.04-2.61.19-3.84-.24-1.33-.48-2.18-1.37-2.27-2.85-.09-1.14.47-2.37,1.52-2.99"/>
              <path class="cls-58" d="M304.14,842.83c-.95.62-2.09.81-3.18.62-17.31-2.18-34.71-2.18-52.01-.95-20.86,1.47-41.67,1.47-62.58.95-20.67-.52-41.34-.71-62.01-.28-1,.05-1.99,0-2.99-.19-1.75-.43-2.8-2.18-2.42-3.93.28-1.18,1.18-2.09,2.37-2.37,1.09-.19,2.18-.28,3.27-.28,21.48-.48,42.91-.24,64.38.33,20.58.57,41.1.38,61.68-1.14,12.75-.85,25.55-.81,38.31.14,4.08.24,8.15.76,12.18,1.56.9.09,1.75.38,2.56.76,1.9,1.19,1.99,3.79.43,4.79"/>
            </g>
            <circle class="cls-8" cx="483.91" cy="751.43" r="204.72"/>
            <g>
              <rect class="cls-27" x="186.84" y="390.24" width="185.64" height="234.99" rx="9.1" ry="9.1" transform="translate(559.32 1015.46) rotate(-180)"/>
              <g>
                <polygon class="cls-3" points="202.5 605.59 356.81 605.59 356.81 405.64 202.5 405.64 202.5 436.46 202.5 605.59"/>
                <line class="cls-9" x1="337.71" y1="464.02" x2="226.53" y2="464.02"/>
                <line class="cls-9" x1="337.71" y1="494.51" x2="226.53" y2="494.51"/>
                <line class="cls-9" x1="337.71" y1="524.99" x2="226.53" y2="524.99"/>
                <line class="cls-9" x1="337.71" y1="555.48" x2="226.53" y2="555.48"/>
                <line class="cls-9" x1="337.71" y1="585.97" x2="226.53" y2="585.97"/>
              </g>
              <text class="cls-33" transform="translate(221.48 440.34)"><tspan x="0" y="0">R</tspan><tspan class="cls-50" x="16.92" y="0">E</tspan><tspan x="31.54" y="0">QU</tspan><tspan class="cls-39" x="69.98" y="0">E</tspan><tspan class="cls-57" x="84.96" y="0">S</tspan><tspan class="cls-49" x="100.19" y="0">T</tspan></text>
            </g>
            <g>
              <path class="cls-48" d="M569.39,160.34c-8.98,3.1-16.59,1.73-23.18-5.76-4.87-5.53-7.8-5.16-12.99.04-3.61,3.61-7.47,6.71-12.87,7.25-4.03.4-7.44-.63-7.92-4.96-.42-3.73,1.82-6.35,5.87-6.7,2.95-.25,5.02-1.99,6.69-4.09,8.45-10.6,21.89-9.05,29.97.44,1.35,1.59,2.84,3.38,5.31,3.43,4.46,1.16,6.23-2.61,8.63-4.92,6.02-5.8,12.82-7.6,20.8-4.94,3.37,1.12,5.49,3.76,7.86,6.12,5.46,5.45,8.14,5.53,13.47.1,3.48-3.55,7.24-6.46,12.34-7.17,3.74-.52,7.29-.36,8.58,4.01,1.15,3.89-.84,6.38-5.99,7.31-3.15.57-4.9,2.75-6.9,4.72-9.23,9.13-19.89,9.14-29.22,0-6.61-6.48-7.62-6.43-14.23.04-1.91,1.86-4.14,3.39-6.23,5.08"/>
              <path class="cls-48" d="M556.56,122.68c-2.93-1.73-5.11-4.29-7.53-6.6-4.65-4.45-7.33-4.42-11.93.1-8.22,8.07-15.65,9.98-23.94,6.27-2.54-1.14-4.37-3.11-6.3-4.96-6.61-6.34-8.18-6.44-14.74.29-3.99,4.09-8.53,6.54-14.28,6.18-5.02-.31-7.19-4.87-4.52-9.04.68-1.06,1.48-2.08,2.68-2.05,4.45.14,6.83-2.88,9.61-5.62,8.59-8.46,19.61-8.32,28.16.14,6.93,6.86,8.21,7.07,14.97-.06,5.81-6.13,12.79-6.69,20.39-5.72,3.38,2.16,6.71,4.34,9.55,7.27,4.97,5.11,7.15,5.11,12.11,0,3.7-3.81,7.5-7.04,13.13-7.63,3.93-.41,6.91.6,7.64,4.57.68,3.68-1.57,6.15-5.15,6.8-2.28.42-4.4,1.19-5.72,2.84-6.44,8.04-14.45,10.32-24.16,7.22"/>
            </g>
            <g>
              <line class="cls-21" x1="370.28" y1="625.23" x2="387.73" y2="650.15"/>
              <circle class="cls-21" cx="390.34" cy="653.88" r="4.55"/>
            </g>
            <g class="cls-43">
              <g>
                <g>
                  <path class="cls-60" d="M592.22,769.67s19.71,42.78,18.87,71.29c-.84,28.52-10.06,170.26-2.1,192.49,7.97,22.23,18.87,89.75,20.13,106.1,1.26,16.36,6.71,60.39,7.55,65.84.84,5.45.84,11.32-2.94,11.32s-63.74,0-63.74,0c0,0-4.19-.42-3.35-2.94.84-2.52,9.65-6.29,17.61-13.84,7.97-7.55,22.23-16.77,23.07-23.07.84-6.29-5.45-33.55-12.16-49.07-6.71-15.52-17.19-29.36-17.19-29.36,0,0-31.03-54.94-38.58-101.49-7.55-46.55-22.65-123.29-22.65-123.29v-98.13s75.49-5.87,75.49-5.87Z"/>
                  <path class="cls-42" d="M633.74,1218.38h-63.91c-.54-.06-3.28-.42-4.45-2.23-.39-.6-.76-1.59-.32-2.9.59-1.76,2.8-3.23,6.46-5.67,3.37-2.25,7.57-5.05,11.59-8.85,2.45-2.32,5.51-4.82,8.47-7.24,6.37-5.2,13.59-11.1,14.09-14.84.74-5.57-5.04-32-12.04-48.18-6.55-15.14-16.89-28.87-16.99-29.01l-.12-.19c-.31-.55-31.27-55.73-38.78-102.04-7.46-45.99-22.49-122.47-22.64-123.24l-.03-.32v-99.67l78.18-6.08.49,1.05c.81,1.76,19.86,43.46,19.02,72.04-.17,5.71-.67,15.89-1.3,28.77-2.5,50.89-7.16,145.63-.89,163.1,7.87,21.94,18.89,89.16,20.22,106.53,1.25,16.3,6.7,60.25,7.53,65.72.91,5.89.51,9.72-1.2,11.72-.85,1-2.02,1.52-3.38,1.52ZM570.09,1215.05h63.65c.48,0,.69-.17.85-.36.36-.42,1.47-2.33.44-9.04-.84-5.48-6.3-49.61-7.56-65.97-1.33-17.26-12.25-83.94-20.04-105.67-6.49-18.1-1.81-113.27.7-164.39.63-12.87,1.13-23.04,1.3-28.71.75-25.34-15.27-62.76-18.25-69.49l-72.78,5.66v96.43c.78,3.96,15.32,78.16,22.62,123.19,7.27,44.85,36.91,98.28,38.34,100.84.94,1.26,10.9,14.75,17.32,29.61,6.85,15.85,13.17,43.3,12.28,49.95-.67,5.05-7.77,10.84-15.29,16.98-3.05,2.49-5.93,4.84-8.28,7.07-4.22,4-8.74,7.01-12.03,9.2-2.16,1.44-4.86,3.24-5.15,3.96-.02.07-.02.1-.02.1.15.19,1.09.53,1.9.63Z"/>
                </g>
                <g>
                  <path class="cls-60" d="M591.8,868.64l-10.9,13.42s-.97,151.56-3.97,246.08c-1.33,41.82-5.84,72.49-6.1,73.9-.84,4.61,1.19,13-3.42,14.68-4.61,1.68-74.17,0-74.17,0,0,0-5.03-5.45-2.1-7.97,2.94-2.52,26.51-10.08,37-18.47,10.48-8.39,14.96-11.22,15.8-16.25.84-5.03-3.31-78.09-10.86-108.29-7.55-30.19-16.36-83.04-22.23-109.88-5.87-26.84-11.74-59.55-7.55-120.78,1.1-16.1,5.45-57.45,5.03-59.13-.42-1.68,72.55-5.87,72.55-5.87"/>
                  <path class="cls-42" d="M545.15,1219.13c-19.26,0-44.67-.58-51.94-.75l-.71-.02-.48-.52c-.37-.4-3.64-4.05-3.45-7.33.07-1.21.59-2.25,1.49-3.03,1.21-1.03,4.31-2.35,10.14-4.79,8.61-3.59,20.39-8.51,26.9-13.72,1.46-1.16,2.8-2.22,4.03-3.19,7.24-5.72,10.55-8.33,11.17-12.03.76-4.55-3.24-77.26-10.83-107.61-4.57-18.28-9.66-45.15-14.15-68.85-2.97-15.67-5.77-30.46-8.09-41.07-6.12-27.99-11.75-60.4-7.58-121.25.5-7.35,1.66-19.68,2.77-31.6,1.12-11.93,2.38-25.44,2.28-27.1l-.17-.67.48-.69c.67-.91,1.25-1.69,37.97-4.22,17.78-1.22,35.64-2.25,35.81-2.26.93-.04,1.71.65,1.76,1.57.05.92-.65,1.71-1.57,1.76-24.72,1.42-64.2,4.04-70.98,5.36-.09,2.73-.68,9.55-2.28,26.58-1.11,11.9-2.26,24.21-2.76,31.52-4.14,60.41,1.44,92.56,7.51,120.31,2.33,10.66,5.14,25.48,8.11,41.16,4.48,23.66,9.56,50.48,14.11,68.66,7.3,29.2,11.87,103.06,10.88,108.96-.83,4.97-4.45,7.83-12.39,14.09-1.23.97-2.56,2.02-4.01,3.18-6.87,5.5-18.91,10.52-27.69,14.19-4.13,1.72-8.4,3.5-9.26,4.24-.22.19-.32.39-.34.7-.07,1.26,1.21,3.22,2.13,4.36,26.72.64,69.5,1.21,72.82.08,1.97-.71,2.1-3.85,2.08-8.19,0-1.89-.02-3.68.26-5.22.05-.25,4.71-30.77,6.07-73.66,2.96-93.42,3.96-244.52,3.97-246.04v-.58s11.28-13.87,11.28-13.87c.58-.71,1.63-.82,2.34-.24s.82,1.63.24,2.34l-10.53,12.97c-.07,10.43-1.09,155.03-3.97,245.54-1.37,43.1-6.08,73.9-6.12,74.15-.23,1.24-.22,2.88-.21,4.61.02,4.35.05,9.76-4.28,11.34-1.76.64-11.17.85-22.83.85ZM506.73,776.34s0,.02,0,.02v-.02ZM509.97,775.56c.02.08.04.18.05.31,0-.1-.02-.2-.05-.31Z"/>
                </g>
              </g>
            </g>
          </g>
          <g>
            <polygon class="cls-22" points="493.61 692.4 505.83 704.26 504.39 727.27 483.91 701.75 493.61 692.4"/>
            <g>
              <path class="cls-24" d="M507.85,497.36s-10.11,19.74-8.18,29.85c1.93,10.11,1.93,19.26-1.44,24.55-3.37,5.29-6.44,9.47-3.07,13.32,3.37,3.85,6.44,5.93,6.44,5.93,0,0,2.89,13,5.3,21.18,2.41,8.18,1.93,9.63,10.59,10.59,8.66.96,13.48.48,13.48.48,0,0,3.85-19.26,6.74-56.32,2.89-37.07-29.85-49.58-29.85-49.58Z"/>
              <path class="cls-42" d="M504.18,543.56c0,3.26.85,5.91,1.9,5.91s1.9-2.65,1.9-5.91c0-3.26-.85-5.91-1.9-5.91s-1.9,2.65-1.9,5.91Z"/>
              <path class="cls-20" d="M512.2,533s-7.32-11.6-12.53-5.8"/>
              <path class="cls-26" d="M504.18,580.29s5.91-.42,8.44-4.22"/>
            </g>
            <g>
              <path class="cls-51" d="M459.99,771.14c-1.86,0-3.62-.89-4.72-2.38l-70-94.65c-1.08-1.46-1.42-3.31-.94-5.06s1.73-3.16,3.41-3.85l55.02-22.75c.72-.3,1.47-.45,2.24-.45,1.9,0,3.69.93,4.79,2.48l62.2,87.82c.89,1.25,1.21,2.77.92,4.28-.3,1.51-1.17,2.79-2.47,3.61l-47.31,30.04c-.94.6-2.03.92-3.14.92h0Z"/>
              <path class="cls-42" d="M445.02,643.66c1.33,0,2.63.63,3.43,1.78l62.2,87.82c1.28,1.81.79,4.33-1.09,5.52l-47.31,30.04c-.7.44-1.48.66-2.25.66-1.29,0-2.56-.6-3.39-1.71l-70-94.65c-1.63-2.2-.75-5.34,1.77-6.39l55.02-22.75c.52-.22,1.07-.32,1.61-.32M445.02,640.33c-.99,0-1.96.19-2.88.57l-55.02,22.75c-2.16.89-3.76,2.7-4.38,4.95s-.19,4.62,1.2,6.5l70,94.65c1.42,1.91,3.68,3.06,6.06,3.06,1.43,0,2.83-.41,4.04-1.17l47.31-30.04c1.66-1.05,2.83-2.77,3.21-4.7.38-1.93-.05-3.96-1.19-5.56l-62.2-87.82c-1.41-1.99-3.71-3.18-6.15-3.18h0Z"/>
            </g>
            <g>
              <polygon class="cls-23" points="445.41 649.66 391.48 671.96 458.39 762.62 504.6 733.28 445.41 649.66"/>
              <path class="cls-22" d="M495.05,695.64s-8.27-10.42-10.42-12.22c-2.16-1.8-14.02-7.19-16.17-10.06-2.16-2.88-2.88,5.03,1.08,7.55,3.95,2.52,8.27,6.11,8.27,6.11,0,0,1.8,6.47,6.11,9.7,4.31,3.23,8.27,3.23,8.27,3.23"/>
            </g>
            <rect class="cls-51" x="415.45" y="670.35" width="27.18" height="3.25" transform="translate(-240.18 238.65) rotate(-24.52)"/>
            <polygon class="cls-51" points="435.18 680.03 448.77 698.87 431.36 708.62 416.67 689.32 435.18 680.03"/>
            <polygon class="cls-51" points="454.04 669.57 482.75 710.38 475.71 714.32 446.72 673.51 454.04 669.57"/>
            <path class="cls-29" d="M543.61,626.76s-40.68,61.23-40.68,78c0,16.77-4.61,71.29,1.26,73.81,5.87,2.52,43.2,4.19,57.45,2.52,14.26-1.68,29.36-4.61,33.13-9.23,3.77-4.61,5.62-6.03,7.29-23.65,1.68-17.61,10.3-59.33,10.72-82.82.42-23.48-33.11-50.38-44.85-47.86-11.74,2.52-24.32,9.23-24.32,9.23Z"/>
            <path class="cls-22" d="M581.6,688.7c-5.7,0-11-1.27-15.73-3.51-3.69-.32-7.25-1.13-10.66-2.5-2.92,24-6.97,63.26-6.97,63.26l-62.54-21.84-8.06-14.94s-4.24-9.32-7.2-11.86c-2.97-2.54-16.95-12.71-18.64-8.9-1.7,3.81,0,4.24,2.54,5.51,2.54,1.27,10.59,10.59,10.59,10.59,0,0-7.63,2.54-8.9,3.81-1.27,1.27-3.81,4.66-2.97,7.63.85,2.97,1.69,8.47,3.81,9.32,2.12.85,3.39-2.97,3.39-2.97,0,0,9.32,9.75,11.44,11.02,2.12,1.27,4.66,1.69,4.66,1.69,0,0,75.51,46.23,81.02,49.2,5.51,2.97,12.71,5.08,15.68,2.12,2.39-2.39,18.95-70.56,26.44-102.42-5.48,3.03-11.65,4.79-17.91,4.79Z"/>
            <path class="cls-29" d="M601.53,675.23c-1.75,7.58-4.73,20.19-8.13,34.26h-41.27c2.15-19.52,4.58-40.36,5.56-44.31"/>
            <path class="cls-10" d="M502.37,495.8s-1.93,3.33,10.35,23.69c12.27,20.37,14.06,29.62,8.98,42.23-5.08,12.6-3.35,25.9,4.51,37.72,7.86,11.81,11.89,6.94,9.63,25.56-2.26,18.62,15.81,24.52,26.04,23.54,10.23-.98,21.82-20.49,31.36-14.67,9.53,5.82-1.74,23.95,8.19,29.29,9.94,5.33,37.67-4.96,42.35-17.07,4.67-12.12-5.12-20.6,2.76-32.13,7.87-11.53,19.22-14.86,11.08-34.27-8.14-19.42-30.95-18.58-31.74-31.52-.79-12.94-2.4-53.18-16.11-69.82-13.71-16.64-43.28-16.05-60.37-11.72-17.09,4.33-47.75,21.63-47.02,29.19Z"/>
          </g>
        </g>
      </g>
    </g>
  </g>
</svg>