<svg width="233" height="480" viewBox="0 0 233 480" fill="none" xmlns="http://www.w3.org/2000/svg">
<g clip-path="url(#clip0_2054_188)">
<path d="M181.461 474.255C181.461 477.428 152.483 480 116.737 480C80.9906 480 51.2902 477.367 52.0129 474.255C52.5722 471.847 81.0656 468.613 116.737 468.511C152.483 468.409 181.461 471.082 181.461 474.255Z" fill="#F7F7F7"/>
<path d="M100.473 456.31C100.338 457.371 100.075 459.38 99.7718 461.705C98.787 469.256 92.3587 474.933 84.7095 475C76.6556 475.067 69.9238 468.907 69.3032 460.905L68.939 456.202L100.467 456.31H100.473Z" fill="#121212"/>
<path d="M166.213 455.577C166.078 456.639 165.815 458.648 165.512 460.972C164.527 468.524 158.098 474.201 150.449 474.268C142.395 474.335 135.664 468.174 135.043 460.173L134.679 455.47L166.206 455.577H166.213Z" fill="#121212"/>
<path d="M152.695 215.615C166.989 221.614 178.078 233.351 183.198 247.937C192.378 274.079 203.245 314.208 208.58 334.497C210.422 341.505 206.22 348.667 199.191 350.507C192.891 352.16 186.328 348.982 183.744 343.03L149.835 264.962" fill="white"/>
<mask id="mask0_2054_188" style="mask-type:luminance" maskUnits="userSpaceOnUse" x="149" y="215" width="61" height="136">
<path d="M152.695 215.615C166.989 221.614 178.078 233.351 183.198 247.937C192.378 274.079 203.245 314.208 208.58 334.497C210.422 341.505 206.22 348.667 199.191 350.507C192.891 352.16 186.328 348.982 183.744 343.03L149.835 264.962" fill="white"/>
</mask>
<g mask="url(#mask0_2054_188)">
<path d="M168.938 232.424C175.292 241.958 192.729 346.1 191.609 351.865L179.9 356.252L143.623 270.934C143.623 270.934 142.193 230.704 142.085 231.712C141.984 232.72 144.702 217.792 144.702 217.792L168.938 232.424Z" fill="#E8EAF5"/>
<path d="M210.921 328.975C199.528 332.509 189.761 337.447 182.179 344.259L186.55 358.254L214.698 350.958L210.921 328.968V328.975Z" fill="#121212"/>
</g>
<path d="M152.695 215.615C166.989 221.614 178.078 233.351 183.198 247.937C192.378 274.079 203.245 314.208 208.58 334.497C210.422 341.505 206.22 348.667 199.191 350.507C192.891 352.16 186.328 348.982 183.744 343.03L149.835 264.962" stroke="#121212" stroke-width="4.29" stroke-linecap="round" stroke-linejoin="round"/>
<path d="M163.798 258.143C170.415 290.378 176.52 322.25 169.417 344.884L70.2675 347.847C65.8696 322.539 61.3705 282.934 66.3283 241.642C66.3283 241.642 92.2033 219.794 93.2488 219.78C94.2943 219.767 151.11 219.062 151.11 219.062" fill="white"/>
<mask id="mask1_2054_188" style="mask-type:luminance" maskUnits="userSpaceOnUse" x="64" y="219" width="109" height="129">
<path d="M163.798 258.143C170.415 290.378 176.52 322.25 169.417 344.884L70.2675 347.847C65.8696 322.539 61.3705 282.934 66.3283 241.642C66.3283 241.642 92.2033 219.794 93.2488 219.78C94.2943 219.767 151.11 219.062 151.11 219.062" fill="white"/>
</mask>
<g mask="url(#mask1_2054_188)">
<path d="M60.9184 323.069C70.7665 304.48 80.0076 285.567 88.6079 266.373C91.387 285.99 94.7866 305.245 97.5589 324.863C85.242 326.838 73.1611 325.461 60.9116 323.076L60.9184 323.069Z" fill="#E8EAF5"/>
<path d="M160.162 251.471C160.162 251.471 147.879 254.172 141.99 247.991C136.102 241.817 137.269 242.26 137.269 242.26L130.996 242.341C130.996 242.341 128.068 250.013 117.66 253.849C107.252 257.686 97.9097 254.326 97.9097 254.326L93.1543 227.298L161.707 226.452L160.162 251.471Z" fill="#E8EAF5"/>
</g>
<path d="M163.798 258.143C170.415 290.378 176.52 322.25 169.417 344.884L70.2675 347.847C65.8696 322.539 61.3705 282.934 66.3283 241.642C66.3283 241.642 92.2033 219.794 93.2488 219.78C94.2943 219.767 151.11 219.062 151.11 219.062" stroke="#121212" stroke-width="4.29" stroke-linecap="round" stroke-linejoin="round"/>
<path d="M196.27 312.172C188.061 314.316 178.699 319.381 174.078 327.114" stroke="#121212" stroke-width="4.29" stroke-linecap="round" stroke-linejoin="round"/>
<path d="M100.102 457.223H69.5057C63.2191 413.963 60.5547 364.979 62.1466 325.031C106.861 331.79 145.377 332.086 176.129 323.271C175.947 364.247 172.082 409.885 165.242 456.397L135.657 457.203C132.244 407.419 120.089 385.773 120.089 385.773C120.089 385.773 108.925 408.85 100.116 457.223H100.102Z" fill="#5B5F97"/>
<mask id="mask2_2054_188" style="mask-type:luminance" maskUnits="userSpaceOnUse" x="61" y="323" width="116" height="135">
<path d="M100.102 457.223H69.5057C63.2191 413.963 60.5547 364.979 62.1466 325.031C106.861 331.79 145.377 332.086 176.129 323.271C175.947 364.247 172.082 409.885 165.242 456.397L135.657 457.203C132.244 407.419 120.089 385.773 120.089 385.773C120.089 385.773 108.925 408.85 100.116 457.223H100.102Z" fill="white"/>
</mask>
<g mask="url(#mask2_2054_188)">
<g style="mix-blend-mode:multiply">
<path d="M62.2881 304.197C55.5428 321.417 52.7435 340.161 54.16 358.59C54.6322 364.737 55.5698 370.844 56.0622 376.991C56.9661 388.231 56.386 399.559 57.5866 410.772C59.536 428.945 65.5731 445.661 64.8378 463.921C67.7046 463.995 70.5714 464.062 73.4381 464.136C81.3234 464.331 81.492 462.578 80.487 455.396C79.5156 448.462 81.7686 415.018 79.2458 397.066C75.3875 369.601 79.3538 338.025 84.3723 310.748C77.2897 307.268 70.0385 305.655 62.2814 304.197H62.2881Z" fill="#E8EAF5"/>
</g>
<g style="mix-blend-mode:multiply">
<path d="M134.213 380.848C138.368 396.744 141.201 412.982 142.692 429.341C143.448 437.659 143.859 446.01 143.92 454.361C143.94 457.505 144.722 460.193 141.599 461.509C138.476 462.826 132.237 461.207 129.073 460.495C126.901 451.022 125.64 441.623 123.468 432.15C120.871 420.829 117.68 409.361 117.984 397.644C118.132 391.994 119.11 386.122 122.18 381.264C123.596 379.02 125.694 376.36 128.115 375.117C132.318 372.96 133.208 376.998 134.213 380.848Z" fill="#E8EAF5"/>
</g>
</g>
<path d="M100.102 457.223H69.5057C63.2191 413.963 60.5547 364.979 62.1466 325.031C106.861 331.79 145.377 332.086 176.129 323.271C175.947 364.247 172.082 409.885 165.242 456.397L135.657 457.203C132.244 407.419 120.089 385.773 120.089 385.773C120.089 385.773 108.925 408.85 100.116 457.223H100.102Z" stroke="#121212" stroke-width="4.29" stroke-linecap="round" stroke-linejoin="round"/>
<path d="M175.987 329.761C176.857 300.334 180.655 258.975 167.252 223.112L153.222 214.661C164.237 239.022 162.773 291.855 162.962 330.177" fill="#5B5F97"/>
<path d="M175.987 329.761C176.857 300.334 180.655 258.975 167.252 223.112L153.222 214.661C164.237 239.022 162.773 291.855 162.962 330.177" stroke="#121212" stroke-width="4.29" stroke-linecap="round" stroke-linejoin="round"/>
<path d="M138.874 216.435L143.481 222.629L135.502 235.024L127.158 227.345C127.158 227.345 117.154 236.153 116.109 236.16C115.063 236.173 100.945 222.112 100.945 222.112L106.807 216.831L138.874 216.435Z" fill="#E8EAF5" stroke="#121212" stroke-width="4.29" stroke-linejoin="round"/>
<path d="M133.869 267.192C136.756 267.192 139.097 264.861 139.097 261.986C139.097 259.11 136.756 256.779 133.869 256.779C130.982 256.779 128.642 259.11 128.642 261.986C128.642 264.861 130.982 267.192 133.869 267.192Z" fill="#121212"/>
<path d="M134.605 298.433C137.492 298.433 139.832 296.102 139.832 293.226C139.832 290.351 137.492 288.02 134.605 288.02C131.717 288.02 129.377 290.351 129.377 293.226C129.377 296.102 131.717 298.433 134.605 298.433Z" fill="#121212"/>
<path d="M88.3251 331.474C91.1446 295.806 85.9575 227.09 77.0132 224.49C79.0031 220.573 86.3959 216.81 91.5156 216.192C104.804 242.206 104.858 293.542 103.549 332.334" fill="#5B5F97"/>
<path d="M88.3251 331.474C91.1446 295.806 85.9575 227.09 77.0132 224.49C79.0031 220.573 86.3959 216.81 91.5156 216.192C104.804 242.206 104.858 293.542 103.549 332.334" stroke="#121212" stroke-width="4.29" stroke-linecap="round" stroke-linejoin="round"/>
<path d="M205.349 323.002C196.291 324.568 185.984 330.708 180.952 336.271" stroke="#121212" stroke-width="4.29" stroke-linecap="round" stroke-linejoin="round"/>
<path d="M120.075 385.773C122.416 378.94 125.937 375.346 132.291 374.25" stroke="#121212" stroke-width="4.29" stroke-linecap="round" stroke-linejoin="round"/>
<path d="M71.0503 326.482C69.3438 360.437 69.6136 410.967 76.1026 457.586" stroke="#121212" stroke-width="4.29" stroke-linecap="round" stroke-linejoin="round"/>
<path d="M124.534 378.577C132.682 382.581 141.168 423.026 143.636 457.499" stroke="#121212" stroke-width="4.29" stroke-linecap="round" stroke-linejoin="round"/>
<path d="M176.479 313.885C149.829 320.234 111.63 323.835 66.8882 314.208L61.4717 327.006C99.9807 339.953 148.877 336.063 176.209 328.545L176.479 313.885Z" fill="#5B5F97"/>
<mask id="mask3_2054_188" style="mask-type:luminance" maskUnits="userSpaceOnUse" x="61" y="313" width="116" height="23">
<path d="M176.479 313.885C149.829 320.234 111.63 323.835 66.8882 314.208L61.4717 327.006C99.9807 339.953 148.877 336.063 176.209 328.545L176.479 313.885Z" fill="white"/>
</mask>
<g mask="url(#mask3_2054_188)">
<g style="mix-blend-mode:multiply">
<path d="M86.3415 314.644C85.2083 321.907 84.4596 329.23 84.0954 336.573C76.0414 334.182 68.5002 332.435 60.453 330.043C59.9809 329.902 59.4884 329.747 59.1309 329.411C58.5778 328.881 58.4969 328.041 58.4429 327.282C58.0652 321.275 57.9977 314.752 61.5323 309.868C61.964 309.27 62.4766 308.685 63.1511 308.389C64.0618 307.993 65.1073 308.175 66.0786 308.376C73.114 309.814 79.5827 312.246 86.3483 314.651L86.3415 314.644Z" fill="#E8EAF5"/>
</g>
</g>
<path d="M176.479 313.885C149.829 320.234 111.63 323.835 66.8882 314.208L61.4717 327.006C99.9807 339.953 148.877 336.063 176.209 328.545L176.479 313.885Z" stroke="#121212" stroke-width="4.29" stroke-linecap="round" stroke-linejoin="round"/>
<path d="M80.0417 115.282C69.6404 92.0628 47.8531 83.0131 10.5177 84.6591C5.9714 84.8607 2.37615 88.5961 2.45035 93.1244C2.95625 125.521 20.8988 145.945 58.7198 149.116L80.0484 115.282H80.0417Z" fill="white"/>
<mask id="mask4_2054_188" style="mask-type:luminance" maskUnits="userSpaceOnUse" x="2" y="84" width="79" height="66">
<path d="M80.0417 115.282C69.6404 92.0628 47.8531 83.0131 10.5177 84.6591C5.9714 84.8607 2.37615 88.5961 2.45035 93.1244C2.95625 125.521 20.8988 145.945 58.7198 149.116L80.0484 115.282H80.0417Z" fill="white"/>
</mask>
<g mask="url(#mask4_2054_188)">
<path d="M53.8362 143.459C35.2934 141.457 17.9646 130.647 15.8601 108.127C15.5633 104.942 17.877 102.087 21.0675 101.717C38.4704 99.7287 55.934 105.533 64.3994 114.328L53.8362 143.459Z" fill="#43B5A0"/>
<g style="mix-blend-mode:multiply">
<path d="M70.4162 94.6494C59.165 97.4107 49.7621 105.439 43.2191 114.973C36.6762 124.499 32.6762 135.504 29.1079 146.489C30.7807 146.697 31.57 148.041 33.0674 148.807C37.6475 151.131 42.7065 152.334 47.7115 153.516C54.0184 155.001 60.8446 152.253 65.6001 147.873C70.3622 143.492 73.6067 137.755 76.7366 132.105C79.745 126.663 82.7669 121.086 83.8596 114.966C84.9456 108.852 83.7989 101.999 79.3942 97.6055C77.2425 95.4556 73.4516 94.8644 70.4095 94.6561L70.4162 94.6494Z" fill="#E8EAF5"/>
</g>
</g>
<path d="M80.0417 115.282C69.6404 92.0628 47.8531 83.0131 10.5177 84.6591C5.9714 84.8607 2.37615 88.5961 2.45035 93.1244C2.95625 125.521 20.8988 145.945 58.7198 149.116L80.0484 115.282H80.0417Z" stroke="#121212" stroke-width="4.29" stroke-linecap="round" stroke-linejoin="round"/>
<path d="M158.976 110.411C176.696 90.2353 198.834 81.9112 224.972 84.3164C228.324 84.6254 230.8 87.5614 230.53 90.9072C227.629 126.441 210.449 145.071 179.083 146.885L158.976 110.404V110.411Z" fill="white"/>
<mask id="mask5_2054_188" style="mask-type:luminance" maskUnits="userSpaceOnUse" x="158" y="83" width="73" height="64">
<path d="M158.976 110.411C176.696 90.2353 198.834 81.9112 224.972 84.3164C228.324 84.6254 230.8 87.5614 230.53 90.9072C227.629 126.441 210.449 145.071 179.083 146.885L158.976 110.404V110.411Z" fill="white"/>
</mask>
<g mask="url(#mask5_2054_188)">
<path d="M178.901 142.955C200.985 141.504 212.729 128.618 216.331 106.749C216.87 103.477 214.469 100.414 211.15 100.178C196.843 99.1841 181.7 105.211 165.889 116.739L178.901 142.955Z" fill="#43B5A0"/>
<g style="mix-blend-mode:multiply">
<path d="M169.262 93.8969C172.324 95.8385 175.137 98.1295 177.835 100.548C191.4 112.715 201.963 128.174 208.351 145.206C207.225 144.984 206.348 144.581 205.282 145.004C196.769 148.424 187.656 150.359 178.49 150.688C171.016 137.681 163.056 124.284 155.583 111.277C155.677 110.33 156.014 109.873 156.581 109.114C159.529 105.164 162.469 101.213 165.417 97.2628C166.496 95.8116 167.69 94.8038 169.255 93.8901L169.262 93.8969Z" fill="#E8EAF5"/>
</g>
</g>
<path d="M158.976 110.411C176.696 90.2353 198.834 81.9112 224.972 84.3164C228.324 84.6254 230.8 87.5614 230.53 90.9072C227.629 126.441 210.449 145.071 179.083 146.885L158.976 110.404V110.411Z" stroke="#121212" stroke-width="4.29" stroke-linecap="round" stroke-linejoin="round"/>
<path d="M162.112 95.0257C187.285 72.3375 194.611 35.9169 166.995 3.54075C166.233 2.6472 166.334 1.30352 167.218 0.530896C168.115 -0.248443 169.471 -0.161103 170.267 0.72573C204.23 38.5505 196.749 78.7402 175.656 105.338L162.119 95.0189L162.112 95.0257Z" fill="#121212"/>
<path d="M177.43 78.6999C176.499 64.7793 172.021 49.0447 154.071 39.8338C153.134 39.3568 152.776 38.2079 153.275 37.2875C153.747 36.4141 154.827 36.0714 155.731 36.4947C170.469 43.4348 180.371 53.0825 184.391 66.0424L177.43 78.6932V78.6999Z" fill="#121212"/>
<path d="M80.669 96.0135C55.4955 73.3253 48.1701 36.9047 75.7854 4.52855C76.5476 3.635 76.4464 2.29131 75.5628 1.51869C74.6657 0.73935 73.3099 0.82669 72.5139 1.71352C38.5513 39.5383 46.0318 79.728 67.1244 106.326L80.6622 96.0067L80.669 96.0135Z" fill="#121212"/>
<path d="M65.3572 79.6877C66.288 65.7671 70.7669 50.0325 88.7162 40.8216C89.6538 40.3445 90.0113 39.1957 89.5121 38.2753C89.04 37.4019 87.9607 37.0592 87.0568 37.4825C72.3183 44.4226 62.4162 54.0703 58.396 67.0302L65.3572 79.681V79.6877Z" fill="#121212"/>
<path d="M191.319 160.786C191.319 160.786 194.442 114.066 168.318 94.6428C140.669 74.0776 89.1076 77.9878 64.7368 99.2248C40.366 120.468 35.2598 184.24 54.7942 201.385C71.4147 215.971 103.617 222.804 146.18 218.242C185.781 213.996 195.67 202.171 197.653 193.108C199.947 182.601 191.319 160.786 191.319 160.786Z" fill="white"/>
<mask id="mask6_2054_188" style="mask-type:luminance" maskUnits="userSpaceOnUse" x="42" y="81" width="157" height="139">
<path d="M191.319 160.786C191.319 160.786 194.442 114.066 168.318 94.6428C140.669 74.0776 89.1076 77.9878 64.7368 99.2248C40.366 120.468 35.2598 184.24 54.7942 201.385C71.4147 215.971 103.617 222.804 146.18 218.242C185.781 213.996 195.67 202.171 197.653 193.108C199.947 182.601 191.319 160.786 191.319 160.786Z" fill="white"/>
</mask>
<g mask="url(#mask6_2054_188)">
<path d="M197.026 206.048C161.336 213.398 124.257 213.982 88.3521 207.768C78.2004 206.008 56.3793 197.831 49.6542 171.818C47.2124 162.378 47.4013 135.847 47.2799 126.099C42.3828 141.558 31.8331 174.942 31.6038 191.153C31.5161 197.415 32.3323 204.187 36.602 208.776C40.6425 213.116 46.8617 214.54 52.6964 215.702C90.8209 223.287 129.923 228.756 168.513 224.1C174.456 223.382 180.473 222.394 185.822 219.72C191.171 217.046 195.657 211.846 197.026 206.048Z" fill="#E8EAF5"/>
</g>
<path d="M191.319 160.786C191.319 160.786 194.442 114.066 168.318 94.6428C140.669 74.0776 89.1076 77.9878 64.7368 99.2248C40.366 120.468 35.2598 184.24 54.7942 201.385C71.4147 215.971 103.617 222.804 146.18 218.242C185.781 213.996 195.67 202.171 197.653 193.108C199.947 182.601 191.319 160.786 191.319 160.786Z" stroke="#121212" stroke-width="4.29" stroke-linecap="round" stroke-linejoin="round"/>
<path d="M137.316 183.514C144.495 183.514 150.314 180.494 150.314 176.769C150.314 173.043 144.495 170.023 137.316 170.023C130.137 170.023 124.318 173.043 124.318 176.769C124.318 180.494 130.137 183.514 137.316 183.514Z" fill="#121212"/>
<path d="M172.756 187.156C189.412 187.156 202.914 173.418 202.914 156.473C202.914 139.527 189.412 125.79 172.756 125.79C156.1 125.79 142.598 139.527 142.598 156.473C142.598 173.418 156.1 187.156 172.756 187.156Z" stroke="#43B5A0" stroke-width="4.29" stroke-miterlimit="10"/>
<path d="M99.0296 188.99C117.705 188.99 132.844 174.585 132.844 156.815C132.844 139.046 117.705 124.641 99.0296 124.641C80.3545 124.641 65.2153 139.046 65.2153 156.815C65.2153 174.585 80.3545 188.99 99.0296 188.99Z" stroke="#43B5A0" stroke-width="4.29" stroke-miterlimit="10"/>
<path d="M143.778 164.797C140.567 161.868 135.063 161.915 131.899 164.898" stroke="#43B5A0" stroke-width="4.29" stroke-linecap="round" stroke-linejoin="round"/>
<path d="M122.699 183.79C122.699 183.79 127.899 193.558 137.835 186.322C137.835 186.322 145.484 193.605 151.643 183.79" stroke="#121212" stroke-width="4.29" stroke-linecap="round" stroke-linejoin="round"/>
<path d="M137.835 179.087V186.323" stroke="#121212" stroke-width="4.29" stroke-linecap="round" stroke-linejoin="round"/>
<path d="M94.6383 335.196C95.4815 346.645 85.1342 355.802 72.5879 355.956" stroke="#121212" stroke-width="4.29" stroke-linecap="round" stroke-linejoin="round"/>
<path d="M129.08 224.483C129.08 224.483 119.144 210.489 100.514 207.707C81.8832 204.926 87.0771 254.212 102.004 252.6C118.949 250.772 129.687 236.052 129.91 235.354C130.132 234.655 129.073 224.483 129.073 224.483H129.08Z" fill="#E4572E"/>
<mask id="mask7_2054_188" style="mask-type:luminance" maskUnits="userSpaceOnUse" x="88" y="207" width="42" height="46">
<path d="M129.08 224.483C129.08 224.483 119.144 210.489 100.514 207.707C81.8832 204.926 87.0771 254.212 102.004 252.6C118.949 250.772 129.687 236.052 129.91 235.354C130.132 234.655 129.073 224.483 129.073 224.483H129.08Z" fill="white"/>
</mask>
<g mask="url(#mask7_2054_188)">
<path d="M121.916 222.374C124.032 222.374 125.748 220.665 125.748 218.558C125.748 216.45 124.032 214.742 121.916 214.742C119.8 214.742 118.085 216.45 118.085 218.558C118.085 220.665 119.8 222.374 121.916 222.374Z" fill="white"/>
<path d="M122.179 243.55C124.295 243.55 126.011 241.842 126.011 239.734C126.011 237.626 124.295 235.918 122.179 235.918C120.063 235.918 118.348 237.626 118.348 239.734C118.348 241.842 120.063 243.55 122.179 243.55Z" fill="white"/>
<path d="M98.5642 222.662C100.68 222.662 102.396 220.954 102.396 218.846C102.396 216.739 100.68 215.03 98.5642 215.03C96.4483 215.03 94.7329 216.739 94.7329 218.846C94.7329 220.954 96.4483 222.662 98.5642 222.662Z" fill="white"/>
<path d="M98.8274 243.839C100.943 243.839 102.659 242.131 102.659 240.023C102.659 237.916 100.943 236.207 98.8274 236.207C96.7114 236.207 94.9961 237.916 94.9961 240.023C94.9961 242.131 96.7114 243.839 98.8274 243.839Z" fill="white"/>
<path d="M111.434 234.131C113.55 234.131 115.266 232.422 115.266 230.315C115.266 228.207 113.55 226.499 111.434 226.499C109.318 226.499 107.603 228.207 107.603 230.315C107.603 232.422 109.318 234.131 111.434 234.131Z" fill="white"/>
<path d="M111.158 212.088C113.273 212.088 114.989 210.379 114.989 208.272C114.989 206.164 113.273 204.456 111.158 204.456C109.042 204.456 107.326 206.164 107.326 208.272C107.326 210.379 109.042 212.088 111.158 212.088Z" fill="white"/>
<path d="M111.691 254.965C113.807 254.965 115.522 253.256 115.522 251.149C115.522 249.041 113.807 247.333 111.691 247.333C109.575 247.333 107.859 249.041 107.859 251.149C107.859 253.256 109.575 254.965 111.691 254.965Z" fill="white"/>
</g>
<path d="M129.08 224.483C129.08 224.483 119.144 210.489 100.514 207.707C81.8832 204.926 87.0771 254.212 102.004 252.6C118.949 250.772 129.687 236.052 129.91 235.354C130.132 234.655 129.073 224.483 129.073 224.483H129.08Z" stroke="#121212" stroke-width="4.29" stroke-linecap="round" stroke-linejoin="round"/>
<path d="M137.66 223.684C137.66 223.684 144.985 209.474 159.225 206.283C173.471 203.098 170.577 252.479 159.07 251.196C146.017 249.738 137.444 235.26 137.255 234.568C137.066 233.876 137.653 223.684 137.653 223.684H137.66Z" fill="#E4572E"/>
<mask id="mask8_2054_188" style="mask-type:luminance" maskUnits="userSpaceOnUse" x="137" y="206" width="32" height="46">
<path d="M137.66 223.684C137.66 223.684 144.985 209.474 159.225 206.283C173.471 203.098 170.577 252.479 159.07 251.196C146.017 249.738 137.444 235.26 137.255 234.568C137.066 233.876 137.653 223.684 137.653 223.684H137.66Z" fill="white"/>
</mask>
<g mask="url(#mask8_2054_188)">
<path d="M157.288 221.063C159.404 221.063 161.12 219.355 161.12 217.247C161.12 215.14 159.404 213.431 157.288 213.431C155.172 213.431 153.457 215.14 153.457 217.247C153.457 219.355 155.172 221.063 157.288 221.063Z" fill="white"/>
<path d="M157.565 243.456C159.681 243.456 161.397 241.747 161.397 239.64C161.397 237.532 159.681 235.824 157.565 235.824C155.449 235.824 153.734 237.532 153.734 239.64C153.734 241.747 155.449 243.456 157.565 243.456Z" fill="white"/>
<path d="M168.068 233.083C170.184 233.083 171.899 231.374 171.899 229.267C171.899 227.159 170.184 225.451 168.068 225.451C165.952 225.451 164.236 227.159 164.236 229.267C164.236 231.374 165.952 233.083 168.068 233.083Z" fill="white"/>
<path d="M146.112 233.358C148.228 233.358 149.943 231.65 149.943 229.542C149.943 227.435 148.228 225.726 146.112 225.726C143.996 225.726 142.28 227.435 142.28 229.542C142.28 231.65 143.996 233.358 146.112 233.358Z" fill="white"/>
</g>
<path d="M137.66 223.684C137.66 223.684 144.985 209.474 159.225 206.283C173.471 203.098 170.577 252.479 159.07 251.196C146.017 249.738 137.444 235.26 137.255 234.568C137.066 233.876 137.653 223.684 137.653 223.684H137.66Z" stroke="#121212" stroke-width="4.29" stroke-linecap="round" stroke-linejoin="round"/>
<path d="M131.224 237.761L136.013 237.702C138.509 237.671 140.507 235.631 140.476 233.145L140.394 226.522C140.363 224.036 138.315 222.046 135.819 222.076L131.03 222.135C128.534 222.166 126.536 224.206 126.567 226.692L126.649 233.316C126.68 235.802 128.729 237.792 131.224 237.761Z" fill="#E4572E" stroke="#121212" stroke-width="4.29" stroke-linecap="round" stroke-linejoin="round"/>
<g style="mix-blend-mode:multiply">
<path d="M88.4059 224.584C88.4059 224.584 96.7768 243.691 107.684 242.173C118.591 240.648 126.598 230.825 126.598 230.825C126.598 230.825 130.793 231.934 134.281 231.658C137.761 231.383 140.54 230.657 140.54 230.657C140.54 230.657 146.888 236.368 154.146 240.446C161.404 244.524 167.407 241.441 167.407 241.441C167.407 241.441 165.208 251.653 160.324 251.485C155.441 251.317 147.009 246.096 144.891 244.034C142.773 241.978 138.996 237.396 138.996 237.396L128.304 237.53C128.304 237.53 120.52 246.889 112.419 249.765C104.318 252.64 101.553 254.3 97.7954 251.337C94.0382 248.374 90.7195 243.093 89.4717 236.395C88.2238 229.697 88.3924 224.604 88.3924 224.604L88.4059 224.584Z" fill="#E8EAF5"/>
</g>
<path d="M117.769 243.248C117.769 247.675 121.377 251.27 125.829 251.27H132.939C137.384 251.27 140.999 247.675 140.999 243.248C140.999 238.814 137.391 235.219 132.939 235.219H125.829C121.377 235.219 117.769 238.814 117.769 243.248Z" fill="#FBCA3D" stroke="#121212" stroke-width="4" stroke-miterlimit="10"/>
<path d="M156.952 216.697C146.254 217.624 134.443 239.66 134.443 239.66L129.37 236.153C133.424 200.478 173.694 182.406 177.41 209.279C181.134 236.153 141.721 244.686 141.721 244.686L134.436 239.653C158.908 236.67 167.643 215.763 156.945 216.69L156.952 216.697Z" fill="#FBCA3D" stroke="#121212" stroke-width="4" stroke-miterlimit="10"/>
<path d="M101.795 216.697C112.494 217.624 124.305 239.66 124.305 239.66L129.377 236.153C125.323 200.478 85.0536 182.406 81.3302 209.279C77.6067 236.153 117.02 244.686 117.02 244.686L124.305 239.653C99.8326 236.67 91.0974 215.763 101.795 216.69V216.697Z" fill="#FBCA3D" stroke="#121212" stroke-width="4" stroke-miterlimit="10"/>
<path d="M209.491 259.957H49.2563V379.41H209.491V259.957Z" fill="#43B5A0" stroke="#121212" stroke-width="4" stroke-miterlimit="10"/>
<path d="M106.753 259.957H49.2563V379.41H106.753V259.957Z" fill="#379584" stroke="#121212" stroke-width="4" stroke-miterlimit="10"/>
<path d="M214.597 242.993H44.1636V274.704H214.597V242.993Z" fill="#43B5A0" stroke="#121212" stroke-width="4" stroke-miterlimit="10"/>
<path d="M106.753 242.993H44.1636V274.704H106.753V242.993Z" fill="#379584" stroke="#121212" stroke-width="4" stroke-miterlimit="10"/>
<g style="mix-blend-mode:multiply" opacity="0.5">
<path d="M209.491 274.704H49.2563V283.706H209.491V274.704Z" fill="#F288B7"/>
</g>
<path d="M175.063 242.993H156.817V379.41H175.063V242.993Z" fill="#FBCA3D" stroke="#121212" stroke-width="4" stroke-miterlimit="10"/>
<path d="M82.6723 242.993H64.4263V379.41H82.6723V242.993Z" fill="#FBCA3D" stroke="#121212" stroke-width="4" stroke-miterlimit="10"/>
<path d="M39.3743 285.514L56.7097 295.84C63.3809 299.454 67.8193 302.545 67.3741 309.042C66.9289 315.518 61.5664 320.389 55.0504 320.664C4.87875 322.801 43.5901 257.672 43.5901 257.672L43.6711 274.697H49.2562V290.861" fill="white"/>
<mask id="mask9_2054_188" style="mask-type:luminance" maskUnits="userSpaceOnUse" x="29" y="257" width="39" height="64">
<path d="M39.3743 285.514L56.7097 295.84C63.3809 299.454 67.8193 302.545 67.3741 309.042C66.9289 315.518 61.5664 320.389 55.0504 320.664C4.87875 322.801 43.5901 257.672 43.5901 257.672L43.6711 274.697H49.2562V290.861" fill="white"/>
</mask>
<g mask="url(#mask9_2054_188)">
<path d="M53.4653 293.703C47.4754 297.224 44.6559 315.565 47.4754 324.857L65.4787 327.423L68.7502 306.555L63.8261 296.055L53.4653 293.703Z" fill="#121212"/>
</g>
<path d="M39.3743 285.514L56.7097 295.84C63.3809 299.454 67.8193 302.545 67.3741 309.042C66.9289 315.518 61.5664 320.389 55.0504 320.664C4.87875 322.801 43.5901 257.672 43.5901 257.672L43.6711 274.697H49.2562V290.861" stroke="#121212" stroke-width="4.29" stroke-linecap="round" stroke-linejoin="round"/>
<path d="M48.3591 290.868C48.3591 290.868 37.6611 299.931 41.8701 318.286" stroke="#121212" stroke-width="4.29" stroke-linecap="round" stroke-linejoin="round"/>
<path d="M42.8414 288.342C33.2631 293.555 32.8921 305.736 33.8634 313.758" stroke="#121212" stroke-width="4.29" stroke-linecap="round" stroke-linejoin="round"/>
<path d="M53.2964 241.837C65.9438 228.682 77.4041 223.812 77.4041 223.812C77.4041 223.812 82.2945 228.709 83.8999 241.837H53.2964Z" fill="white" stroke="#121212" stroke-width="4.29" stroke-linecap="round" stroke-linejoin="round"/>
<path d="M209.754 320.725C231.521 304.58 209.754 290.861 209.754 290.861V320.725Z" fill="#121212"/>
<path d="M108.075 169.412C112.318 169.412 115.758 165.986 115.758 161.76C115.758 157.533 112.318 154.107 108.075 154.107C103.832 154.107 100.392 157.533 100.392 161.76C100.392 165.986 103.832 169.412 108.075 169.412Z" fill="#121212"/>
<path d="M155.967 169.163C160.072 169.163 163.4 165.849 163.4 161.76C163.4 157.671 160.072 154.356 155.967 154.356C151.862 154.356 148.534 157.671 148.534 161.76C148.534 165.849 151.862 169.163 155.967 169.163Z" fill="#121212"/>
<path d="M127.508 188.278C127.508 188.278 128.749 198.476 138.146 197.818C147.225 197.186 146.874 188.331 146.874 188.331L139.245 187.377L137.242 185.106C137.242 185.106 134.8 190.34 127.508 188.278Z" fill="#121212"/>
</g>
<defs>
<clipPath id="clip0_2054_188">
<rect width="233" height="480.001" fill="white" transform="translate(0 -0.000976562)"/>
</clipPath>
</defs>
</svg>
