<svg width="246" height="475" viewBox="0 0 246 475" fill="none" xmlns="http://www.w3.org/2000/svg">
<path d="M206.163 469.374C206.163 472.481 177.783 475 142.773 475C107.764 475 78.676 472.421 79.3839 469.374C79.9316 467.015 107.838 463.848 142.773 463.748C177.783 463.648 206.163 466.266 206.163 469.374Z" fill="#F7F7F7"/>
<path d="M163.282 214.323L167.517 220.458L160.524 232.732L152.875 225.128C152.875 225.128 143.98 233.849 143.057 233.858C142.134 233.867 129.16 219.957 129.16 219.957L134.374 214.731L163.282 214.323Z" fill="#E8EAF5" stroke="#1F1300" stroke-width="3.03205" stroke-linejoin="round"/>
<path d="M108.609 114.18C98.8669 91.1932 79.0657 82.2318 45.4355 83.8582C43.4738 83.9403 41.6215 84.8685 40.2834 86.44C38.9453 88.0115 38.2302 90.0985 38.2943 92.245C39.277 124.323 55.7745 144.549 89.9257 147.691L108.609 114.18Z" fill="white"/>
<mask id="mask0_2054_620" style="mask-type:luminance" maskUnits="userSpaceOnUse" x="38" y="83" width="71" height="65">
<path d="M108.606 114.18C98.8644 91.1927 79.0632 82.2313 45.433 83.8577C43.4713 83.9398 41.619 84.868 40.2809 86.4395C38.9428 88.011 38.2277 90.098 38.2918 92.2445C39.2745 124.323 55.7719 144.549 89.9232 147.69L108.606 114.18Z" fill="white"/>
</mask>
<g mask="url(#mask0_2054_620)">
<path d="M85.438 142.056C68.6864 140.077 52.8878 129.369 50.6303 107.068C50.4774 105.566 50.8726 104.059 51.7301 102.875C52.5875 101.69 53.8378 100.924 55.2089 100.743C70.8804 98.7734 86.7044 104.524 94.4767 113.253L85.438 142.056Z" fill="#43B5A0"/>
<g style="mix-blend-mode:multiply">
<path d="M99.5981 93.7227C89.4963 96.4611 81.148 104.412 75.4046 113.846C69.6612 123.28 66.222 134.179 63.1893 145.058C64.7014 145.262 65.4341 146.592 66.798 147.347C70.9658 149.664 75.5486 150.841 80.0764 152.009C85.7902 153.482 91.8978 150.762 96.1164 146.421C100.335 142.079 103.173 136.403 105.905 130.805C108.531 125.421 111.165 119.893 112.051 113.837C112.936 107.781 111.784 100.997 107.743 96.6418C105.769 94.515 102.338 93.9265 99.5981 93.7227Z" fill="#E8EAF5"/>
</g>
</g>
<path d="M108.609 114.18C98.8669 91.1932 79.0657 82.2318 45.4355 83.8582C43.4738 83.9403 41.6215 84.8685 40.2834 86.44C38.9453 88.0115 38.2302 90.0985 38.2943 92.245C39.277 124.323 55.7745 144.549 89.9257 147.691L108.609 114.18Z" stroke="#1F1300" stroke-width="3.03205" stroke-linecap="round" stroke-linejoin="round"/>
<path d="M179.698 109.334C195.369 89.3588 215.17 81.1109 238.779 83.4973C240.239 83.6481 241.589 84.4131 242.543 85.631C243.497 86.8489 243.982 88.4246 243.896 90.026C241.849 125.214 226.687 143.692 198.41 145.462L179.698 109.334Z" fill="white"/>
<mask id="mask1_2054_620" style="mask-type:luminance" maskUnits="userSpaceOnUse" x="179" y="83" width="65" height="63">
<path d="M179.699 109.334C195.371 89.3583 215.172 81.1105 238.781 83.4968C240.241 83.6477 241.59 84.4127 242.545 85.6305C243.499 86.8484 243.984 88.4241 243.898 90.0255C241.85 125.213 226.689 143.692 198.412 145.462L179.699 109.334Z" fill="white"/>
</mask>
<g mask="url(#mask1_2054_620)">
<path d="M198.181 141.561C218.089 140.12 228.444 127.363 231.342 105.706C231.438 104.933 231.389 104.147 231.198 103.396C231.007 102.645 230.677 101.944 230.23 101.337C229.783 100.729 229.227 100.228 228.597 99.8642C227.966 99.5 227.275 99.2805 226.564 99.2189C213.65 98.2319 200.092 104.2 186.025 115.617L198.181 141.561Z" fill="#43B5A0"/>
<g style="mix-blend-mode:multiply">
<path d="M188.703 92.9819C191.474 94.9394 194.095 97.1415 196.538 99.5663C208.998 111.675 218.672 126.827 224.772 143.794C223.752 143.572 222.96 143.173 222.002 143.595C214.345 146.99 206.205 148.895 197.949 149.225C191.002 136.343 183.611 123.082 176.665 110.2C176.733 109.274 177.029 108.81 177.512 108.055L185.289 96.3181C186.194 94.9508 187.359 93.813 188.703 92.9819Z" fill="#E8EAF5"/>
</g>
</g>
<path d="M179.698 109.334C195.369 89.3588 215.17 81.1109 238.779 83.4973C240.239 83.6481 241.589 84.4131 242.543 85.631C243.497 86.8489 243.982 88.4246 243.896 90.026C241.849 125.214 226.687 143.692 198.41 145.462L179.698 109.334Z" stroke="#1F1300" stroke-width="3.03205" stroke-linecap="round" stroke-linejoin="round"/>
<path d="M182.278 94.0989C204.612 71.6352 210.626 35.5672 185.209 3.50736C184.87 3.08876 184.697 2.54117 184.725 1.98339C184.754 1.42562 184.982 0.90265 185.361 0.527957C185.75 0.156895 186.257 -0.031314 186.771 0.00426267C187.286 0.0398393 187.767 0.296324 188.11 0.717935C219.343 38.1713 213.244 77.974 194.65 104.316L182.278 94.0989Z" fill="#1F1300"/>
<path d="M195.832 77.9367C194.764 64.1471 190.478 48.5643 174.146 39.45C173.942 39.3417 173.761 39.19 173.612 39.0038C173.463 38.8175 173.349 38.6005 173.278 38.3656C173.207 38.1307 173.18 37.8825 173.198 37.6359C173.216 37.3892 173.279 37.1489 173.383 36.9293C173.586 36.5124 173.929 36.1978 174.34 36.0518C174.751 35.9058 175.197 35.9396 175.586 36.1462C188.983 43.0179 198.068 52.577 201.901 65.4074L195.832 77.9367Z" fill="#1F1300"/>
<path d="M108.866 95.0762C85.8038 72.6079 78.6161 36.5446 102.996 4.48004C103.318 4.04608 103.472 3.49142 103.426 2.93465C103.379 2.37788 103.135 1.86319 102.746 1.50063C102.358 1.13041 101.851 0.943122 101.337 0.979574C100.823 1.01603 100.343 1.27327 100.001 1.69525C69.984 39.1486 77.375 78.9513 96.8247 105.293L108.866 95.0762Z" fill="#1F1300"/>
<path d="M94.797 78.9097C95.4154 65.1247 99.1978 49.5419 115.234 40.423C115.432 40.3094 115.608 40.1532 115.75 39.9637C115.893 39.7742 115.998 39.5553 116.062 39.3201C116.125 39.0848 116.144 38.838 116.118 38.5944C116.093 38.3508 116.022 38.1154 115.911 37.9023C115.703 37.4853 115.355 37.172 114.942 37.0271C114.528 36.8823 114.079 36.9169 113.688 37.1238C100.511 43.9908 91.739 53.55 88.3209 66.3804L94.797 78.9097Z" fill="#1F1300"/>
<path d="M209.669 159.215C209.669 159.215 211.732 112.953 187.869 93.7142C162.608 73.3264 116.186 77.2186 94.5555 98.2552C72.9246 119.292 69.3455 182.438 87.2365 199.439C102.455 213.882 131.595 220.652 169.897 216.12C205.531 211.913 214.256 200.204 215.895 191.228C217.797 180.812 209.669 159.215 209.669 159.215Z" fill="white"/>
<mask id="mask2_2054_620" style="mask-type:luminance" maskUnits="userSpaceOnUse" x="75" y="80" width="142" height="138">
<path d="M209.669 159.215C209.669 159.215 211.732 112.953 187.869 93.7142C162.608 73.3264 116.186 77.2186 94.5555 98.2552C72.9246 119.292 69.3455 182.438 87.2365 199.439C102.455 213.882 131.595 220.652 169.897 216.12C205.531 211.913 214.256 200.204 215.895 191.228C217.797 180.812 209.669 159.215 209.669 159.215Z" fill="white"/>
</mask>
<g mask="url(#mask2_2054_620)">
<path d="M215.539 204.04C183.277 211.323 150.05 211.9 117.592 205.741C108.41 204.003 88.6041 195.904 82.1237 170.146C79.7688 160.795 79.5146 134.522 79.2478 124.871C75.08 140.161 66.1176 173.236 66.1599 189.278C66.1854 195.477 67.0071 202.182 70.9546 206.728C74.6692 211.028 80.2982 212.441 85.5757 213.59C120.066 221.101 155.407 226.518 190.13 221.907C195.471 221.199 200.884 220.216 205.662 217.57C210.44 214.925 214.4 209.786 215.539 204.04Z" fill="#E8EAF5"/>
</g>
<path d="M209.669 159.215C209.669 159.215 211.732 112.953 187.869 93.7142C162.608 73.3264 116.186 77.2186 94.5555 98.2552C72.9246 119.292 69.3455 182.438 87.2365 199.439C102.455 213.882 131.595 220.652 169.897 216.12C205.531 211.913 214.256 200.204 215.895 191.228C217.797 180.812 209.669 159.215 209.669 159.215Z" stroke="#1F1300" stroke-width="3.03205" stroke-linecap="round" stroke-linejoin="round"/>
<path d="M164.883 175.132C164.905 171.444 159.676 168.417 153.204 168.37C146.731 168.323 141.466 171.274 141.444 174.962C141.421 178.649 146.65 181.677 153.123 181.724C159.595 181.771 164.86 178.819 164.883 175.132Z" fill="#1F1300"/>
<path d="M166.149 183.138C167.653 185.543 166.242 191.372 160.914 191.687C156.738 191.932 153.748 186.344 153.748 186.344C153.748 186.344 153.57 180.038 153.591 176.729C153.625 178.319 153.307 186.771 153.307 186.771C153.307 186.771 149.576 192.331 144.683 191.956C140.389 191.603 137.991 185.677 139.774 182.874" stroke="#1F1300" stroke-width="3.03205" stroke-linecap="round" stroke-linejoin="round"/>
<path d="M132.136 163.078C134.535 160.43 134.483 156.117 132.019 153.445C129.556 150.774 125.613 150.754 123.214 153.402C120.814 156.05 120.866 160.363 123.33 163.035C125.794 165.706 129.736 165.726 132.136 163.078Z" fill="#1F1300"/>
<path d="M175.351 163.082C177.751 160.434 177.699 156.122 175.235 153.45C172.771 150.778 168.829 150.759 166.429 153.407C164.03 156.055 164.082 160.367 166.546 163.039C169.009 165.711 172.952 165.73 175.351 163.082Z" fill="#1F1300"/>
<path d="M194.537 183.473C208.56 177.743 215.563 160.315 210.179 144.545C204.795 128.776 189.063 120.637 175.041 126.366C161.018 132.096 154.015 149.524 159.399 165.294C164.782 181.063 180.514 189.202 194.537 183.473Z" stroke="#43B5A0" stroke-width="3.03205" stroke-miterlimit="10"/>
<path d="M148.382 161.169C151.21 143.876 140.043 127.223 123.44 123.975C106.838 120.726 91.087 132.112 88.2598 149.406C85.4326 166.7 96.5996 183.352 113.202 186.6C129.804 189.849 145.555 178.463 148.382 161.169Z" stroke="#43B5A0" stroke-width="3.03205" stroke-miterlimit="10"/>
<path d="M158.791 163.191C155.847 160.29 150.887 160.336 148.084 163.293" stroke="#43B5A0" stroke-width="3.03205" stroke-linecap="round" stroke-linejoin="round"/>
<path d="M143.213 192.146C143.683 194.435 145.28 196.552 147.563 197.924C148.362 198.405 149.217 198.765 150.104 198.994C152.618 199.557 155.232 199.137 157.491 197.808C159.44 196.642 161.028 194.867 162.053 192.711C158.554 191.492 155.377 188.782 153.815 185.937C152.565 187.54 150.426 188.916 148.609 190.107C147.084 191.098 145.149 192.317 143.213 192.146Z" fill="#1F1300"/>
<path d="M132.514 451.86L131.971 457.202C131.607 460.809 130.043 464.143 127.577 466.57C125.112 468.997 121.917 470.349 118.6 470.366C115.08 470.383 111.682 468.961 109.072 466.379C106.461 463.798 104.826 460.242 104.487 456.41L104.085 451.749L132.514 451.86Z" fill="#1F1300"/>
<path d="M191.769 451.141C191.663 452.188 191.46 454.181 191.227 456.484C190.862 460.09 189.299 463.424 186.833 465.852C184.367 468.279 181.172 469.63 177.855 469.648C174.334 469.664 170.934 468.24 168.323 465.656C165.712 463.071 164.079 459.512 163.743 455.678L163.319 451.016L191.769 451.141Z" fill="#1F1300"/>
<path d="M175.725 213.512C182.154 216.455 187.96 220.816 192.78 226.323C197.601 231.829 201.333 238.362 203.744 245.516C212.439 271.404 222.88 311.137 228.018 331.238C228.447 332.869 228.574 334.577 228.392 336.263C228.209 337.948 227.722 339.577 226.957 341.054C226.192 342.53 225.165 343.825 223.937 344.862C222.709 345.899 221.304 346.658 219.805 347.094C217.04 347.871 214.114 347.553 211.543 346.196C208.973 344.839 206.924 342.531 205.76 339.68L173.93 262.373" fill="white"/>
<mask id="mask3_2054_620" style="mask-type:luminance" maskUnits="userSpaceOnUse" x="173" y="213" width="56" height="135">
<path d="M175.725 213.512C182.154 216.455 187.96 220.816 192.78 226.323C197.601 231.829 201.332 238.362 203.743 245.516C212.439 271.404 222.879 311.137 228.017 331.238C228.446 332.869 228.573 334.577 228.391 336.263C228.209 337.948 227.721 339.577 226.956 341.054C226.192 342.53 225.165 343.825 223.937 344.862C222.709 345.899 221.304 346.658 219.804 347.094C217.04 347.871 214.114 347.553 211.543 346.196C208.972 344.839 206.924 342.531 205.759 339.68L173.929 262.373" fill="white"/>
</mask>
<g mask="url(#mask3_2054_620)">
<path d="M190.642 230.16C196.525 239.603 213.938 342.728 213.002 348.437L202.515 352.783L168.435 268.294C168.435 268.294 166.495 228.445 166.419 229.46C166.343 230.475 168.537 215.67 168.537 215.67L190.642 230.16Z" fill="#E8EAF5"/>
<path d="M230.046 325.765C219.829 329.268 211.1 334.152 204.374 340.903L208.537 354.762L233.798 347.538L230.046 325.765Z" fill="#1F1300"/>
</g>
<path d="M175.725 213.512C182.154 216.455 187.96 220.816 192.78 226.323C197.601 231.829 201.333 238.362 203.744 245.516C212.439 271.404 222.88 311.137 228.018 331.238C228.447 332.869 228.574 334.577 228.392 336.263C228.209 337.948 227.722 339.577 226.957 341.054C226.192 342.53 225.165 343.825 223.937 344.862C222.709 345.899 221.304 346.658 219.805 347.094C217.04 347.871 214.114 347.553 211.543 346.196C208.973 344.839 206.924 342.531 205.76 339.68L173.93 262.373" stroke="#1F1300" stroke-width="3.03205" stroke-linecap="round" stroke-linejoin="round"/>
<path d="M186.419 255.626C192.904 287.542 198.919 319.106 192.879 341.519L98.9172 331.168C94.5461 306.109 94.4699 280.198 98.2776 239.283C98.2776 239.283 121.251 217.649 122.196 217.635L174.352 216.926" fill="white"/>
<mask id="mask4_2054_620" style="mask-type:luminance" maskUnits="userSpaceOnUse" x="95" y="216" width="101" height="126">
<path d="M186.421 255.626C192.905 287.542 198.92 319.106 192.88 341.519L98.9184 331.167C94.5473 306.109 94.4711 280.198 98.2789 239.283C98.2789 239.283 121.252 217.649 122.197 217.635L174.354 216.926" fill="white"/>
</mask>
<g mask="url(#mask4_2054_620)">
<g style="mix-blend-mode:multiply">
<path d="M93.0855 322.582C88.7101 304.914 84.0129 264.796 103.496 252.651C104.843 292.398 110.561 309.7 117.626 322.582C106.571 324.546 104.161 324.945 93.0855 322.582Z" fill="#E8EAF5"/>
</g>
<path d="M183.031 247.165C183.031 247.165 172.019 249.834 166.593 243.718C161.167 237.601 162.243 238.046 162.243 238.046L156.589 238.125C156.589 238.125 154.073 245.724 144.729 249.519C138.999 251.762 132.761 251.924 126.94 249.982L122.217 223.219L184.01 222.38L183.031 247.165Z" fill="#E8EAF5"/>
</g>
<path d="M186.419 255.626C192.904 287.542 198.919 319.106 192.879 341.519L98.9172 331.168C94.5461 306.109 94.4699 280.198 98.2776 239.283C98.2776 239.283 121.251 217.649 122.196 217.635L174.352 216.926" stroke="#1F1300" stroke-width="3.03205" stroke-linecap="round" stroke-linejoin="round"/>
<path d="M216.561 309.13C209.195 311.253 200.838 316.271 196.793 323.925" stroke="#1F1300" stroke-width="3.03205" stroke-linecap="round" stroke-linejoin="round"/>
<path d="M97.1436 259.24C97.1436 259.24 78.2319 246.567 65.9911 232.217C54.5213 218.78 37.5706 196.344 28.8284 176.016C23.6992 164.089 29.8577 155.091 35.7747 153.312C41.8866 151.458 47.846 154.743 53.7504 164.784C59.2566 174.154 69.9895 187.647 77.7956 195.635C91.3494 209.508 108.66 219.554 108.66 219.554L123.908 230.873" fill="white"/>
<mask id="mask5_2054_620" style="mask-type:luminance" maskUnits="userSpaceOnUse" x="26" y="152" width="98" height="108">
<path d="M97.1436 259.24C97.1436 259.24 78.2319 246.567 65.9911 232.217C54.5213 218.779 37.5706 196.343 28.8284 176.016C23.6992 164.089 29.8577 155.09 35.7747 153.311C41.8866 151.458 47.846 154.743 53.7504 164.784C59.2566 174.153 69.9895 187.646 77.7956 195.634C91.3494 209.507 108.66 219.553 108.66 219.553L123.908 230.873" fill="white"/>
</mask>
<g mask="url(#mask5_2054_620)">
<path d="M56.4144 178.231C59.3793 181.322 68.8797 188.596 75.0508 190.807C79.5702 192.428 90.3666 203.781 94.2252 206.839C97.5924 201.696 71.7048 167.425 67.8123 162.746C65.7623 160.28 63.6742 157.778 61.0735 156.045C58.4729 154.312 55.2412 153.418 52.3356 154.428C41.3147 158.269 51.8782 173.491 56.4144 178.231Z" fill="#E8EAF5"/>
<path d="M26.8075 176.197C31.4284 175.96 35.1896 175.029 41.6319 171.647C45.8039 169.455 49.7768 165.762 52.9027 162.023C51.2084 158.038 48.7942 155.902 46.1046 152.635C44.9102 151.185 43.6776 149.707 42.0851 148.835C40.0181 147.709 37.57 147.742 35.3082 148.298C30.7169 149.438 26.5279 152.857 24.7193 157.598C22.9108 162.338 23.4148 172.629 26.8075 176.197Z" fill="#1F1300"/>
<path d="M29.3998 180.562C34.1599 180.748 38.8938 179.714 43.2233 177.541C47.5528 175.369 51.3578 172.119 54.3345 168.051" stroke="#1F1300" stroke-width="2.40201" stroke-linecap="round" stroke-linejoin="round"/>
<path d="M36.2574 190.872C39.7626 190.81 43.2202 189.974 46.4228 188.414C49.6253 186.855 52.5066 184.603 54.8939 181.794" stroke="#1F1300" stroke-width="2.40201" stroke-linecap="round" stroke-linejoin="round"/>
<g style="mix-blend-mode:multiply">
<path d="M56.1857 215.736C70.2096 230.772 84.4876 243.964 102.717 251.947C103.211 252.092 103.639 252.432 103.916 252.902C104.067 253.399 104.043 253.939 103.848 254.417C102.552 258.875 103.848 259.394 100.409 262.146C99.5714 262.898 98.5731 263.405 97.5077 263.619C95.661 263.874 93.9456 262.651 92.425 261.474C87.6643 257.764 83.0249 253.89 78.507 249.853C68.3417 240.808 55.635 232.426 53.4749 218.294C53.3055 217.297 55.635 216.547 56.1857 215.736Z" fill="#E8EAF5"/>
</g>
</g>
<path d="M97.1436 259.24C97.1436 259.24 78.2319 246.567 65.9911 232.217C54.5213 218.78 37.5706 196.344 28.8284 176.016C23.6992 164.089 29.8577 155.091 35.7747 153.312C41.8866 151.458 47.846 154.743 53.7504 164.784C59.2566 174.154 69.9895 187.647 77.7956 195.635C91.3494 209.508 108.66 219.554 108.66 219.554L123.908 230.873" stroke="#1F1300" stroke-width="2.95329" stroke-linecap="round" stroke-linejoin="round"/>
<path d="M132.192 452.767H104.606C98.2527 409.925 95.0506 361.425 95.8426 321.858C136.262 328.549 170.994 328.841 198.576 320.116C199.067 360.688 196.314 405.889 190.901 451.97L164.217 452.767C160.363 403.442 149.05 382.003 149.05 382.003C149.05 382.003 139.354 404.865 132.192 452.767Z" fill="#5B5F97"/>
<path d="M132.192 452.767H104.606C98.2527 409.925 95.0506 361.425 95.8426 321.858C136.262 328.549 170.994 328.841 198.576 320.116C199.067 360.688 196.314 405.889 190.901 451.97L164.217 452.767C160.363 403.442 149.05 382.003 149.05 382.003C149.05 382.003 139.354 404.865 132.192 452.767Z" stroke="#1F1300" stroke-width="3.03205" stroke-linecap="round" stroke-linejoin="round"/>
<path d="M198.559 326.548C198.872 297.412 201.63 256.451 188.965 220.944L176.182 212.571C186.5 236.693 186.03 289.025 186.822 326.961" fill="#5B5F97"/>
<path d="M198.559 326.548C198.872 297.412 201.63 256.451 188.965 220.944L176.182 212.571C186.5 236.693 186.03 289.025 186.822 326.961" stroke="#1F1300" stroke-width="3.03205" stroke-linecap="round" stroke-linejoin="round"/>
<path d="M162.872 263.127C164.689 261.122 164.649 257.857 162.783 255.834C160.918 253.811 157.933 253.795 156.116 255.8C154.3 257.805 154.339 261.07 156.205 263.093C158.071 265.116 161.056 265.131 162.872 263.127Z" fill="#1F1300"/>
<path d="M164.042 294.064C165.859 292.059 165.819 288.794 163.953 286.771C162.088 284.748 159.103 284.732 157.286 286.737C155.47 288.742 155.51 292.007 157.375 294.03C159.241 296.053 162.226 296.068 164.042 294.064Z" fill="#1F1300"/>
<path d="M119.554 328.253C121.523 292.931 113.755 220.021 105.644 217.454C114.729 216.351 115.966 214.706 120.57 214.095C132.972 239.858 133.845 290.693 133.277 329.101" fill="#5B5F97"/>
<path d="M119.554 328.253C121.523 292.931 113.755 220.021 105.644 217.454C114.729 216.351 115.966 214.706 120.57 214.095C132.972 239.858 133.845 290.693 133.277 329.101" stroke="#1F1300" stroke-width="3.03205" stroke-linecap="round" stroke-linejoin="round"/>
<path d="M224.921 319.848C216.776 321.405 207.581 327.479 203.134 332.989" stroke="#1F1300" stroke-width="3.03205" stroke-linecap="round" stroke-linejoin="round"/>
<path d="M149.049 382.003C151.048 375.238 154.165 371.675 159.875 370.595" stroke="#1F1300" stroke-width="3.03205" stroke-linecap="round" stroke-linejoin="round"/>
<path d="M103.92 323.3C102.925 356.921 103.979 406.959 110.578 453.124" stroke="#1F1300" stroke-width="3.03205" stroke-linecap="round" stroke-linejoin="round"/>
<path d="M152.951 374.886C160.363 378.847 168.66 418.905 171.443 453.036" stroke="#1F1300" stroke-width="3.03205" stroke-linecap="round" stroke-linejoin="round"/>
<path d="M198.745 310.826C174.823 317.132 135.712 318.986 95.2158 309.455L95.2666 323.819C130.18 336.64 174.23 332.785 198.741 325.343L198.745 310.826Z" fill="#5B5F97"/>
<path d="M198.745 310.826C174.823 317.132 135.712 318.986 95.2158 309.455L95.2666 323.819C130.18 336.64 174.23 332.785 198.741 325.343L198.745 310.826Z" stroke="#1F1300" stroke-width="3.03205" stroke-linecap="round" stroke-linejoin="round"/>
<path d="M125.3 331.928C126.245 343.266 117.067 352.316 105.753 352.487" stroke="#1F1300" stroke-width="3.03205" stroke-linecap="round" stroke-linejoin="round"/>
<path d="M155.25 220.086C155.25 220.086 146.067 206.227 129.227 203.475C112.386 200.723 117.859 249.524 131.294 247.93C146.542 246.113 155.987 231.541 156.178 230.85C156.368 230.16 155.25 220.086 155.25 220.086Z" fill="#E4572E"/>
<mask id="mask6_2054_620" style="mask-type:luminance" maskUnits="userSpaceOnUse" x="118" y="203" width="39" height="45">
<path d="M155.249 220.086C155.249 220.086 146.067 206.227 129.226 203.475C112.386 200.723 117.858 249.524 131.293 247.93C146.541 246.113 155.986 231.541 156.177 230.85C156.368 230.16 155.249 220.086 155.249 220.086Z" fill="white"/>
</mask>
<g mask="url(#mask6_2054_620)">
<path d="M151.178 216.929C152.51 215.459 152.481 213.063 151.112 211.579C149.743 210.094 147.553 210.083 146.221 211.553C144.889 213.023 144.918 215.419 146.287 216.903C147.656 218.388 149.846 218.399 151.178 216.929Z" fill="white"/>
<path d="M151.755 237.905C153.087 236.434 153.057 234.039 151.689 232.555C150.32 231.07 148.13 231.058 146.798 232.529C145.465 233.999 145.495 236.394 146.864 237.879C148.233 239.363 150.422 239.375 151.755 237.905Z" fill="white"/>
<path d="M130.128 217.213C131.46 215.743 131.431 213.348 130.062 211.863C128.693 210.379 126.503 210.367 125.171 211.837C123.839 213.308 123.868 215.703 125.237 217.188C126.606 218.672 128.796 218.684 130.128 217.213Z" fill="white"/>
<path d="M130.704 238.188C132.037 236.718 132.007 234.323 130.638 232.838C129.269 231.354 127.079 231.342 125.747 232.812C124.415 234.283 124.444 236.678 125.813 238.163C127.182 239.647 129.372 239.659 130.704 238.188Z" fill="white"/>
<path d="M141.911 228.577C143.243 227.107 143.214 224.711 141.845 223.227C140.476 221.742 138.286 221.731 136.954 223.201C135.621 224.671 135.651 227.067 137.02 228.551C138.389 230.036 140.579 230.047 141.911 228.577Z" fill="white"/>
<path d="M141.308 206.746C142.641 205.276 142.611 202.88 141.242 201.396C139.873 199.911 137.684 199.9 136.351 201.37C135.019 202.84 135.049 205.236 136.417 206.72C137.786 208.205 139.976 208.216 141.308 206.746Z" fill="white"/>
<path d="M142.483 249.207C143.815 247.737 143.785 245.342 142.416 243.857C141.047 242.373 138.858 242.361 137.525 243.831C136.193 245.302 136.223 247.697 137.592 249.182C138.961 250.666 141.15 250.678 142.483 249.207Z" fill="white"/>
</g>
<path d="M155.25 220.086C155.25 220.086 146.067 206.227 129.227 203.475C112.386 200.723 117.859 249.524 131.294 247.93C146.542 246.113 155.987 231.541 156.178 230.85C156.368 230.16 155.25 220.086 155.25 220.086Z" stroke="#1F1300" stroke-width="3.03205" stroke-linecap="round" stroke-linejoin="round"/>
<path d="M162.972 219.294C162.972 219.294 169.325 205.222 182.133 202.066C194.942 198.911 193.112 247.814 182.718 246.549C170.926 245.103 162.963 230.767 162.785 230.081C162.607 229.395 162.972 219.294 162.972 219.294Z" fill="#E4572E"/>
<mask id="mask7_2054_620" style="mask-type:luminance" maskUnits="userSpaceOnUse" x="162" y="201" width="30" height="46">
<path d="M162.972 219.294C162.972 219.294 169.325 205.221 182.133 202.066C194.942 198.91 193.112 247.813 182.718 246.548C170.926 245.103 162.963 230.766 162.785 230.081C162.607 229.395 162.972 219.294 162.972 219.294Z" fill="white"/>
</mask>
<g mask="url(#mask7_2054_620)">
<path d="M183.048 215.641C184.38 214.171 184.35 211.775 182.982 210.291C181.613 208.806 179.423 208.795 178.091 210.265C176.758 211.735 176.788 214.131 178.157 215.615C179.526 217.1 181.716 217.111 183.048 215.641Z" fill="white"/>
<path d="M183.654 237.811C184.986 236.341 184.956 233.946 183.588 232.461C182.219 230.977 180.029 230.965 178.697 232.435C177.364 233.906 177.394 236.301 178.763 237.786C180.132 239.27 182.322 239.282 183.654 237.811Z" fill="white"/>
<path d="M192.958 227.542C194.29 226.072 194.261 223.676 192.892 222.192C191.523 220.707 189.333 220.696 188.001 222.166C186.669 223.636 186.698 226.032 188.067 227.516C189.436 229.001 191.626 229.012 192.958 227.542Z" fill="white"/>
<path d="M173.165 227.811C174.497 226.341 174.467 223.946 173.099 222.461C171.73 220.977 169.54 220.965 168.208 222.435C166.875 223.906 166.905 226.301 168.274 227.786C169.643 229.27 171.832 229.282 173.165 227.811Z" fill="white"/>
</g>
<path d="M162.972 219.294C162.972 219.294 169.325 205.222 182.133 202.066C194.942 198.911 193.112 247.814 182.718 246.549C170.926 245.103 162.963 230.767 162.785 230.081C162.607 229.395 162.972 219.294 162.972 219.294Z" stroke="#1F1300" stroke-width="3.03205" stroke-linecap="round" stroke-linejoin="round"/>
<path d="M156.22 233.265L162.862 233.172C163.242 233.168 163.618 233.082 163.967 232.917C164.316 232.752 164.631 232.513 164.895 232.213C165.158 231.913 165.363 231.558 165.5 231.17C165.636 230.781 165.699 230.367 165.687 229.952L165.433 220.847C165.409 219.998 165.083 219.193 164.523 218.604C163.963 218.016 163.214 217.691 162.438 217.7L155.793 217.793C155.413 217.797 155.037 217.883 154.688 218.048C154.339 218.213 154.024 218.452 153.761 218.752C153.498 219.052 153.293 219.407 153.158 219.796C153.022 220.184 152.959 220.598 152.972 221.013L153.222 230.118C153.245 230.968 153.572 231.774 154.133 232.362C154.694 232.951 155.443 233.275 156.22 233.265Z" fill="#E4572E" stroke="#1F1300" stroke-width="3.03205" stroke-linecap="round" stroke-linejoin="round"/>
<g style="mix-blend-mode:multiply">
<path d="M118.583 220.184C118.583 220.184 126.44 239.108 136.246 237.602C146.051 236.096 153.12 226.365 153.12 226.365C153.12 226.365 156.932 227.459 160.058 227.185C161.956 227.022 163.838 226.69 165.687 226.194C169.537 229.846 173.695 233.09 178.106 235.883C184.713 239.923 190.079 236.865 190.079 236.865C190.079 236.865 188.262 246.98 183.857 246.813C179.452 246.647 171.765 241.471 169.825 239.437C167.885 237.403 164.404 232.862 164.404 232.862L154.768 232.991C154.768 232.991 147.898 242.259 140.646 245.108C133.395 247.958 130.905 249.594 127.487 246.66C124.068 243.727 120.977 238.496 119.744 231.875C119.01 228.028 118.621 224.113 118.583 220.184Z" fill="#E8EAF5"/>
</g>
<g style="mix-blend-mode:multiply">
<path d="M114.484 450.956C113.501 444.089 112.014 411.186 112.429 393.193C113.048 366.068 111.802 339.3 114.801 314.135C108.414 313.871 102.158 312.147 95.8429 311.095C94.7671 325.524 96.2665 339.995 96.6138 354.424C96.6286 354.645 96.5864 354.866 96.492 355.061C96.3977 355.257 96.2549 355.42 96.0801 355.531C97.1093 362.663 97.0077 369.923 96.8383 377.124C96.7366 381.378 96.5884 385.636 96.5545 389.894C97.3338 398.99 98.0454 408.095 98.8205 417.195C99.0803 418.876 99.3415 420.555 99.6041 422.232C100.803 429.915 102.145 437.579 103.103 445.307C103.654 450.106 104.496 454.86 105.623 459.537L108.266 459.611C115.377 459.806 115.504 458.068 114.484 450.956Z" fill="#E8EAF5"/>
</g>
<g style="mix-blend-mode:multiply">
<path d="M171.647 449.932C171.46 441.662 170.958 433.404 170.139 425.156C168.529 408.925 165.713 392.864 161.719 377.133C160.749 373.32 159.88 369.321 156.128 371.462C153.963 372.69 152.117 375.326 150.876 377.546C150.068 379.006 149.412 380.56 148.919 382.179C149.09 382.335 149.219 382.538 149.293 382.767C149.368 382.996 149.385 383.243 149.342 383.481C149.004 385.752 150.338 388.62 151.066 390.668C151.913 393.022 152.807 395.343 153.498 397.757C155.492 404.708 157.178 411.626 158.559 418.785C161.033 431.648 164.243 444.399 165.59 457.452C167.144 457.582 168.601 457.503 169.652 457.016C172.464 455.71 171.719 453.05 171.647 449.932Z" fill="#E8EAF5"/>
</g>
<path d="M16.0156 145.902C8.49329 153.186 5.91807 164.566 7.09555 175.766" stroke="#1F1300" stroke-width="2.95329" stroke-linecap="round" stroke-linejoin="round"/>
<path d="M22.7203 130.13C13.5037 133.017 5.31643 142.242 2 153.006" stroke="#1F1300" stroke-width="2.95329" stroke-linecap="round" stroke-linejoin="round"/>
</svg>
