<svg width="950" height="550" viewBox="0 0 950 550" fill="none" xmlns="http://www.w3.org/2000/svg">
<g clip-path="url(#clip0_2042_248)">
<rect width="950" height="550" fill="white"/>
<g clip-path="url(#clip1_2042_248)">
<path d="M748.588 -20.8044C740.368 3.44525 735.477 37.2758 758.84 60.7408C792.938 94.9891 856.993 105.266 905.548 103.469C928.898 102.596 946.862 98.3936 962.094 90.2176C981.113 80.0165 995.671 62.8798 1002.04 43.199C1011.39 14.2159 1004.75 -20.8804 982.319 -61.0898C965.817 -90.6172 948.488 -112.487 929.343 -127.954C907.314 -145.723 884.002 -153.76 861.947 -151.203C839.982 -148.647 819.185 -135.459 801.793 -113.057C784.058 -90.2122 760.428 -55.6728 748.588 -20.8171V-20.8044ZM894.75 108C871.577 108 847.998 105.329 827.316 100.317C796.508 92.8375 772.421 80.5481 755.753 63.791C745.158 53.147 739.098 39.5667 737.751 23.4424C736.608 9.69753 738.857 -5.65469 744.472 -22.1966C756.503 -57.6219 780.412 -92.6042 798.35 -115.702C807.535 -127.536 817.622 -136.927 828.345 -143.622C838.838 -150.166 849.98 -154.165 861.439 -155.507C884.688 -158.202 909.118 -149.849 932.087 -131.32C951.677 -115.487 969.361 -93.2117 986.131 -63.1907C996.269 -45.0288 1003.32 -27.5376 1007.12 -11.2109C1011.86 9.16595 1011.54 27.9101 1006.18 44.528C999.47 65.2592 984.161 83.3072 964.152 94.0272C948.31 102.532 929.737 106.899 905.701 107.797C902.067 107.937 898.408 108 894.737 108" fill="#F2F2F4"/>
</g>
<g clip-path="url(#clip2_2042_248)">
<path d="M744.849 38.4526C744.718 39.4805 743.984 40.3258 742.981 40.6076C741.906 40.9468 740.924 40.7015 740.211 39.8562C739.167 38.6248 738.259 37.2837 737.498 35.8644C736.931 34.7791 737.272 33.4433 738.29 32.7545C739.266 32.0136 740.636 32.0866 741.533 32.9215C742.656 34.0799 743.669 35.3426 744.55 36.6889C744.876 37.2159 744.986 37.8473 744.855 38.4526" fill="#E4562B"/>
<path d="M735.178 49.9634C733.914 49.6086 732.539 49.2486 731.238 48.6903C730.639 48.4294 730.136 47.991 729.805 47.4327C729.265 46.5978 729.27 45.5229 729.826 44.6985C730.304 43.8688 731.232 43.4044 732.182 43.5192C732.429 43.5244 732.67 43.5714 732.901 43.6497C734.223 44.1558 735.556 44.6046 736.842 45.189C738.007 45.7003 738.594 46.9996 738.217 48.205C737.823 49.4417 736.632 50.1722 735.184 49.9687" fill="#E4562B"/>
<path d="M725.696 4.93228C725.927 4.97402 726.153 5.03664 726.373 5.12013C727.696 5.72541 728.944 6.4768 730.104 7.35343C730.97 8.02655 731.311 8.96578 730.991 10.0511C730.692 11.1208 729.915 11.7209 728.824 11.8879C728.299 11.9557 727.764 11.8566 727.297 11.6061C726.3 11.0999 725.282 10.5938 724.28 10.0668C723.923 9.87372 723.592 9.63369 723.298 9.35192C722.396 8.49095 722.165 7.30647 722.695 6.27852C723.262 5.20883 724.316 4.70269 725.691 4.92706" fill="#E4562B"/>
<path d="M718.964 30.824C719.153 29.7908 719.72 29.0446 720.738 28.7055C722.05 28.288 723.403 28.0115 724.773 27.881C726.179 27.7297 727.439 28.7368 727.591 30.1352C727.717 31.2936 727.04 32.3841 725.943 32.7911C724.657 33.2868 723.325 33.6469 721.966 33.8608C720.523 34.08 719.179 33.0938 718.959 31.6641C718.917 31.3875 718.917 31.1005 718.964 30.824Z" fill="#E4562B"/>
<path d="M720.265 15.3005C720.297 16.0258 720.197 16.7511 719.966 17.4398C719.494 18.8643 718.119 19.6731 716.744 19.334C715.349 19 714.483 17.7059 714.724 16.2032C714.913 15.0604 715.123 13.8968 715.401 12.7749C715.779 11.293 717.007 10.526 718.397 10.7869C719.772 11.0478 720.601 12.2114 720.47 13.7298C720.412 14.2725 720.318 14.7995 720.26 15.3057" fill="#E4562B"/>
<path d="M705.394 5.96535C707.205 6.17407 708.223 7.20201 708.202 8.56912C708.181 10.0145 707.241 10.9851 705.678 11.1364C704.717 11.2303 703.736 11.2668 702.776 11.2877C701.207 11.2877 700 10.145 700 8.68392C699.979 7.14461 701.039 6.02275 702.639 5.94448C703.636 5.88708 704.639 5.94448 705.389 5.96535" fill="#E4562B"/>
<path d="M735.163 27.3175C734.276 27.1505 733.599 27.0722 732.959 26.7905C732.093 26.4356 731.411 25.8877 731.091 24.9902C730.45 23.2474 731.81 21.4838 733.73 21.656C734.942 21.7864 736.128 22.089 737.256 22.5534C738.453 22.997 739.114 24.2702 738.783 25.4964C738.5 26.7174 737.387 27.5053 736.049 27.427C735.672 27.4062 735.315 27.3331 735.163 27.3123" fill="#E4562B"/>
<path d="M740.987 11.4181C740.347 11.2459 739.534 11.0998 738.783 10.8546C737.33 10.3693 736.522 8.96045 736.899 7.62986C737.314 6.18448 738.652 5.39657 740.237 5.75661C740.982 5.93402 741.722 6.15317 742.441 6.41407C743.968 6.95674 744.739 8.22993 744.382 9.56052C744.004 10.9485 742.724 11.679 740.987 11.4181Z" fill="#E4562B"/>
<path d="M767.681 33.8972C767.172 33.7824 766.642 33.7093 766.133 33.558C764.716 33.1458 763.908 31.8517 764.17 30.5003C764.433 29.1227 765.734 28.1939 767.13 28.3818C768.179 28.5174 769.202 28.7783 770.184 29.1697C771.328 29.608 771.989 30.8029 771.747 31.9978C771.506 33.1875 770.462 34.0433 769.239 34.0589C768.714 34.0381 768.19 33.9859 767.675 33.892" fill="#E4562B"/>
<path d="M769.302 -2.73294C769.223 -1.95025 768.767 -1.26147 768.074 -0.875339C767.282 -0.390066 766.458 0.0430264 765.603 0.418722C764.191 1.00314 762.717 0.418722 762.113 -0.875339C761.51 -2.1694 761.961 -3.57304 763.262 -4.2879C764.107 -4.76274 764.999 -5.15931 765.923 -5.46717C767.235 -5.94723 768.688 -5.2741 769.171 -3.96439C769.318 -3.56782 769.36 -3.14517 769.297 -2.72773" fill="#E4562B"/>
<path d="M719.248 43.0445C719.72 41.8444 720.418 40.4929 721.625 39.4806C722.438 38.7866 723.697 38.8597 724.563 39.5015C725.429 40.1224 725.885 41.2808 725.523 42.2775C725.14 43.3837 724.579 44.422 723.865 45.3509C723.104 46.3005 721.787 46.6084 720.68 46.1022C719.641 45.617 719.038 44.4742 719.248 43.0445Z" fill="#E4562B"/>
<path d="M758.671 12.3209C757.511 12.1539 756.603 11.246 756.446 10.0876C756.294 8.86657 756.955 7.6873 758.125 7.31161C759.327 6.94113 760.586 6.79503 761.84 6.87851C762.916 6.91504 763.782 7.81775 763.992 8.86657C764.228 9.97278 763.698 11.0999 762.69 11.6217C761.919 12.0182 759.526 12.4461 758.676 12.3157" fill="#E4562B"/>
<path d="M757.669 33.5059C757.595 33.8242 757.553 34.2208 757.312 34.4973C756.294 35.6766 755.16 36.6889 753.56 36.9915C752.154 37.2681 750.794 36.3601 750.516 34.9617C750.317 33.9651 750.726 32.9476 751.561 32.3579C752.321 31.8257 753.119 31.3352 753.938 30.8969C754.814 30.3908 755.911 30.4847 756.693 31.1213C757.432 31.6796 757.805 32.5875 757.674 33.5007" fill="#E4562B"/>
<path d="M750.186 1.54067C749.241 1.2589 748.113 0.940599 747.153 0.225735C745.925 -0.671759 745.605 -2.10149 746.303 -3.29641C746.98 -4.42349 748.318 -4.83571 749.698 -4.27217C750.579 -3.95909 751.419 -3.55209 752.206 -3.05638C753.235 -2.38848 753.623 -1.07876 753.13 0.037889C752.715 1.10758 751.603 1.7233 750.191 1.53545" fill="#E4562B"/>
<path d="M771.191 4.57749C771.338 3.54433 772.099 2.70945 773.117 2.45899C774.177 2.17722 775.295 2.62075 775.867 3.54433C776.423 4.44183 776.801 5.43324 776.979 6.47162C777.163 7.90135 776.145 9.21107 774.707 9.39891C773.852 9.50849 772.996 9.1902 772.419 8.5536C771.795 7.89614 771.081 5.48021 771.191 4.57749Z" fill="#E4562B"/>
<path d="M708.317 29.9421C707.75 29.8691 707.184 29.8117 706.659 29.5664C705.494 29.0707 704.849 27.8132 705.132 26.587C705.394 25.3503 706.523 24.4841 707.792 24.5415C708.847 24.5833 709.886 24.8546 710.825 25.3294C711.917 25.8512 712.389 26.9992 712.106 28.1784C711.838 29.316 710.81 30.1195 709.634 30.1091C709.188 30.0882 708.747 30.0308 708.312 29.9421" fill="#E4562B"/>
<path d="M752.128 25.1259C751.991 25.1102 751.855 25.0737 751.734 25.0111C750.223 24.2597 749.116 23.1169 748.643 21.5046C748.36 20.5132 748.832 19.6679 749.64 19.0834C750.412 18.5199 751.283 18.3529 752.164 18.786C753.287 19.36 754.221 20.2471 754.861 21.3376C755.391 22.256 755.297 23.2109 754.672 24.0771C754.048 24.9015 753.219 25.2198 752.128 25.1259Z" fill="#E4562B"/>
<path d="M769.208 21.9952C768.604 21.8804 768.001 21.8073 767.455 21.5256C766.301 20.9986 765.702 19.7201 766.038 18.5096C766.316 17.3147 767.413 16.4954 768.641 16.558C769.654 16.5998 770.651 16.8294 771.579 17.2312C772.729 17.7164 773.274 18.9166 772.996 20.1376C772.734 21.2803 771.721 22.0891 770.546 22.1048C770.1 22.0943 769.648 22.0578 769.208 21.99" fill="#E4562B"/>
<path d="M754.541 47.1717C753.822 47.0204 753.109 46.9108 752.432 46.5925C751.22 46.076 750.59 44.7349 750.978 43.4774C751.319 42.2199 752.484 41.4528 753.864 41.6042C754.678 41.6981 755.428 42.0007 756.205 42.2616C757.511 42.6634 758.262 44.0253 757.9 45.335C757.58 46.5926 756.446 47.3439 755.035 47.2291C754.872 47.2291 754.704 47.2083 754.547 47.1717" fill="#E4562B"/>
</g>
</g>
<defs>
<clipPath id="clip0_2042_248">
<rect width="950" height="550" fill="white"/>
</clipPath>
<clipPath id="clip1_2042_248">
<rect width="273" height="264" fill="white" transform="translate(737.459 -156)"/>
</clipPath>
<clipPath id="clip2_2042_248">
<rect width="77" height="76" fill="white" transform="translate(700 -26)"/>
</clipPath>
</defs>
</svg>
