<svg width="950" height="550" viewBox="0 0 950 550" fill="none" xmlns="http://www.w3.org/2000/svg">
<g clip-path="url(#clip0_2042_301)">
<rect width="950" height="550" fill="white"/>
<path d="M881.486 536.726C884.828 553.573 893.313 574.874 914.75 580.69C946.037 589.179 986.709 573.703 1014.33 556.4C1027.61 548.074 1036.64 539.616 1042.76 529.763C1050.4 517.466 1053.12 502.63 1050.23 489.06C1045.96 469.083 1030.35 450.904 1003.85 435.045C984.37 423.409 966.975 416.499 950.668 413.921C931.914 410.969 915.673 414.104 903.71 422.975C891.799 431.816 884.127 446.445 881.52 465.289C878.861 484.506 876.692 512.494 881.481 536.718L881.486 536.726ZM1009.57 562.649C996.102 570.409 981.502 576.752 967.803 580.764C947.392 586.733 929.276 587.655 913.977 583.497C904.254 580.858 896.185 574.994 890.003 566.072C884.736 558.466 880.902 548.79 878.627 537.295C873.758 512.676 875.941 484.337 878.633 464.905C880.009 454.951 882.727 446.115 886.718 438.633C890.626 431.316 895.763 425.26 901.974 420.644C914.584 411.292 931.581 407.967 951.136 411.045C967.824 413.688 985.562 420.714 1005.36 432.548C1017.34 439.71 1027.29 447.515 1034.97 455.733C1044.54 465.99 1050.63 476.991 1053.08 488.445C1056.13 502.741 1053.27 518.358 1045.23 531.288C1038.87 541.537 1029.54 550.294 1015.87 558.865C1013.8 560.162 1011.7 561.424 1009.56 562.654" fill="#F2F2F4"/>
<g clip-path="url(#clip1_2042_301)">
<path d="M957.929 455.107L913.929 444.203L945.49 411.107L957.929 455.107ZM928.327 440.014L947.159 444.681L941.834 425.85L928.327 440.014Z" fill="#E4562B"/>
</g>
<g clip-path="url(#clip2_2042_301)">
<path d="M929.431 149.348C926.067 150.513 923.212 150 920.744 147.18C918.919 145.098 917.822 145.239 915.877 147.196C914.525 148.554 913.076 149.722 911.056 149.925C909.547 150.075 908.27 149.686 908.089 148.056C907.933 146.652 908.769 145.665 910.29 145.535C911.396 145.442 912.171 144.787 912.796 143.996C915.962 140.005 920.999 140.587 924.029 144.162C924.534 144.759 925.093 145.436 926.019 145.451C927.691 145.888 928.355 144.467 929.251 143.6C931.508 141.418 934.057 140.738 937.045 141.741C938.307 142.163 939.104 143.156 939.991 144.044C942.037 146.094 943.041 146.127 945.04 144.08C946.345 142.746 947.755 141.647 949.666 141.381C951.067 141.185 952.399 141.249 952.883 142.891C953.312 144.355 952.57 145.294 950.637 145.641C949.456 145.855 948.801 146.673 948.052 147.419C944.595 150.854 940.595 150.857 937.102 147.419C934.622 144.98 934.246 144.998 931.769 147.434C931.054 148.134 930.215 148.711 929.434 149.345" fill="#FDCA3E"/>
<path d="M924.625 135.172C923.527 134.52 922.707 133.557 921.802 132.687C920.059 131.012 919.055 131.024 917.332 132.724C914.251 135.76 911.468 136.479 908.36 135.084C907.407 134.656 906.722 133.913 906 133.219C903.523 130.831 902.934 130.798 900.479 133.327C898.985 134.867 897.28 135.788 895.125 135.655C893.243 135.537 892.432 133.822 893.43 132.253C893.682 131.854 893.983 131.468 894.437 131.483C896.105 131.534 896.998 130.399 898.041 129.367C901.26 126.182 905.393 126.236 908.594 129.421C911.191 132.005 911.669 132.084 914.206 129.397C916.386 127.082 918.998 126.87 921.847 127.239C923.116 128.051 924.36 128.872 925.427 129.974C927.291 131.896 928.108 131.896 929.966 129.974C931.352 128.54 932.776 127.323 934.887 127.103C936.359 126.949 937.475 127.329 937.751 128.823C938.007 130.209 937.162 131.139 935.821 131.383C934.965 131.54 934.171 131.833 933.678 132.452C931.268 135.477 928.262 136.337 924.625 135.172Z" fill="#FDCA3E"/>
</g>
</g>
<defs>
<clipPath id="clip0_2042_301">
<rect width="950" height="550" fill="white"/>
</clipPath>
<clipPath id="clip1_2042_301">
<rect width="44" height="44" fill="white" transform="translate(913.929 411.107)"/>
</clipPath>
<clipPath id="clip2_2042_301">
<rect width="60" height="23" fill="white" transform="translate(893 127)"/>
</clipPath>
</defs>
</svg>
