<svg width="950" height="550" viewBox="0 0 950 550" fill="none" xmlns="http://www.w3.org/2000/svg">
<g clip-path="url(#clip0_2042_23)">
<rect width="950" height="550" fill="white"/>
<g clip-path="url(#clip1_2042_23)">
<path d="M30.3683 524.564C30.6412 524.615 30.9078 524.691 31.1683 524.792C32.731 525.524 34.207 526.434 35.5775 527.495C36.6007 528.31 37.0038 529.447 36.6255 530.761C36.2721 532.056 35.3543 532.782 34.0644 532.984C33.4442 533.066 32.8117 532.946 32.2597 532.643C31.0815 532.03 29.8784 531.418 28.6939 530.78C28.2722 530.546 27.8815 530.255 27.5342 529.914C26.4676 528.872 26.1947 527.438 26.8211 526.194C27.4908 524.899 28.7373 524.286 30.3621 524.558" fill="#5B6097"/>
<path d="M23.9498 537.115C23.987 537.993 23.8692 538.871 23.5963 539.705C23.0382 541.429 21.4134 542.409 19.7886 541.998C18.1391 541.594 17.1158 540.027 17.4011 538.208C17.6243 536.825 17.8724 535.416 18.2011 534.058C18.6476 532.264 20.0987 531.336 21.7421 531.651C23.3669 531.967 24.3467 533.376 24.1917 535.214C24.1234 535.871 24.0118 536.509 23.9436 537.122" fill="#5B6097"/>
<path d="M21.8105 516.871C20.5392 516.599 19.6462 515.873 19.2679 514.578C18.9268 513.315 19.3981 511.976 20.4462 511.218C21.3144 510.592 22.3748 510.302 23.4291 510.403C24.5205 510.472 25.6368 510.561 26.7282 510.719C28.2662 510.921 29.4135 512.266 29.3824 513.852C29.3576 515.33 28.2662 516.574 26.7096 516.827C26.1825 516.896 25.6554 516.915 25.1283 516.896C24.012 516.896 22.9019 516.871 21.8105 516.871Z" fill="#5B6097"/>
<path d="M43.1372 493.588C41.1093 493.317 39.9745 492.18 39.931 490.569C39.9062 489.091 41.1093 487.48 42.6721 487.259C44.4271 486.981 46.2131 487.126 47.9061 487.663C49.2208 488.074 49.9588 489.369 49.8658 490.727C49.7851 492.148 48.7309 493.317 47.348 493.519C45.8968 493.771 44.4085 493.563 43.1372 493.588Z" fill="#5B6097"/>
<path d="M6.37496 525.815C8.51446 526.068 9.71754 527.312 9.69273 528.967C9.66792 530.717 8.55787 531.892 6.70984 532.075C5.57497 532.188 4.4153 532.233 3.28044 532.258C1.42621 532.258 -0.000126445 530.875 -0.000126445 529.106C-0.0249322 527.243 1.22776 525.885 3.1192 525.79C4.29747 525.72 5.48195 525.79 6.36876 525.815" fill="#5B6097"/>
<path d="M58.8454 498.42C58.5353 499.488 58.2439 500.739 57.6671 501.869C57.4191 502.343 57.078 502.766 56.6625 503.095C55.5028 504.048 54.1881 504.206 53.0532 503.505C51.8998 502.798 51.3478 501.402 51.6951 500.082C52.0362 498.66 52.5757 497.302 53.3013 496.039C54.0145 494.751 55.5586 494.195 56.9105 494.744C58.3617 495.313 59.1183 496.696 58.8516 498.42" fill="#5B6097"/>
<path d="M41.5559 551.662C40.5078 551.46 39.7078 551.365 38.9513 551.024C37.928 550.595 37.1218 549.931 36.7436 548.845C35.987 546.735 37.5931 544.6 39.8629 544.809C41.2954 544.967 42.6969 545.333 44.0302 545.895C45.4442 546.432 46.2256 547.973 45.8349 549.458C45.5 550.936 44.1853 551.89 42.6039 551.795C42.1574 551.77 41.7357 551.681 41.5559 551.656" fill="#5B6097"/>
<path d="M48.4394 532.416C47.6828 532.207 46.7216 532.031 45.8348 531.734C44.117 531.146 43.1619 529.441 43.6084 527.83C44.0984 526.08 45.6797 525.127 47.5526 525.562C48.4332 525.777 49.3076 526.043 50.1572 526.358C51.9618 527.015 52.8734 528.556 52.4517 530.167C52.0052 531.847 50.492 532.732 48.4394 532.416Z" fill="#5B6097"/>
<path d="M81.9026 515.285C81.8096 516.233 81.2701 517.067 80.4515 517.534C79.5151 518.122 78.5415 518.646 77.5306 519.101C75.8624 519.808 74.1198 519.101 73.4067 517.534C72.6935 515.968 73.2268 514.268 74.7648 513.403C75.7632 512.828 76.8175 512.348 77.9089 511.976C79.4593 511.394 81.1771 512.209 81.7476 513.795C81.9212 514.275 81.9709 514.786 81.8964 515.292" fill="#5B6097"/>
<path d="M26.0461 498.016C26.1577 496.867 26.8895 495.881 27.9375 495.452C29.2522 494.858 30.6848 494.574 32.1235 494.637C33.7049 494.681 34.8211 495.818 34.9762 497.384C35.1622 498.85 34.2754 500.24 32.8801 500.65C31.8382 501.01 30.7716 501.294 29.6925 501.515C28.0367 501.863 26.412 500.776 26.0709 499.09C25.9965 498.743 25.9903 498.376 26.0399 498.022" fill="#5B6097"/>
<path d="M9.02307 508.205C10.8029 508.502 13.5439 511.95 13.4323 513.814C13.4013 514.97 12.7253 516.012 11.6959 516.492C10.5796 517.06 9.40135 517.016 8.46494 516.195C7.22465 515.115 6.26342 513.732 5.68049 512.178C4.8991 509.999 6.79675 507.845 9.02307 508.205Z" fill="#5B6097"/>
<path d="M70.3429 505.432C68.5631 505.179 67.422 503.935 67.36 502.393C67.2856 500.808 68.3894 499.418 69.9212 499.147C71.3413 498.913 72.7987 498.97 74.2002 499.33C75.5707 499.639 76.5071 500.922 76.4079 502.349C76.3397 503.802 75.4529 504.983 74.0265 505.274C72.7987 505.545 71.484 505.482 70.3491 505.432" fill="#5B6097"/>
<path d="M69.3385 533.509C67.968 533.306 66.8952 532.207 66.7091 530.805C66.5293 529.327 67.3107 527.899 68.6936 527.445C70.1137 526.996 71.6021 526.819 73.0842 526.92C74.3555 526.965 75.3787 528.057 75.6268 529.327C75.9059 530.666 75.2795 532.03 74.0889 532.662C73.1772 533.142 70.3494 533.66 69.3447 533.502" fill="#5B6097"/>
<path d="M59.3105 520.459C58.1943 520.117 56.861 519.732 55.7261 518.867C54.275 517.78 53.8967 516.05 54.7215 514.603C55.5215 513.239 57.1028 512.74 58.7338 513.422C59.7757 513.801 60.7679 514.294 61.6981 514.894C62.9136 515.702 63.3725 517.288 62.7896 518.639C62.2996 519.934 60.9849 520.68 59.3167 520.452" fill="#5B6097"/>
<path d="M84.135 524.135C84.3086 522.884 85.2078 521.874 86.4109 521.57C87.6636 521.229 88.9845 521.766 89.6605 522.884C90.3178 523.971 90.7643 525.171 90.9752 526.428C91.1922 528.159 89.9892 529.744 88.29 529.971C87.2791 530.104 86.2683 529.719 85.5861 528.948C84.8482 528.152 84.0048 525.228 84.135 524.135Z" fill="#5B6097"/>
<path d="M9.82953 554.839C9.15977 554.751 8.49002 554.682 7.86987 554.385C6.49315 553.785 5.73037 552.262 6.06525 550.778C6.37532 549.281 7.70863 548.232 9.20938 548.302C10.4559 548.352 11.6838 548.681 12.7938 549.256C14.0837 549.887 14.6418 551.277 14.307 552.704C13.9907 554.081 12.7752 555.054 11.3861 555.042C10.859 555.016 10.338 554.947 9.82333 554.839" fill="#5B6097"/>
<path d="M38.4986 512.74C37.4506 512.538 36.5824 511.786 36.2475 510.491C35.894 509.196 36.2475 508.021 37.2955 507.226C38.3746 506.411 39.6149 505.836 40.9296 505.545C42.0645 505.293 43.0009 505.798 43.714 506.701C44.4148 507.548 44.576 508.729 44.1357 509.74C43.4908 511.306 40.4397 513.03 38.4986 512.734" fill="#5B6097"/>
<path d="M61.6051 549.009C61.4439 548.99 61.2827 548.946 61.14 548.87C59.354 547.961 58.0455 546.577 57.4874 544.626C57.1525 543.425 57.7106 542.402 58.6657 541.695C59.5773 541.013 60.6067 540.81 61.6486 541.335C62.9757 542.029 64.0795 543.103 64.8361 544.423C65.4624 545.535 65.3508 546.691 64.6129 547.74C63.8749 548.738 62.895 549.123 61.6051 549.009Z" fill="#5B6097"/>
<path d="M81.791 545.219C81.0778 545.08 80.3647 544.992 79.7197 544.651C78.3554 544.013 77.6484 542.465 78.0453 541C78.374 539.554 79.6701 538.562 81.1212 538.638C82.3181 538.688 83.4964 538.966 84.594 539.452C85.9522 540.04 86.5971 541.493 86.2684 542.971C85.9584 544.354 84.7615 545.333 83.3724 545.352C82.8452 545.339 82.3119 545.295 81.791 545.213" fill="#5B6097"/>
</g>
<g clip-path="url(#clip2_2042_23)">
<path d="M937.074 87.0083C933.374 88.2748 930.233 87.717 927.518 84.6523C925.511 82.3882 924.304 82.5424 922.165 84.6687C920.677 86.1453 919.084 87.4151 916.862 87.635C915.202 87.799 913.797 87.3758 913.598 85.6039C913.426 84.0781 914.345 83.0051 916.018 82.864C917.235 82.7623 918.088 82.0503 918.776 81.1906C922.258 76.8527 927.799 77.486 931.132 81.371C931.688 82.0207 932.303 82.7557 933.321 82.7721C935.159 83.2479 935.89 81.7024 936.876 80.7607C939.359 78.3884 942.163 77.6501 945.449 78.7395C946.838 79.1988 947.714 80.2784 948.689 81.2431C950.941 83.471 952.045 83.5071 954.244 81.2824C955.679 79.8321 957.23 78.6377 959.333 78.349C960.874 78.1357 962.338 78.2046 962.871 79.9896C963.344 81.581 962.527 82.6015 960.401 82.9789C959.101 83.2118 958.381 84.101 957.557 84.9115C953.755 88.6456 949.354 88.6489 945.512 84.9115C942.784 82.2603 942.371 82.2799 939.646 84.9279C938.859 85.6892 937.937 86.3159 937.077 87.005" fill="#E4562B"/>
<path d="M931.787 71.5995C930.58 70.8907 929.678 69.844 928.682 68.899C926.765 67.0779 925.66 67.091 923.766 68.9384C920.376 72.2394 917.315 73.0203 913.896 71.5043C912.848 71.0384 912.094 70.2312 911.3 69.4765C908.576 66.881 907.928 66.8449 905.226 69.5946C903.583 71.2681 901.708 72.2689 899.338 72.1245C897.268 71.9965 896.375 70.1328 897.473 68.4265C897.75 67.9934 898.081 67.5734 898.58 67.5898C900.415 67.6456 901.397 66.4118 902.545 65.2896C906.086 61.8279 910.632 61.8869 914.154 65.3487C917.011 68.1574 917.536 68.2428 920.327 65.3224C922.724 62.8057 925.597 62.576 928.732 62.9763C930.127 63.859 931.496 64.7515 932.67 65.9492C934.72 68.0393 935.619 68.0393 937.663 65.9492C939.187 64.3906 940.754 63.0682 943.075 62.8287C944.695 62.6613 945.922 63.0748 946.226 64.699C946.507 66.2051 945.578 67.2157 944.104 67.4815C943.161 67.6521 942.288 67.9704 941.746 68.6431C939.094 71.9309 935.788 72.8661 931.787 71.5995Z" fill="#E4562B"/>
</g>
</g>
<defs>
<clipPath id="clip0_2042_23">
<rect width="950" height="550" fill="white"/>
</clipPath>
<clipPath id="clip1_2042_23">
<rect width="91" height="92" fill="white" transform="translate(0 487.12)"/>
</clipPath>
<clipPath id="clip2_2042_23">
<rect width="66" height="25" fill="white" transform="translate(897 62.717)"/>
</clipPath>
</defs>
</svg>
