<svg width="950" height="550" viewBox="0 0 950 550" fill="none" xmlns="http://www.w3.org/2000/svg">
<g clip-path="url(#clip0_2042_449)">
<rect width="950" height="550" fill="white"/>
<path d="M846.129 713.167C879.59 722.056 925.674 725.585 955.211 691.938C998.321 642.831 1006.38 555.484 999.546 490.141C996.25 458.719 988.952 434.866 976.54 415.058C961.053 390.326 936.613 372.239 909.485 365.438C869.536 355.453 822.79 367.583 770.579 401.498C732.241 426.44 704.308 451.801 685.18 479.033C663.205 510.364 654.478 542.543 659.927 572.064C665.369 601.465 685.047 628.326 716.847 649.757C749.275 671.611 798.015 700.356 846.112 713.168L846.129 713.167ZM1006.64 504.298C1008.74 535.56 1007.28 567.612 1002.39 595.969C995.095 638.21 980.701 671.82 959.606 695.826C946.207 711.086 928.436 720.493 906.805 723.772C888.366 726.562 867.45 724.921 844.625 718.846C795.742 705.829 746.379 676.746 713.59 654.641C696.793 643.323 683.208 630.567 673.203 616.709C663.424 603.146 657.018 588.478 654.168 573.14C648.422 542.02 657.475 508.304 680.389 475.636C699.972 447.771 728.419 421.893 767.399 396.547C790.981 381.222 813.939 370.123 835.62 363.518C862.681 355.277 887.997 354.005 910.902 359.73C939.479 366.899 965.216 385.914 981.493 411.936C994.404 432.536 1001.98 457.198 1005.37 489.543C1005.89 494.432 1006.31 499.362 1006.64 504.316" fill="#F2F2F4"/>
<g clip-path="url(#clip1_2042_449)">
<path d="M597.807 526.137C598.08 526.186 598.346 526.26 598.607 526.359C600.17 527.076 601.646 527.966 603.016 529.004C604.039 529.801 604.442 530.913 604.064 532.199C603.711 533.465 602.793 534.176 601.503 534.374C600.883 534.454 600.25 534.337 599.698 534.04C598.52 533.441 597.317 532.841 596.133 532.217C595.711 531.988 595.32 531.704 594.973 531.371C593.906 530.351 593.633 528.948 594.26 527.731C594.929 526.464 596.176 525.865 597.801 526.131" fill="#E4562B"/>
<path d="M591.389 538.415C591.426 539.274 591.308 540.132 591.035 540.948C590.477 542.635 588.852 543.593 587.227 543.191C585.578 542.796 584.555 541.263 584.84 539.484C585.063 538.13 585.311 536.752 585.64 535.424C586.086 533.669 587.537 532.761 589.181 533.07C590.806 533.379 591.785 534.757 591.63 536.555C591.562 537.197 591.451 537.821 591.382 538.421" fill="#E4562B"/>
<path d="M589.249 518.61C587.978 518.345 587.085 517.634 586.706 516.367C586.365 515.132 586.837 513.822 587.885 513.08C588.753 512.468 589.813 512.184 590.867 512.283C591.959 512.351 593.075 512.437 594.167 512.592C595.705 512.79 596.852 514.106 596.821 515.657C596.796 517.103 595.705 518.32 594.148 518.567C593.621 518.635 593.094 518.654 592.567 518.635C591.45 518.635 590.34 518.61 589.249 518.61Z" fill="#E4562B"/>
<path d="M610.576 495.834C608.548 495.568 607.413 494.456 607.37 492.88C607.345 491.434 608.548 489.859 610.111 489.642C611.866 489.37 613.652 489.513 615.345 490.038C616.659 490.439 617.397 491.706 617.304 493.035C617.224 494.425 616.169 495.568 614.787 495.766C613.335 496.013 611.847 495.809 610.576 495.834Z" fill="#E4562B"/>
<path d="M573.814 527.36C575.953 527.607 577.156 528.825 577.131 530.444C577.107 532.155 575.997 533.305 574.148 533.484C573.014 533.595 571.854 533.638 570.719 533.663C568.865 533.663 567.439 532.31 567.439 530.58C567.414 528.757 568.666 527.428 570.558 527.336C571.736 527.268 572.921 527.336 573.807 527.36" fill="#E4562B"/>
<path d="M626.284 500.561C625.974 501.605 625.682 502.829 625.106 503.935C624.858 504.398 624.517 504.812 624.101 505.134C622.941 506.067 621.627 506.221 620.492 505.535C619.338 504.843 618.786 503.478 619.134 502.186C619.475 500.796 620.014 499.467 620.74 498.231C621.453 496.971 622.997 496.427 624.349 496.965C625.8 497.521 626.557 498.874 626.29 500.561" fill="#E4562B"/>
<path d="M608.994 552.645C607.946 552.448 607.146 552.355 606.39 552.021C605.366 551.601 604.56 550.952 604.182 549.89C603.425 547.826 605.032 545.737 607.301 545.941C608.734 546.096 610.135 546.454 611.469 547.004C612.883 547.529 613.664 549.037 613.273 550.489C612.938 551.935 611.624 552.868 610.042 552.775C609.596 552.751 609.174 552.664 608.994 552.639" fill="#E4562B"/>
<path d="M615.878 533.817C615.121 533.613 614.16 533.44 613.273 533.15C611.556 532.575 610.601 530.907 611.047 529.331C611.537 527.62 613.118 526.687 614.991 527.113C615.872 527.323 616.746 527.583 617.596 527.891C619.4 528.534 620.312 530.042 619.89 531.618C619.444 533.261 617.931 534.126 615.878 533.817Z" fill="#E4562B"/>
<path d="M649.341 517.06C649.248 517.986 648.708 518.802 647.89 519.259C646.953 519.834 645.98 520.347 644.969 520.792C643.301 521.484 641.558 520.792 640.845 519.259C640.132 517.727 640.665 516.065 642.203 515.218C643.202 514.656 644.256 514.186 645.347 513.822C646.898 513.253 648.615 514.05 649.186 515.601C649.36 516.071 649.409 516.571 649.335 517.066" fill="#E4562B"/>
<path d="M593.484 500.165C593.596 499.041 594.328 498.077 595.376 497.657C596.691 497.076 598.123 496.798 599.562 496.86C601.143 496.903 602.26 498.015 602.415 499.547C602.601 500.981 601.714 502.34 600.318 502.742C599.277 503.094 598.21 503.372 597.131 503.589C595.475 503.929 593.85 502.866 593.509 501.216C593.435 500.876 593.429 500.518 593.478 500.172" fill="#E4562B"/>
<path d="M576.462 510.133C578.241 510.423 580.982 513.797 580.871 515.62C580.84 516.75 580.164 517.77 579.134 518.24C578.018 518.796 576.84 518.753 575.903 517.949C574.663 516.893 573.702 515.539 573.119 514.019C572.338 511.887 574.235 509.78 576.462 510.133Z" fill="#E4562B"/>
<path d="M637.781 507.42C636.002 507.173 634.861 505.955 634.799 504.448C634.724 502.897 635.828 501.537 637.36 501.271C638.78 501.043 640.237 501.098 641.639 501.451C643.009 501.753 643.946 503.008 643.846 504.404C643.778 505.825 642.891 506.981 641.465 507.265C640.237 507.531 638.923 507.469 637.788 507.42" fill="#E4562B"/>
<path d="M636.777 534.886C635.406 534.689 634.333 533.614 634.147 532.242C633.968 530.796 634.749 529.399 636.132 528.954C637.552 528.516 639.04 528.343 640.523 528.442C641.794 528.485 642.817 529.554 643.065 530.796C643.344 532.106 642.718 533.441 641.527 534.058C640.616 534.528 637.788 535.035 636.783 534.88" fill="#E4562B"/>
<path d="M626.749 522.12C625.633 521.786 624.299 521.409 623.165 520.563C621.713 519.5 621.335 517.807 622.16 516.392C622.96 515.057 624.541 514.569 626.172 515.236C627.214 515.607 628.206 516.089 629.137 516.676C630.352 517.467 630.811 519.018 630.228 520.34C629.738 521.607 628.423 522.336 626.755 522.114" fill="#E4562B"/>
<path d="M651.574 525.716C651.747 524.493 652.646 523.504 653.849 523.208C655.102 522.874 656.423 523.399 657.099 524.493C657.756 525.556 658.203 526.73 658.414 527.959C658.631 529.653 657.428 531.203 655.728 531.426C654.718 531.556 653.707 531.179 653.025 530.425C652.287 529.646 651.443 526.785 651.574 525.716Z" fill="#E4562B"/>
<path d="M577.268 555.754C576.598 555.667 575.928 555.599 575.308 555.309C573.931 554.722 573.169 553.233 573.504 551.78C573.814 550.316 575.147 549.29 576.648 549.358C577.894 549.408 579.122 549.729 580.232 550.291C581.522 550.909 582.08 552.269 581.745 553.665C581.429 555.012 580.213 555.964 578.824 555.951C578.297 555.927 577.776 555.859 577.262 555.754" fill="#E4562B"/>
<path d="M605.937 514.569C604.889 514.371 604.021 513.636 603.686 512.369C603.332 511.103 603.686 509.953 604.734 509.175C605.813 508.378 607.053 507.815 608.368 507.531C609.503 507.284 610.439 507.778 611.152 508.662C611.853 509.49 612.014 510.645 611.574 511.634C610.929 513.166 607.878 514.853 605.937 514.563" fill="#E4562B"/>
<path d="M629.044 550.05C628.882 550.032 628.721 549.988 628.579 549.914C626.793 549.024 625.484 547.671 624.926 545.762C624.591 544.588 625.149 543.587 626.104 542.895C627.016 542.227 628.045 542.029 629.087 542.542C630.414 543.222 631.518 544.273 632.275 545.564C632.901 546.651 632.789 547.782 632.051 548.808C631.313 549.784 630.334 550.161 629.044 550.05Z" fill="#E4562B"/>
<path d="M649.229 546.343C648.516 546.207 647.803 546.12 647.158 545.786C645.794 545.162 645.087 543.648 645.484 542.215C645.812 540.8 647.109 539.83 648.56 539.904C649.757 539.953 650.935 540.225 652.032 540.701C653.391 541.276 654.036 542.697 653.707 544.143C653.397 545.496 652.2 546.454 650.811 546.472C650.284 546.46 649.75 546.417 649.229 546.336" fill="#E4562B"/>
</g>
<g clip-path="url(#clip2_2042_449)">
<path d="M934.324 133.766C931.016 134.881 928.208 134.39 925.782 131.693C923.987 129.7 922.909 129.836 920.996 131.707C919.666 133.007 918.241 134.124 916.255 134.317C914.771 134.462 913.515 134.089 913.338 132.53C913.184 131.187 914.006 130.243 915.501 130.119C916.589 130.029 917.352 129.403 917.967 128.646C921.079 124.829 926.033 125.386 929.012 128.805C929.509 129.377 930.059 130.024 930.969 130.038C932.612 130.457 933.266 129.097 934.146 128.268C936.366 126.18 938.873 125.531 941.811 126.489C943.052 126.894 943.835 127.844 944.707 128.693C946.72 130.653 947.707 130.685 949.673 128.727C950.956 127.451 952.342 126.4 954.222 126.146C955.599 125.958 956.909 126.019 957.385 127.59C957.807 128.99 957.077 129.888 955.177 130.22C954.015 130.425 953.371 131.208 952.635 131.921C949.236 135.207 945.301 135.21 941.867 131.921C939.428 129.588 939.059 129.605 936.623 131.935C935.92 132.605 935.095 133.157 934.327 133.763" fill="#FDCA3E"/>
<path d="M929.598 120.206C928.519 119.582 927.712 118.661 926.822 117.83C925.108 116.227 924.12 116.239 922.427 117.864C919.397 120.769 916.66 121.456 913.604 120.122C912.667 119.712 911.993 119.002 911.284 118.338C908.848 116.054 908.269 116.022 905.854 118.442C904.385 119.915 902.709 120.795 900.59 120.668C898.739 120.556 897.941 118.915 898.923 117.414C899.171 117.033 899.466 116.663 899.913 116.678C901.553 116.727 902.431 115.641 903.457 114.653C906.622 111.607 910.687 111.659 913.834 114.705C916.388 117.177 916.858 117.252 919.353 114.682C921.496 112.468 924.064 112.265 926.866 112.618C928.114 113.395 929.337 114.18 930.387 115.234C932.219 117.073 933.023 117.073 934.85 115.234C936.213 113.862 937.614 112.699 939.688 112.488C941.137 112.341 942.233 112.704 942.505 114.134C942.757 115.459 941.926 116.348 940.608 116.582C939.765 116.732 938.985 117.013 938.5 117.605C936.13 120.498 933.174 121.321 929.598 120.206Z" fill="#FDCA3E"/>
</g>
</g>
<defs>
<clipPath id="clip0_2042_449">
<rect width="950" height="550" fill="white"/>
</clipPath>
<clipPath id="clip1_2042_449">
<rect width="91" height="90" fill="white" transform="translate(567.438 489.506)"/>
</clipPath>
<clipPath id="clip2_2042_449">
<rect width="59" height="22" fill="white" transform="translate(898.5 112.39)"/>
</clipPath>
</defs>
</svg>
