<svg width="950" height="550" viewBox="0 0 950 550" fill="none" xmlns="http://www.w3.org/2000/svg">
<g clip-path="url(#clip0_2042_224)">
<rect width="950" height="550" fill="white"/>
<path d="M777.201 491.002C760.734 510.609 743.887 540.351 757.129 570.7C776.455 614.996 832.399 647.841 878.29 663.806C900.362 671.475 918.625 674.087 935.787 672.003C957.212 669.408 977.002 658.731 990.081 642.707C1009.32 619.101 1015.89 583.994 1009.6 538.381C1004.95 504.876 996.751 478.205 984.533 456.84C970.464 432.281 951.665 416.325 930.188 410.694C908.795 405.097 884.628 409.828 860.286 424.381C835.463 439.222 800.9 462.817 777.206 490.99L777.201 491.002ZM866.583 664.105C844.994 655.686 823.996 644.632 806.548 632.449C780.563 614.288 762.586 594.088 753.144 572.42C747.14 558.654 746.428 543.8 751.031 528.289C754.959 515.068 762.631 501.581 773.872 488.209C797.951 459.575 832.935 435.669 858.039 420.666C870.896 412.978 883.705 407.893 896.127 405.55C908.281 403.266 920.114 403.588 931.278 406.501C953.918 412.435 973.644 429.093 988.312 454.7C1000.81 476.568 1009.2 503.746 1013.91 537.808C1016.76 558.412 1016.97 577.27 1014.58 593.861C1011.59 614.567 1004.49 631.915 993.457 645.45C979.676 662.328 958.857 673.582 936.321 676.3C918.471 678.469 899.58 675.789 876.86 667.894C873.424 666.704 869.992 665.434 866.572 664.1" fill="#F2F2F4"/>
<g clip-path="url(#clip1_2042_224)">
<path d="M815.49 544.323C814.885 544.725 814.256 544.68 813.65 544.658C810.486 544.569 807.326 544.502 804.162 544.368C795.482 544.01 786.783 543.988 778.103 543.698C770.365 543.43 762.632 542.938 754.894 542.626C744.176 542.179 733.454 542.023 722.758 541.777C722.242 541.777 721.726 541.732 721.209 541.643C720.469 541.509 719.975 540.839 720.043 540.102C720.043 539.365 720.604 538.744 721.344 538.65C722.107 538.583 722.848 538.561 723.606 538.606C739.706 538.918 755.81 539.32 771.887 540.258C781.038 540.794 790.208 540.705 799.36 540.995C804.315 541.152 809.27 541.442 814.207 541.799C814.543 541.822 814.858 541.866 815.172 541.978C815.643 542.134 815.957 542.536 816.025 543.028C816.092 543.519 815.89 544.033 815.486 544.323" fill="#E4562B"/>
<path d="M814.862 536.489C814.256 536.891 813.606 536.801 812.932 536.757C807.573 536.31 802.192 535.908 796.81 535.908C786.968 535.908 777.21 534.903 767.412 534.367C755.864 533.742 744.293 533.63 732.74 533.206C729.715 533.094 726.708 532.893 723.683 532.714C723.301 532.692 722.942 532.647 722.561 532.536C721.887 532.357 721.461 531.709 721.551 531.039C721.618 530.391 722.112 529.9 722.763 529.833C723.099 529.788 723.413 529.788 723.75 529.811C738.148 530.235 752.542 530.414 766.918 531.128C770.172 531.285 773.422 531.463 776.671 531.776C783.871 532.469 791.092 532.491 798.314 532.714C802.416 532.848 806.523 533.116 810.625 533.317C811.478 533.362 812.331 533.429 813.161 533.429C813.722 533.407 814.306 533.541 814.799 533.831C815.54 534.278 815.764 535.238 815.316 535.975C815.203 536.221 815.046 536.377 814.867 536.489" fill="#E4562B"/>
<path d="M721.932 551.863C721.281 550.925 721.663 549.808 722.628 549.451C723.077 549.317 723.57 549.272 724.042 549.339C738.328 549.987 752.654 549.987 766.941 550.635C772.143 550.858 777.322 550.568 782.528 550.389C791.456 550.076 800.378 550.233 809.283 550.858C810.562 550.947 811.841 551.014 813.094 551.081C813.43 551.081 813.745 551.104 814.081 551.171C814.844 551.349 815.271 551.841 815.271 552.533C815.271 553.225 814.754 553.806 813.946 553.94C813.52 553.985 813.094 553.985 812.667 553.962C806.725 553.806 800.782 553.65 794.817 553.471C788.673 553.292 782.551 553.56 776.406 553.784C769.925 554.029 763.467 553.694 757.008 553.471C746.111 553.091 735.191 553.047 724.288 552.555C723.862 552.533 723.436 552.533 723.009 552.466C722.583 552.444 722.179 552.22 721.932 551.863Z" fill="#E4562B"/>
<path d="M812.129 526.046C811.725 526.381 811.209 526.336 810.67 526.269C805.311 525.755 799.952 525.331 794.589 524.728C788.265 524.013 781.896 523.634 775.527 523.544C762.632 523.388 749.76 522.807 736.887 522.07C734.531 521.936 732.179 521.914 729.8 521.824C729.374 521.824 728.948 521.78 728.544 521.69C727.713 521.489 727.197 520.641 727.421 519.814C727.579 519.211 728.05 518.765 728.656 518.675C729.082 518.608 729.509 518.608 729.935 518.631C732.067 518.698 734.172 518.698 736.304 518.832C751.331 519.725 766.398 520.172 781.447 520.507C789.432 520.685 797.345 521.82 805.262 522.696C807.102 522.897 808.915 523.142 810.733 523.366C811.204 523.433 811.676 523.477 812.08 523.745C812.708 524.147 812.91 524.974 812.506 525.621C812.416 525.778 812.282 525.934 812.124 526.046" fill="#E4562B"/>
<path d="M734.625 510.533C735.119 510.175 735.702 510.22 736.263 510.22C739.562 510.242 742.879 510.309 746.173 510.309C753.777 510.309 761.357 509.84 768.956 509.907C780.1 510.019 791.2 511.024 802.282 512.163C803.269 512.252 804.256 512.364 805.172 512.766C805.957 513.101 806.272 513.771 806.07 514.463C805.868 515.178 805.284 515.602 804.409 515.446C800.572 514.776 796.694 514.798 792.838 514.463C783.803 513.682 774.764 512.989 765.702 513.123C759.558 513.213 753.436 513.414 747.291 513.503C743.525 513.548 739.733 513.458 735.967 513.436C735.541 513.458 735.114 513.391 734.733 513.213C733.97 512.833 733.656 511.917 734.037 511.158C734.194 510.89 734.374 510.689 734.621 510.533" fill="#E4562B"/>
<path d="M747.609 500.402C748.103 500.067 748.686 500.112 749.248 500.089C755.527 499.911 761.806 500.022 768.085 500.268C776.765 500.581 785.419 501.452 794.054 502.39C794.234 502.412 794.436 502.434 794.615 502.457C795.445 502.658 795.917 503.194 795.872 503.904C795.827 504.686 795.288 505.199 794.346 505.244C793.74 505.244 793.112 505.222 792.506 505.155C785.172 504.619 777.815 503.993 770.459 503.569C763.574 503.167 756.689 503.078 749.782 503.256C749.176 503.279 748.547 503.346 747.964 503.145C747.336 502.921 746.932 502.497 746.887 501.805C746.842 501.269 747.111 500.688 747.605 500.398" fill="#E4562B"/>
</g>
<g clip-path="url(#clip2_2042_224)">
<path d="M868.065 100.433C865.094 101.446 862.572 101 860.392 98.5483C858.78 96.737 857.811 96.8604 856.093 98.5614C854.898 99.7426 853.619 100.759 851.834 100.934C850.501 101.066 849.373 100.727 849.214 99.3095C849.076 98.0889 849.814 97.2305 851.157 97.1176C852.134 97.0362 852.819 96.4666 853.372 95.7789C856.168 92.3086 860.618 92.8152 863.294 95.9232C863.74 96.443 864.234 97.031 865.052 97.0441C866.528 97.4247 867.115 96.1884 867.906 95.435C869.9 93.5371 872.152 92.9465 874.791 93.818C875.906 94.1855 876.61 95.0491 877.393 95.8209C879.201 97.6033 880.088 97.6321 881.854 95.8524C883.006 94.6921 884.251 93.7366 885.94 93.5056C887.177 93.335 888.354 93.3901 888.781 94.8181C889.161 96.0912 888.505 96.9076 886.798 97.2095C885.754 97.3959 885.175 98.1073 884.514 98.7556C881.461 101.743 877.927 101.746 874.841 98.7556C872.651 96.6346 872.319 96.6504 870.131 98.7688C869.499 99.3778 868.758 99.8791 868.068 100.43" fill="#FDCA3E"/>
<path d="M863.82 88.1059C862.851 87.5389 862.126 86.7015 861.327 85.9455C859.787 84.4886 858.9 84.4991 857.378 85.977C854.657 88.6177 852.198 89.2425 849.453 88.0297C848.611 87.657 848.006 87.0112 847.368 86.4075C845.18 84.3311 844.66 84.3022 842.491 86.502C841.171 87.8407 839.666 88.6414 837.762 88.5259C836.1 88.4235 835.383 86.9325 836.264 85.5675C836.487 85.221 836.753 84.885 837.154 84.8981C838.627 84.9427 839.416 83.9557 840.337 83.058C843.181 80.2886 846.832 80.3358 849.66 83.1052C851.954 85.3522 852.376 85.4205 854.617 83.0842C856.542 81.0708 858.849 80.8871 861.366 81.2073C862.487 81.9135 863.586 82.6275 864.529 83.5856C866.175 85.2577 866.897 85.2577 868.538 83.5856C869.762 82.3387 871.021 81.2808 872.885 81.0892C874.186 80.9553 875.171 81.2861 875.415 82.5855C875.641 83.7903 874.895 84.5988 873.71 84.8115C872.954 84.948 872.253 85.2026 871.817 85.7407C869.688 88.371 867.033 89.1191 863.82 88.1059Z" fill="#FDCA3E"/>
</g>
</g>
<defs>
<clipPath id="clip0_2042_224">
<rect width="950" height="550" fill="white"/>
</clipPath>
<clipPath id="clip1_2042_224">
<rect width="96" height="82" fill="white" transform="translate(720.042 500)"/>
</clipPath>
<clipPath id="clip2_2042_224">
<rect width="53" height="20" fill="white" transform="translate(835.885 81)"/>
</clipPath>
</defs>
</svg>
